<?xml version="1.0" standalone="no"?>
<!DOCTYPE svg PUBLIC "-//W3C//DTD SVG 20010904//EN"
 "http://www.w3.org/TR/2001/REC-SVG-20010904/DTD/svg10.dtd">
<svg version="1.0" xmlns="http://www.w3.org/2000/svg"
 width="894.000000pt" height="1008.000000pt" viewBox="0 0 894.000000 1008.000000"
 preserveAspectRatio="xMidYMid meet">
<metadata>
Created by potrace 1.15, written by Peter Selinger 2001-2017
</metadata>
<g transform="translate(0.000000,1008.000000) scale(0.100000,-0.100000)"
fill="#000000" stroke="none">
<path d="M7420 9466 c0 -8 -8 -15 -17 -15 -41 1 -128 -39 -144 -64 -8 -15 -18
-24 -21 -21 -11 10 -47 -16 -42 -30 3 -9 -3 -17 -18 -21 -27 -9 -64 -46 -73
-75 -6 -20 -25 -28 -25 -11 0 5 -14 -4 -31 -20 -17 -16 -35 -29 -40 -29 -5 0
-9 -9 -9 -19 0 -11 -15 -32 -32 -47 -18 -15 -25 -25 -15 -21 9 3 17 2 17 -2 0
-8 -23 -21 -36 -20 -13 1 -54 -54 -54 -73 0 -12 -3 -18 -7 -15 -10 11 -32 -13
-26 -29 3 -8 15 -15 27 -15 19 -1 19 -2 2 -6 -11 -3 -26 -11 -34 -19 -7 -8
-18 -11 -23 -8 -6 3 -2 12 8 19 10 7 15 16 11 20 -6 7 -55 -43 -87 -88 -12
-17 -12 -21 2 -32 24 -17 21 -22 -15 -29 -30 -7 -83 -60 -123 -125 -5 -9 -45
-55 -87 -103 -43 -47 -78 -91 -78 -97 0 -5 -19 -30 -42 -55 -211 -221 -253
-275 -215 -276 15 -1 -22 -23 -43 -27 -18 -2 -130 -118 -131 -135 -1 -7 -1
-17 0 -22 1 -4 -4 -15 -10 -23 -10 -11 -14 -11 -21 -1 -5 8 -6 3 -2 -14 5 -23
3 -26 -15 -21 -13 3 -21 1 -21 -7 0 -7 -8 -9 -20 -5 -11 4 -20 2 -20 -4 0 -6
5 -11 12 -11 6 0 8 -3 5 -7 -4 -3 -2 -12 4 -20 9 -10 8 -13 -5 -13 -9 0 -16 5
-16 10 0 6 -7 10 -16 10 -8 0 -12 -4 -9 -10 3 -5 2 -10 -3 -10 -6 0 -13 -11
-16 -25 -4 -16 -13 -25 -27 -25 -11 0 -22 -7 -25 -15 -4 -8 -14 -15 -23 -15
-18 -1 -61 -34 -61 -48 0 -17 -42 -47 -61 -44 -15 3 -17 -1 -12 -15 6 -16 5
-17 -11 -4 -17 14 -17 13 -12 -19 3 -19 0 -40 -6 -47 -12 -15 -32 -18 -23 -3
12 19 -7 10 -25 -12 -15 -19 -21 -21 -31 -10 -17 16 -35 16 -21 -1 18 -21 -3
-39 -47 -41 -23 0 -40 -5 -38 -11 5 -15 -20 -36 -36 -30 -7 3 -20 -1 -27 -10
-7 -8 -22 -15 -33 -15 -19 0 -20 1 -2 20 18 20 17 20 -16 21 -32 0 -32 1 -10
10 22 9 22 11 8 32 -18 27 -47 35 -47 12 0 -9 -4 -14 -10 -10 -14 9 -46 -27
-42 -48 4 -21 -20 -47 -46 -47 -10 0 -30 -10 -44 -23 -22 -20 -23 -24 -9 -37
13 -13 12 -15 -10 -21 -45 -13 -48 -11 -45 29 3 41 -2 62 -15 62 -5 0 -9 -6
-9 -12 0 -7 -5 -20 -10 -28 -8 -13 -11 -12 -24 5 -15 19 -15 19 -16 -14 0 -30
2 -33 25 -27 18 5 27 1 36 -15 9 -17 8 -23 -2 -30 -23 -14 -31 -10 -24 12 6
19 5 20 -14 9 -12 -6 -19 -16 -15 -22 4 -5 2 -13 -4 -17 -11 -6 -15 -45 -10
-81 3 -20 29 -45 48 -45 22 0 24 -31 3 -53 -18 -19 -43 -57 -43 -67 0 -3 12
-5 26 -5 22 0 25 -2 14 -15 -7 -8 -10 -24 -7 -35 3 -13 0 -20 -10 -20 -16 0
-45 -25 -37 -33 3 -2 -7 -7 -21 -11 -19 -5 -25 -13 -25 -34 0 -15 -5 -33 -11
-39 -8 -8 -8 -13 0 -17 6 -4 11 0 11 11 1 17 2 16 17 -2 10 -13 14 -14 10 -4
-3 8 4 26 15 40 18 22 18 22 8 2 -6 -13 -8 -34 -4 -48 4 -15 2 -25 -5 -25 -6
0 -11 -5 -11 -11 0 -6 20 1 45 15 43 26 62 23 30 -4 -8 -7 -15 -20 -15 -29 1
-13 4 -12 19 6 14 16 21 19 30 10 8 -8 11 -5 11 11 0 13 6 22 15 22 9 0 27 11
41 25 14 14 33 25 44 25 10 0 20 8 22 17 3 15 4 15 20 -1 17 -16 19 -16 43 1
13 10 25 22 25 26 0 5 4 6 10 2 5 -3 6 -13 3 -22 -5 -12 -3 -14 7 -8 10 6 12
4 7 -9 -4 -10 -1 -26 6 -36 12 -17 16 -18 41 -5 19 10 33 12 46 5 9 -5 20 -7
23 -4 3 4 5 -3 4 -15 -1 -13 -8 -21 -19 -21 -10 0 -18 -4 -18 -10 0 -5 -4 -10
-10 -10 -13 0 -50 -37 -50 -50 0 -11 23 -14 33 -3 4 3 17 7 30 8 12 1 30 5 40
10 14 6 20 2 24 -13 3 -14 11 -19 21 -15 13 3 13 1 -2 -11 -11 -9 -16 -16 -11
-16 5 0 4 -5 -3 -12 -7 -7 -12 -22 -12 -34 0 -17 4 -21 20 -17 15 4 20 0 20
-17 0 -17 4 -20 21 -15 14 5 20 3 18 -7 -1 -7 0 -20 4 -28 11 -29 14 -70 6
-70 -5 0 -9 5 -9 10 0 6 -11 10 -25 10 -14 0 -25 5 -25 11 0 5 -5 7 -11 4 -7
-5 -5 -13 6 -25 17 -19 13 -40 -6 -40 -6 0 -7 5 -4 10 3 6 0 13 -8 16 -9 3
-13 13 -9 26 3 15 1 19 -9 16 -19 -7 -14 -55 7 -79 15 -16 15 -20 1 -34 -9 -8
-20 -15 -26 -15 -5 0 -11 -10 -13 -22 -2 -11 -10 -22 -20 -24 -22 -3 -78 -45
-72 -55 2 -4 21 3 41 16 42 29 53 31 53 10 0 -13 4 -14 21 -5 11 7 18 17 16
24 -8 20 10 40 34 41 12 0 24 6 27 14 3 9 -1 11 -15 7 -17 -5 -19 -2 -15 25 2
17 10 33 18 36 7 2 10 11 7 19 -3 8 -2 14 1 14 4 0 11 -11 16 -25 l10 -26 41
41 c24 23 50 40 62 39 12 0 16 -3 10 -6 -7 -2 -13 -9 -13 -14 0 -6 5 -7 12 -3
6 4 17 -1 25 -11 7 -11 13 -13 13 -7 0 7 11 12 25 12 15 0 25 6 25 14 0 8 9
17 19 21 10 3 22 16 25 28 6 22 6 22 22 2 9 -12 11 -21 4 -23 -5 -2 -8 -8 -4
-13 3 -5 -4 -9 -15 -9 -12 0 -21 -4 -21 -9 0 -13 32 -23 39 -13 7 10 43 26 54
24 4 -1 7 5 7 13 0 8 4 15 9 15 12 0 2 -40 -14 -60 -17 -20 -16 -70 1 -70 7 0
15 4 19 10 3 5 12 7 20 3 9 -3 15 1 15 11 0 9 3 17 8 17 59 10 98 -2 87 -28
-3 -9 0 -20 6 -24 6 -4 8 -12 4 -19 -6 -9 -10 -8 -17 4 -9 16 -11 16 -24 -1
-12 -17 -13 -16 -14 9 0 25 -1 26 -25 14 -36 -19 -86 -79 -75 -90 5 -5 30 -10
55 -11 42 -2 79 -15 42 -15 -10 0 -17 -7 -17 -15 0 -9 -7 -18 -15 -21 -8 -4
-15 -10 -15 -16 0 -5 5 -6 12 -2 19 12 78 16 78 5 0 -5 9 -7 20 -4 14 4 22 -2
30 -21 5 -14 15 -26 21 -26 7 0 10 -2 7 -6 -3 -3 -2 -20 2 -39 4 -18 3 -38 -2
-43 -5 -5 5 -19 27 -36 37 -28 42 -27 25 4 -11 21 5 60 24 60 6 0 5 -5 -2 -12
-18 -18 -15 -48 5 -48 9 0 25 8 35 17 18 16 18 15 3 -21 -9 -21 -13 -47 -9
-58 5 -17 3 -20 -10 -15 -21 8 -20 -2 2 -19 24 -19 32 -17 32 6 0 11 6 20 14
20 9 0 12 -8 8 -25 -3 -20 0 -25 17 -25 11 0 21 6 21 14 0 9 7 12 19 9 12 -3
20 2 23 14 4 16 13 19 58 17 61 -2 88 -21 62 -44 -14 -13 -15 -12 -9 3 6 15 4
16 -14 7 -11 -6 -17 -15 -14 -21 9 -14 42 -11 59 6 8 8 21 15 30 15 8 0 19 7
24 16 5 10 15 14 21 10 9 -6 9 -11 1 -21 -18 -22 61 -6 80 16 23 28 90 61 90
46 0 -7 -5 -18 -12 -25 -8 -8 -8 -15 -1 -24 18 -23 24 -66 10 -72 -6 -3 -2 -3
11 0 12 3 22 1 22 -5 0 -15 33 -14 48 1 9 9 12 7 12 -11 0 -17 3 -21 13 -13 6
5 40 9 74 8 36 -1 64 3 67 9 2 6 10 6 24 -2 18 -11 20 -9 19 21 -1 21 7 40 22
55 19 19 21 25 10 32 -10 6 -11 9 -1 9 14 0 16 19 3 39 -7 11 -16 8 -47 -13
-21 -14 -44 -26 -51 -26 -7 0 -13 -5 -13 -11 0 -7 -12 -9 -31 -7 -23 4 -34 -1
-48 -18 -19 -25 -61 -23 -61 2 0 15 60 44 91 44 26 0 49 27 49 58 0 15 7 36
15 46 8 11 15 26 15 33 0 18 -39 55 -50 48 -6 -4 -10 -1 -10 4 0 6 7 11 16 11
12 0 15 6 11 22 -4 15 1 28 18 44 18 16 25 34 25 59 0 19 5 35 10 35 6 0 10 5
10 11 0 5 -4 7 -10 4 -5 -3 -10 -1 -10 4 0 6 -4 11 -10 11 -5 0 -7 -7 -4 -15
4 -8 1 -15 -4 -15 -15 0 -24 18 -13 25 10 6 7 24 -12 63 -12 25 -27 29 -27 7
0 -9 -6 -12 -16 -8 -8 3 -13 12 -10 19 4 10 -4 12 -30 9 -26 -4 -34 -1 -34 10
0 9 -7 18 -15 21 -8 4 -15 17 -15 30 0 29 -11 31 -28 4 -7 -11 -19 -20 -27
-20 -12 0 -13 -4 -5 -19 7 -13 7 -22 0 -26 -5 -3 -10 -2 -10 3 0 5 -17 9 -37
10 -20 1 -40 5 -45 10 -11 11 -58 3 -58 -9 0 -5 -11 -9 -24 -9 -31 0 -40 -14
-27 -39 8 -14 8 -20 -1 -23 -7 -3 -9 -12 -5 -22 5 -12 13 -15 27 -11 15 5 20
2 20 -10 0 -26 -40 -63 -62 -57 -24 6 -23 19 3 33 12 6 17 15 12 20 -13 13
-50 -1 -62 -24 -11 -22 -12 -22 -7 1 3 17 1 21 -7 14 -7 -5 -19 -9 -28 -9 -29
1 -10 46 27 63 19 9 34 22 34 29 0 7 7 15 15 19 8 3 15 12 15 21 0 8 7 15 15
15 8 0 15 8 15 18 1 20 29 57 49 63 8 3 15 20 17 38 3 19 12 40 22 47 9 7 13
14 8 14 -5 0 -18 -7 -28 -17 -14 -13 -18 -13 -18 -2 0 11 -2 11 -11 -1 -8 -11
-12 -12 -16 -3 -3 8 -14 11 -30 6 -22 -5 -25 -3 -20 10 9 24 -14 33 -30 12 -7
-11 -13 -13 -13 -6 0 17 23 38 35 34 6 -2 19 11 30 29 10 18 20 27 23 20 5
-15 53 -4 68 16 7 9 20 13 32 10 12 -3 29 0 39 8 17 13 17 13 1 14 -25 0 -23
30 2 30 11 0 20 5 20 10 0 6 9 10 19 10 11 0 26 6 33 14 8 7 28 12 45 11 40
-2 53 22 18 35 -14 5 -31 7 -38 4 -21 -7 -20 53 0 65 11 6 14 14 8 27 -7 17
-9 17 -12 2 -2 -9 -10 -15 -18 -12 -8 3 -11 12 -8 20 5 13 -20 46 -34 44 -4
-1 -9 4 -12 11 -2 6 1 9 6 6 14 -9 124 19 133 33 4 6 13 10 20 8 7 -2 15 3 17
10 4 11 -41 18 -104 14 -13 0 -23 3 -23 9 0 5 4 9 9 9 5 0 7 10 3 22 -4 17 -2
20 11 15 8 -3 21 1 27 8 7 8 16 13 20 10 4 -3 20 11 34 30 15 19 33 35 41 35
8 0 19 9 25 21 15 27 47 59 60 59 6 0 10 5 10 11 0 5 4 8 9 5 5 -4 7 3 4 15
-3 12 -11 18 -19 15 -8 -3 -14 -1 -14 5 0 6 -8 9 -17 7 -10 -1 -24 1 -30 5
-19 12 -16 30 3 23 12 -5 15 -2 10 10 -3 8 -6 24 -6 35 0 25 -21 24 -50 -1
-13 -11 -37 -20 -54 -19 -30 0 -30 1 -7 10 13 5 29 16 35 25 6 8 23 16 36 18
69 9 101 32 70 51 -5 3 -10 -1 -10 -9 0 -9 -5 -16 -10 -16 -6 0 -9 5 -8 12 2
6 -6 14 -17 16 -19 4 -44 29 -45 45 0 10 28 9 32 -2 2 -5 25 -5 53 -1 28 4 77
7 110 6 56 -2 62 0 82 28 17 22 20 33 12 43 -9 9 -8 17 1 28 10 13 9 15 -9 15
-22 0 -28 14 -11 25 13 8 -29 55 -45 49 -7 -3 -15 5 -18 16 -3 12 -9 20 -14
17 -10 -6 -49 21 -41 29 3 3 15 0 27 -8 16 -9 23 -10 32 -1 9 9 19 8 41 -3 22
-11 33 -12 43 -4 9 8 15 8 20 0 3 -5 3 -10 -2 -10 -4 -1 3 -7 16 -14 32 -18
61 -9 61 18 0 25 36 61 46 45 4 -7 10 -6 19 1 8 7 19 8 26 4 7 -4 10 -2 7 6
-2 7 -23 14 -47 16 -23 2 -40 0 -37 -4 7 -12 -7 -30 -29 -34 -13 -2 -21 3 -23
16 -3 13 0 17 10 13 11 -4 13 2 10 27 -3 17 -9 34 -15 37 -16 11 4 31 24 26
12 -3 23 2 29 13 6 10 20 20 32 22 28 4 34 43 9 59 -13 8 -12 9 7 4 27 -8 27
-3 5 46 -18 38 -39 49 -60 28 -7 -7 -12 -6 -16 5 -7 17 19 22 90 17 17 -1 35
4 40 11 11 18 63 51 64 41 0 -5 4 2 9 14 8 20 13 22 37 12 26 -10 26 -9 10 9
-21 23 -22 32 -2 32 8 0 15 5 15 10 0 6 12 10 26 10 14 0 23 4 20 9 -3 5 1 12
10 15 11 4 18 -1 21 -14 3 -11 13 -20 22 -20 13 0 16 8 14 38 -3 33 -2 35 8
15 7 -13 16 -23 20 -23 5 0 6 -7 3 -15 -4 -8 -1 -15 6 -15 8 0 9 10 5 33 -8
33 -20 47 -43 47 -7 0 -10 5 -7 10 3 6 -2 13 -12 17 -10 3 -26 13 -35 21 -16
14 -18 13 -18 -1 0 -23 -9 -21 -53 8 -20 14 -41 24 -46 21 -11 -7 -79 12 -86
24 -12 19 15 50 40 48 25 -2 34 -21 15 -33 -5 -3 -10 -12 -9 -18 0 -8 2 -8 6
1 4 10 8 10 21 0 12 -10 16 -10 19 0 8 21 30 13 37 -12 8 -32 36 -43 43 -16 5
17 7 18 25 6 18 -13 25 -12 59 6 22 11 39 27 38 37 0 10 -2 11 -6 4 -2 -7 -18
-13 -35 -13 -32 0 -35 22 -3 29 10 1 23 7 29 12 6 5 25 20 43 34 32 26 63 25
63 -1 0 -8 6 -11 15 -8 10 4 15 0 15 -11 0 -11 5 -15 15 -11 22 8 37 -34 19
-52 -19 -18 -18 -46 0 -39 10 4 13 1 10 -8 -3 -7 -12 -16 -20 -19 -8 -3 -14
-11 -14 -17 0 -7 3 -9 7 -6 3 4 12 2 20 -4 10 -9 13 -7 14 7 0 17 1 16 9 -3 5
-12 7 -40 5 -62 -4 -43 5 -56 45 -64 25 -4 25 -4 3 -12 -26 -8 -30 -23 -8 -31
8 -4 15 -16 15 -29 0 -13 -7 -25 -15 -29 -18 -7 -21 -72 -2 -80 8 -3 7 -8 -6
-16 -14 -9 -16 -15 -6 -26 6 -8 9 -14 6 -14 -3 0 6 -12 20 -27 14 -16 29 -27
34 -26 5 2 9 -2 9 -7 0 -13 -33 -13 -47 1 -16 16 -28 -8 -13 -26 8 -10 6 -16
-9 -27 -22 -16 -43 -77 -21 -63 10 6 11 2 6 -18 -8 -32 11 -45 29 -21 12 17
13 17 11 2 -1 -10 -5 -21 -9 -24 -4 -4 0 -15 9 -25 14 -16 14 -18 -5 -24 -17
-5 -19 -10 -11 -31 7 -18 5 -35 -6 -62 -13 -31 -17 -34 -23 -19 -6 17 -8 17
-20 3 -7 -9 -9 -16 -3 -16 15 0 25 -51 13 -63 -15 -15 -13 -37 3 -37 17 0 29
-27 16 -35 -15 -9 -12 -25 5 -25 24 0 18 -37 -7 -45 -17 -5 -19 -8 -8 -11 9
-3 22 -14 29 -26 11 -18 11 -20 -2 -15 -30 11 -36 -15 -20 -76 11 -40 21 -56
30 -53 7 3 13 1 13 -4 0 -6 7 -10 15 -10 18 0 38 36 29 51 -4 6 0 16 7 21 11
7 11 11 2 15 -10 3 -9 8 2 20 14 13 13 18 -4 41 -12 18 -16 34 -11 47 7 19 8
19 11 -2 3 -17 8 -20 18 -14 12 8 12 12 2 25 -7 9 -14 33 -15 55 -2 34 1 41
21 46 25 6 31 23 9 31 -8 3 -11 15 -9 29 3 13 0 31 -5 42 -10 16 -12 15 -22
-11 -6 -16 -13 -26 -16 -23 -3 3 -1 14 5 25 15 28 14 35 -4 29 -8 -4 -17 -2
-20 3 -9 15 5 31 18 23 17 -10 47 -11 41 -1 -3 4 0 8 5 8 6 0 11 -15 11 -32
l0 -33 15 29 c19 35 20 80 3 70 -7 -4 -5 1 4 12 20 23 17 82 -4 95 -9 6 -8 10
5 15 22 8 22 33 0 50 -17 13 -17 14 2 8 19 -5 19 -5 3 9 -10 8 -18 20 -18 26
0 7 -4 10 -9 6 -5 -3 -13 0 -17 6 -5 9 1 10 22 6 l29 -6 -2 72 c-1 40 -3 109
-4 155 -1 45 -6 85 -10 88 -13 7 -11 44 2 44 7 0 8 16 3 48 -4 26 -7 56 -6 67
2 16 -14 183 -23 255 -1 8 -5 51 -10 95 -4 44 -13 91 -21 105 -7 14 -20 50
-30 80 -9 30 -25 72 -35 92 -11 21 -19 45 -19 55 0 10 -9 29 -20 43 -11 14
-20 31 -20 38 0 19 -50 62 -73 62 -14 0 -17 3 -9 13 21 25 -8 64 -73 97 -34
17 -35 17 -35 -1 0 -29 -56 -27 -63 2 -5 17 -11 21 -33 16 -15 -2 -41 -1 -57
4 -19 5 -35 5 -43 -2 -8 -7 -14 -7 -19 1 -9 15 -25 12 -25 -4z m273 -415 c-16
-10 -24 -43 -14 -55 6 -8 2 -11 -15 -12 -15 -1 -24 4 -24 13 0 8 -4 11 -10 8
-5 -3 -10 -18 -10 -32 0 -18 4 -24 15 -20 8 4 17 2 20 -3 4 -6 -6 -15 -21 -20
-25 -10 -26 -12 -9 -24 14 -10 15 -15 5 -21 -9 -5 -15 -4 -18 3 -5 17 -22 15
-22 -2 0 -7 9 -16 20 -19 11 -3 20 -11 20 -17 0 -10 -3 -10 -15 0 -8 7 -22 10
-30 6 -10 -4 -15 1 -15 15 0 16 -4 19 -20 14 -26 -8 -25 -1 2 24 19 18 20 25
11 56 -7 22 -8 35 -1 35 5 0 7 9 3 19 -5 17 0 21 32 26 21 3 49 9 63 14 26 8
49 3 33 -8z"/>
<path d="M1153 7417 c-4 -7 -21 -18 -36 -25 l-28 -12 27 -47 c15 -27 31 -53
36 -59 5 -6 6 -19 2 -28 -6 -16 5 -21 36 -16 18 2 39 30 40 52 0 10 11 25 25
34 16 10 25 26 25 41 0 22 -4 25 -25 21 -21 -5 -25 -1 -25 20 0 19 -4 23 -19
19 -10 -2 -25 0 -34 4 -10 6 -19 5 -24 -4z"/>
<path d="M1370 7314 c0 -8 -7 -17 -15 -20 -8 -4 -15 -14 -15 -24 0 -10 -5 -20
-11 -22 -5 -2 -7 -11 -3 -21 3 -10 13 -16 20 -13 34 13 6 -19 -51 -59 -19 -14
-19 -14 3 -8 29 7 30 -22 2 -39 -23 -15 -27 -33 -5 -24 22 8 62 -13 68 -35 6
-23 27 -25 27 -3 0 8 5 12 11 9 6 -4 9 -23 7 -44 l-3 -36 43 0 c31 0 46 -5 54
-18 5 -10 8 -20 6 -21 -1 -1 -13 -10 -26 -18 l-23 -16 30 -13 c16 -7 27 -17
25 -21 -3 -4 2 -8 11 -8 9 0 13 5 10 10 -11 18 5 11 32 -14 21 -20 33 -23 62
-18 33 5 35 4 22 -11 -14 -18 -85 -24 -95 -9 -6 10 -66 3 -66 -7 0 -4 11 -18
25 -31 13 -12 22 -26 20 -30 -6 -10 41 -33 57 -27 7 3 2 6 -12 6 -19 1 -22 3
-10 11 18 11 43 -8 37 -29 -3 -13 6 -16 55 -15 32 0 58 -4 58 -8 0 -5 11 -6
25 -2 20 5 25 2 25 -13 0 -10 5 -24 12 -31 9 -9 9 -18 -1 -39 -10 -23 -10 -26
0 -15 7 6 17 12 23 12 6 0 5 -5 -2 -12 -17 -17 -15 -28 7 -28 25 0 38 20 21
30 -9 6 -7 11 10 20 15 8 20 8 16 1 -14 -22 5 -30 33 -13 27 15 31 15 65 -3
32 -17 38 -18 46 -5 8 12 10 12 10 1 0 -11 3 -11 17 0 12 10 17 11 20 2 2 -7
10 -10 18 -7 8 3 11 13 8 21 -4 11 -2 14 5 9 7 -4 12 -16 12 -27 0 -20 24 -26
35 -9 3 6 1 10 -5 10 -6 0 -8 5 -5 10 3 6 2 10 -4 10 -6 0 -8 6 -5 14 3 9 -4
16 -22 20 -14 4 -28 5 -31 2 -8 -8 -44 34 -38 44 4 6 13 3 23 -6 15 -16 17
-16 22 2 3 11 15 20 30 22 13 1 27 8 32 14 4 7 10 9 14 5 4 -4 14 -1 22 6 13
10 14 9 3 -12 -11 -19 -11 -23 1 -19 7 3 14 10 14 16 1 7 2 19 3 28 0 8 5 13
10 9 5 -3 12 -1 16 5 3 5 1 10 -5 10 -6 0 -9 4 -5 9 3 5 1 12 -5 16 -12 7 -4
25 11 25 5 0 9 -11 9 -24 0 -19 4 -22 25 -19 13 3 23 10 22 16 -3 14 42 26 73
19 24 -5 24 -5 7 13 -10 9 -17 27 -16 39 2 36 -1 46 -14 46 -8 0 -13 10 -13
23 1 18 -5 23 -32 25 -28 3 -31 6 -22 22 8 15 6 21 -9 30 -11 5 -27 17 -35 26
-18 18 -20 7 -6 -31 9 -23 8 -26 -5 -21 -8 3 -15 0 -15 -6 0 -6 -9 -3 -20 7
-22 20 -26 45 -7 46 6 0 1 6 -12 12 -19 9 -25 9 -29 -1 -2 -6 -10 -12 -17 -12
-7 0 -15 -5 -17 -12 -2 -6 -18 2 -37 21 -17 17 -29 36 -26 41 13 21 -7 31 -31
16 -29 -20 -38 -20 -31 -2 6 15 -22 46 -41 46 -7 0 -12 5 -12 10 0 6 5 10 10
10 6 0 10 4 10 9 0 5 -13 4 -30 -2 -16 -6 -30 -15 -30 -19 0 -16 -39 -7 -45
10 -3 9 -17 30 -31 46 -23 26 -26 27 -43 12 -19 -17 -46 -22 -36 -7 7 12 -22
41 -40 41 -8 0 -18 -6 -22 -12 -20 -32 -103 -53 -103 -27 0 6 7 9 15 5 8 -3
15 -1 15 4 0 6 -4 10 -10 10 -5 0 -10 7 -10 15 0 13 -21 25 -115 65 -44 18
-55 19 -55 4z"/>
<path d="M7505 6901 c-24 -5 -30 -11 -30 -31 0 -19 -7 -26 -32 -34 -24 -6 -33
-15 -33 -30 0 -12 -14 -34 -31 -49 -25 -22 -30 -33 -27 -57 3 -17 1 -30 -3
-30 -13 0 -22 -42 -10 -49 7 -4 2 -16 -14 -33 -22 -23 -22 -27 -7 -33 16 -6
16 -7 0 -19 -25 -18 -23 -62 2 -69 11 -3 20 -12 20 -21 0 -18 11 -21 26 -7 5
6 18 2 34 -10 l25 -21 -27 6 c-16 4 -28 2 -28 -4 0 -5 7 -10 15 -10 8 0 15 -9
15 -21 0 -11 5 -17 10 -14 6 3 10 -1 10 -10 0 -12 -6 -15 -20 -10 -24 8 -27
-13 -4 -29 13 -10 14 -16 3 -39 -7 -15 -17 -27 -22 -27 -17 0 -48 -44 -45 -64
2 -13 14 -23 35 -28 30 -8 32 -10 20 -31 -6 -12 -18 -26 -26 -31 -8 -5 -9 -11
-4 -15 15 -9 -14 -101 -32 -101 -9 0 -12 -6 -9 -15 4 -8 1 -15 -6 -15 -6 0
-10 -8 -8 -17 3 -18 -24 -53 -41 -53 -5 0 -11 -6 -14 -12 -3 -10 -7 -10 -20 1
-21 17 -21 11 0 -33 14 -30 19 -34 32 -23 12 10 14 9 8 -5 -5 -15 0 -18 26
-19 18 -1 24 -3 15 -6 -22 -5 -24 -43 -3 -43 8 0 15 -4 15 -9 0 -5 12 -12 26
-15 17 -5 24 -12 20 -21 -3 -9 1 -15 9 -16 51 -3 73 -2 84 5 18 12 24 1 11
-23 -12 -23 -8 -26 21 -11 12 7 19 7 19 1 0 -15 69 32 70 47 0 6 -7 12 -16 12
-8 0 -12 -4 -9 -10 3 -5 -3 -10 -14 -10 -29 0 -26 28 4 36 16 4 30 0 40 -10
20 -19 51 -10 34 10 -6 8 -15 12 -19 9 -5 -3 -6 4 -3 15 3 11 9 17 14 14 12
-7 -11 46 -33 75 -13 17 -15 28 -7 42 8 16 6 19 -15 19 -22 0 -24 3 -17 22 4
12 14 24 21 26 7 3 10 0 6 -7 -4 -6 -1 -11 7 -11 8 0 18 7 21 15 4 11 -3 17
-24 22 -19 3 -27 10 -23 17 4 6 6 20 4 30 -2 14 2 17 13 13 8 -3 22 0 30 8 8
8 19 15 25 15 6 0 7 8 4 17 -4 11 -8 12 -11 5 -2 -7 -10 -12 -18 -12 -11 0
-14 8 -12 28 2 22 8 27 32 27 23 0 30 5 32 23 3 13 -2 25 -11 28 -19 8 -20 44
0 44 16 0 38 34 28 44 -3 3 -16 6 -29 6 -16 0 -23 7 -27 27 -3 16 -2 30 2 33
16 11 20 40 6 40 -11 0 -10 6 6 24 12 14 28 22 35 19 10 -4 14 3 14 23 0 30
16 23 22 -10 1 -11 9 -21 15 -23 9 -3 8 6 -3 33 -13 30 -13 38 -2 45 17 11 17
41 -2 55 -11 10 -12 17 -2 38 8 17 8 27 1 32 -6 3 -9 17 -6 30 3 15 -1 28 -10
33 -13 7 -12 11 7 29 17 15 20 26 14 44 -4 12 -7 29 -6 36 4 15 -20 16 -36 0
-9 -9 -12 -8 -12 5 0 11 -6 17 -17 15 -11 -2 -17 2 -15 11 2 7 -5 22 -14 32
-16 18 -16 20 1 33 18 13 17 14 -13 21 -17 3 -34 11 -37 16 -4 5 -9 8 -13 8
-4 -1 -20 -4 -37 -8z"/>
<path d="M4315 6742 c8 -38 -26 -72 -55 -55 -24 15 -51 -10 -32 -29 9 -9 12
-9 12 0 0 7 5 12 11 12 8 0 8 -4 0 -14 -8 -10 -8 -21 -1 -40 8 -21 7 -28 -5
-32 -8 -4 -22 -1 -30 6 -9 7 -15 8 -15 2 0 -13 -38 -23 -46 -11 -9 15 -34 10
-34 -6 0 -8 -7 -15 -15 -15 -8 0 -15 -7 -15 -15 0 -9 6 -12 15 -9 8 4 15 1 15
-6 0 -6 -9 -14 -20 -17 -11 -3 -20 -10 -20 -15 0 -5 -10 -6 -22 -3 -17 6 -20
4 -15 -10 4 -9 7 -26 8 -38 1 -19 2 -18 13 7 11 23 14 25 19 12 10 -24 29 -9
21 16 -5 17 -3 20 11 14 13 -4 16 -2 12 9 -4 8 -2 17 4 20 5 4 7 11 4 16 -4 5
3 5 18 0 14 -6 28 -7 31 -4 3 4 6 1 6 -5 0 -7 -7 -12 -16 -12 -12 0 -15 -6
-10 -22 3 -13 6 -31 6 -42 0 -11 5 -16 14 -13 9 4 16 -3 20 -19 4 -15 11 -22
19 -19 7 4 1 -3 -12 -14 -31 -28 -43 -26 -31 4 7 18 6 25 -3 25 -7 0 -18 -13
-24 -30 -6 -16 -17 -30 -23 -30 -7 0 -10 7 -6 15 3 8 1 15 -3 15 -14 0 -20
-27 -9 -38 7 -7 6 -17 -1 -31 -15 -26 -28 -27 -36 -2 -6 20 -25 19 -53 -2 -10
-8 -10 -12 0 -18 7 -4 9 -11 6 -15 -4 -4 -19 1 -32 10 -33 21 -46 20 -46 -4 0
-14 5 -18 17 -13 10 4 14 2 9 -5 -3 -6 -2 -13 4 -17 20 -12 10 -44 -16 -51
-22 -6 -24 -10 -18 -37 5 -24 3 -29 -9 -24 -17 6 -43 -18 -29 -27 5 -3 8 -17
7 -31 -2 -14 0 -23 4 -21 4 3 13 1 20 -3 10 -7 10 -11 -1 -22 -7 -8 -13 -25
-12 -39 2 -58 3 -62 24 -55 14 5 20 2 20 -9 0 -9 6 -16 13 -16 8 0 7 -4 -3
-10 -11 -7 -7 -10 18 -10 18 0 31 -4 28 -9 -3 -4 1 -16 8 -26 9 -13 15 -15 20
-7 4 7 2 12 -3 12 -6 0 -11 7 -11 15 0 17 16 20 25 5 12 -19 25 -10 25 18 0
15 5 33 12 40 9 9 8 12 -5 12 -19 0 -21 8 -8 28 6 10 16 5 39 -19 18 -18 32
-39 32 -46 0 -27 41 -13 61 22 17 28 24 33 38 25 15 -7 17 -5 13 19 -2 18 3
34 14 45 13 14 14 20 5 26 -10 6 -9 12 5 29 20 23 34 27 34 10 0 -7 8 -17 17
-24 14 -11 19 -10 29 3 16 22 32 7 28 -28 -3 -25 0 -30 17 -30 11 0 22 -7 25
-15 4 -8 14 -15 23 -15 14 0 14 2 1 10 -12 7 -12 10 -1 10 9 0 11 8 7 26 -6
21 -4 25 8 21 9 -4 16 -2 16 3 0 6 5 10 11 10 5 0 8 -4 5 -9 -8 -13 4 -42 15
-35 5 3 9 -2 9 -11 0 -9 -4 -13 -10 -10 -5 3 -10 -1 -10 -9 0 -9 7 -16 15 -16
9 0 14 -8 12 -22 -2 -20 3 -23 33 -23 19 1 41 -5 48 -12 10 -10 8 -14 -13 -19
-14 -3 -25 -10 -25 -15 0 -5 7 -6 15 -3 10 4 15 0 15 -15 0 -12 -4 -21 -10
-21 -5 0 -10 -7 -10 -16 0 -9 -9 -25 -21 -35 -11 -10 -18 -22 -15 -27 3 -6 -1
-12 -9 -16 -8 -3 -15 -10 -15 -17 0 -6 7 -9 15 -5 9 3 15 0 15 -9 0 -9 -6 -12
-15 -9 -8 4 -15 1 -15 -5 0 -6 12 -11 28 -12 27 -1 27 -1 3 -8 -14 -4 -26 -11
-28 -17 -6 -17 50 -4 64 15 7 9 13 12 13 8 0 -5 12 1 26 12 15 11 31 18 37 14
8 -5 7 -8 -1 -11 -9 -3 -10 -8 -2 -17 8 -10 3 -19 -20 -38 -16 -14 -30 -30
-30 -35 0 -6 -7 -12 -15 -16 -8 -3 -12 -12 -9 -21 4 -10 0 -15 -15 -15 -14 0
-23 -8 -27 -26 -8 -33 9 -52 31 -34 12 10 15 10 15 -4 0 -9 5 -16 10 -16 17 0
11 -18 -7 -23 -12 -3 -7 -7 16 -12 l34 -8 -23 -17 -23 -18 21 -11 c12 -6 22
-18 22 -26 0 -8 7 -15 15 -15 20 0 12 96 -10 120 -16 18 -21 35 -7 26 7 -4 15
18 39 107 2 9 9 17 15 17 7 0 8 -17 3 -52 -14 -100 -13 -113 2 -130 8 -9 12
-22 8 -27 -3 -6 -2 -11 3 -11 5 0 12 -17 15 -39 3 -27 15 -48 40 -72 49 -47
65 -59 75 -59 4 0 14 -6 21 -12 6 -7 16 -14 21 -14 6 -1 11 -2 13 -4 7 -6 75
-5 92 1 19 7 19 8 -1 8 -12 1 -24 8 -28 16 -3 8 -10 15 -17 15 -17 0 -127 109
-175 173 -38 53 -43 67 -49 133 -5 48 -12 77 -22 82 -11 7 -7 16 20 47 l34 39
-2 -57 c-2 -31 1 -57 6 -57 5 0 9 -11 9 -24 0 -27 19 -87 32 -101 12 -13 -1
66 -14 82 -13 16 -2 157 15 189 13 26 71 54 110 54 9 0 17 4 17 9 0 5 11 12
25 15 14 4 25 11 25 16 0 6 9 10 20 10 12 0 35 7 51 16 25 12 33 13 45 3 13
-10 17 -10 25 2 5 8 9 9 9 3 0 -14 42 -27 50 -15 3 4 12 10 20 13 12 4 15 -3
13 -41 -1 -25 1 -36 3 -24 4 14 15 25 32 29 15 4 38 18 51 30 13 13 27 22 31
19 4 -3 10 1 13 9 4 9 22 12 64 10 74 -3 71 -2 48 -21 -18 -14 -18 -15 -2 -9
10 3 21 6 23 6 2 0 4 7 4 15 0 8 5 15 11 15 6 0 9 -6 6 -13 -3 -8 -2 -19 3
-26 5 -9 9 -5 13 11 6 21 11 24 38 20 17 -2 33 -11 36 -18 3 -9 21 -14 52 -14
33 0 42 3 31 10 -9 6 -10 10 -3 10 6 0 15 -4 18 -10 3 -5 15 -10 26 -10 11 0
17 -4 14 -10 -3 -5 2 -10 12 -10 10 0 30 -19 47 -46 26 -42 28 -50 22 -109 -6
-55 -4 -64 9 -59 8 4 15 16 15 28 0 12 5 27 12 34 9 9 9 15 0 24 -9 9 -8 16 4
29 11 12 12 19 4 24 -8 5 -8 11 1 22 10 12 10 16 -1 23 -12 7 -11 12 3 28 9
10 17 25 17 33 0 8 5 20 11 26 14 14 1 36 -17 29 -15 -6 -37 27 -41 62 -1 14
4 22 14 22 13 0 14 2 2 17 -12 15 -12 16 3 11 9 -4 18 -1 21 6 5 13 -15 46
-28 46 -4 0 -13 7 -19 16 -8 10 -27 16 -51 16 -24 0 -44 6 -50 15 -10 13 -13
13 -28 -2 -9 -9 -17 -25 -17 -36 0 -12 -7 -19 -17 -18 -10 0 -13 3 -7 5 17 7
5 44 -13 44 -12 0 -13 -3 -4 -14 8 -9 8 -16 2 -20 -5 -4 -13 -1 -18 6 -13 21
-53 39 -73 33 -10 -3 -21 -1 -25 5 -8 13 -45 13 -45 0 0 -10 -84 -7 -135 4
-16 4 -49 3 -71 -2 -36 -8 -44 -7 -58 9 -9 11 -21 19 -28 19 -8 -1 -6 -6 5
-14 23 -18 22 -23 -7 -28 -19 -4 -23 -1 -19 11 5 13 3 14 -8 4 -20 -20 -83
-16 -103 6 -17 19 -7 39 14 26 19 -12 10 35 -10 55 -12 12 -18 25 -15 31 4 5
15 -2 27 -16 26 -34 39 -32 32 5 -5 24 -3 30 11 30 10 0 33 14 52 30 18 17 38
30 43 30 6 0 10 9 10 20 0 11 6 20 13 20 6 0 23 3 37 6 18 4 21 3 11 -4 -9 -7
-12 -19 -7 -38 5 -21 4 -25 -4 -14 -7 12 -10 8 -10 -16 0 -28 29 -84 30 -56 0
6 7 12 15 12 8 0 15 5 15 10 0 6 -5 10 -11 10 -6 0 4 16 22 35 18 18 36 32 41
29 4 -3 8 2 8 11 0 9 -5 13 -11 9 -7 -4 -10 -1 -7 7 3 8 11 13 18 11 7 -2 20
0 29 4 14 5 14 7 -1 13 -12 4 -15 10 -8 20 7 13 11 13 26 0 16 -13 17 -11 11
21 -4 18 -13 38 -20 42 -9 6 -9 10 3 18 9 6 10 10 3 10 -6 0 -19 3 -29 7 -13
5 -15 3 -10 -8 4 -8 1 -6 -7 4 -14 17 -16 17 -25 1 -5 -9 -14 -14 -21 -10 -17
11 -13 26 6 19 13 -5 15 -2 10 11 -4 10 -1 19 8 22 17 7 20 44 4 44 -6 0 -9
-7 -5 -15 3 -10 -1 -15 -13 -15 -10 0 -24 -7 -31 -15 -7 -8 -19 -15 -26 -15
-8 0 -14 -4 -14 -10 0 -15 -37 -12 -70 5 -21 11 -30 12 -30 4 0 -8 -4 -8 -14
0 -12 10 -17 8 -26 -9 -6 -11 -16 -18 -22 -14 -7 4 -6 9 3 15 8 5 -3 7 -28 4
-33 -3 -43 0 -46 13 -4 15 -5 15 -6 -1 0 -10 -6 -15 -11 -12 -6 3 -13 -1 -16
-9 -4 -11 -10 -13 -23 -5 -12 8 -15 21 -12 51 3 34 1 40 -12 35 -17 -7 -29 15
-21 38 4 8 1 22 -6 30 -6 8 -9 19 -5 25 5 8 12 4 22 -9 21 -30 30 -26 25 12
-3 17 -7 27 -9 21 -3 -8 -18 -10 -44 -7 -32 5 -38 3 -34 -9 9 -22 -42 -31 -55
-9 -7 12 -9 8 -10 -18 0 -33 -1 -34 -14 -15 -10 13 -11 23 -4 32 6 7 8 16 4
19 -10 11 -27 -19 -23 -42 1 -11 -6 -27 -15 -36 -10 -9 -25 -29 -34 -45 l-16
-29 6 36 c5 28 3 38 -9 43 -10 3 -15 18 -15 43 0 34 -1 36 -15 17 -8 -11 -15
-14 -15 -6 0 20 -31 14 -37 -8 -3 -11 -10 -20 -15 -20 -5 0 -7 -4 -3 -9 3 -6
-2 -14 -12 -19 -14 -9 -15 -12 -4 -26 8 -9 11 -19 8 -23 -4 -3 -1 -13 5 -21
10 -12 9 -14 -7 -10 -11 2 -19 10 -17 17 1 6 -4 19 -13 27 -19 20 -19 34 0 34
19 0 19 7 1 26 -18 17 -37 18 -31 2 3 -7 -8 -28 -23 -46 l-29 -33 -18 27 c-15
23 -19 25 -27 11 -4 -9 -25 -21 -46 -27 -46 -12 -55 -13 -47 0 3 6 0 10 -8 10
-8 0 -17 9 -20 19 -3 14 -1 18 11 14 12 -5 14 -1 10 21 -3 14 -2 29 3 32 12 7
-13 44 -29 44 -10 0 -12 -8 -7 -28z"/>
<path d="M2963 6633 c-16 -6 -17 -33 -3 -33 6 0 13 7 16 15 10 26 21 16 16
-16 -3 -21 -9 -29 -19 -25 -8 3 -23 6 -33 6 -10 0 -20 8 -23 18 -3 13 -6 11
-16 -12 -6 -16 -9 -38 -6 -50 2 -11 2 -15 -1 -8 -3 6 -10 12 -15 12 -6 0 -9
-6 -8 -12 3 -25 -1 -36 -17 -42 -13 -5 -15 -2 -11 14 6 25 -18 79 -26 58 -4
-9 -6 -7 -6 5 -1 20 -14 22 -29 4 -8 -10 -6 -16 9 -25 14 -9 17 -17 10 -30 -5
-9 -14 -28 -20 -42 -9 -20 -11 -21 -7 -4 2 12 0 28 -5 35 -6 10 -9 11 -9 2 0
-7 -6 -13 -13 -13 -16 0 -20 -42 -4 -52 9 -6 5 -14 -12 -28 -20 -17 -22 -22
-10 -37 11 -12 11 -17 2 -20 -12 -4 -19 -27 -37 -106 -12 -53 -24 -17 -21 64
2 71 1 80 -14 75 -12 -5 -11 -2 3 9 28 22 28 67 0 88 -23 17 -24 17 -24 -3 0
-11 -5 -20 -11 -20 -6 0 -9 -17 -7 -42 2 -34 -1 -43 -14 -46 -11 -2 -18 3 -18
13 0 9 -4 14 -10 10 -5 -3 -7 -12 -4 -19 3 -8 -3 -17 -14 -20 -11 -4 -19 -14
-18 -24 1 -17 -15 -20 -46 -7 -13 5 -18 2 -19 -11 0 -18 -1 -18 -8 0 -7 19 -8
19 -13 -2 -4 -12 -2 -22 3 -22 4 0 6 -7 3 -15 -5 -11 -11 -12 -25 -4 -13 6
-19 6 -19 0 0 -6 9 -15 20 -21 11 -6 20 -20 20 -31 0 -12 10 -29 22 -39 19
-15 22 -27 23 -99 0 -69 -3 -81 -16 -81 -10 0 -20 -12 -24 -27 -4 -16 -10 -22
-12 -15 -3 6 -17 12 -32 12 -15 0 -32 5 -39 12 -9 9 -12 8 -12 -6 0 -9 -5 -14
-10 -11 -6 4 -8 11 -5 16 4 5 -4 9 -16 9 -12 0 -19 -3 -16 -7 8 -7 -21 -43
-34 -43 -13 0 -49 42 -43 52 3 4 -2 8 -10 8 -20 0 -21 -16 -1 -24 8 -3 15 -10
15 -17 0 -6 -7 -8 -16 -5 -9 3 -12 2 -9 -5 4 -6 14 -8 24 -4 12 5 13 3 5 -5
-14 -14 -63 -20 -70 -9 -3 5 0 9 6 9 7 0 10 6 7 13 -2 6 -10 11 -16 10 -7 -2
-11 13 -11 37 0 26 4 40 13 40 7 0 22 6 32 14 17 13 15 14 -23 12 -23 0 -42
-4 -42 -8 0 -11 -71 -51 -78 -44 -3 4 3 9 15 12 23 6 40 34 21 34 -6 0 -20 7
-30 17 -11 9 -18 11 -18 5 0 -7 5 -12 10 -12 6 0 10 -7 10 -16 0 -14 -3 -14
-15 -4 -11 9 -15 9 -15 1 0 -7 -9 -9 -25 -5 -18 4 -27 1 -31 -11 -4 -9 -13
-14 -21 -11 -9 4 -17 -1 -20 -14 -5 -20 -23 -28 -23 -11 0 5 -10 7 -22 3 -14
-3 -19 -1 -14 6 5 8 2 10 -8 6 -9 -3 -16 -18 -16 -32 0 -24 0 -25 20 -7 11 10
20 14 20 9 0 -13 -60 -70 -80 -77 -11 -3 -10 -7 7 -14 22 -8 22 -9 3 -20 -12
-8 -21 -9 -25 -3 -3 6 -11 10 -17 10 -7 0 -6 -5 2 -15 10 -11 9 -18 -4 -31 -9
-8 -13 -20 -10 -26 5 -7 11 -5 19 5 17 24 28 21 13 -3 -14 -22 -34 -26 -40 -8
-2 6 -10 8 -16 4 -18 -11 -14 -23 10 -30 18 -4 20 -8 10 -18 -9 -9 -15 -9 -24
0 -19 19 -29 14 -22 -13 5 -19 2 -25 -10 -25 -9 0 -16 -4 -16 -9 0 -5 -13 -14
-30 -20 -16 -5 -30 -14 -30 -20 0 -12 -47 -61 -59 -61 -5 0 -6 -11 -3 -25 2
-15 0 -25 -7 -25 -6 0 -11 -9 -11 -20 0 -21 15 -27 25 -10 4 6 10 8 15 5 4 -3
13 2 20 10 10 13 9 15 -9 15 -12 0 -19 4 -16 10 4 7 13 7 26 0 20 -11 43 -5
34 10 -3 4 7 23 22 41 l28 32 -30 -7 c-28 -7 -29 -6 -10 7 10 8 26 12 33 9 8
-3 19 2 24 11 12 23 35 21 43 -3 3 -11 13 -20 20 -20 8 0 20 -9 28 -21 8 -11
24 -21 34 -22 17 -1 20 -7 16 -35 -4 -27 -2 -34 9 -29 8 3 20 -3 26 -14 8 -12
18 -16 29 -12 16 6 16 5 4 -10 -11 -14 -11 -18 2 -23 9 -3 13 -14 11 -27 -2
-12 -2 -16 2 -9 10 20 24 13 24 -12 0 -16 7 -27 21 -31 14 -5 19 -13 16 -26
-3 -12 1 -20 13 -24 10 -3 20 -14 23 -25 3 -11 13 -23 24 -27 28 -11 43 -29
43 -53 0 -16 4 -20 16 -16 9 3 20 6 25 6 17 0 9 18 -26 56 -40 44 -65 94 -65
132 0 14 -7 33 -16 43 -18 20 -10 43 12 35 11 -4 13 1 8 19 -6 24 4 33 19 18
4 -3 19 -8 33 -9 21 -2 23 0 13 12 -9 11 -9 17 1 29 18 21 35 19 37 -5 1 -11
-2 -18 -8 -15 -5 4 -9 2 -9 -4 0 -5 18 -8 40 -6 30 3 40 0 40 -11 0 -8 -4 -14
-10 -14 -5 0 -10 -4 -10 -10 0 -5 9 -10 20 -10 11 0 20 7 20 16 0 8 4 13 10 9
13 -8 1 -35 -16 -35 -8 0 -14 -4 -14 -10 0 -15 26 -12 40 5 17 20 22 14 25
-34 3 -33 1 -39 -13 -33 -15 5 -15 4 -3 -11 9 -11 10 -17 2 -17 -6 0 -11 -4
-11 -9 0 -4 13 -8 29 -7 19 1 26 5 20 11 -5 5 -9 14 -9 19 0 6 5 5 12 -2 19
-19 30 -14 18 9 -15 27 -7 35 14 14 9 -9 16 -12 16 -6 0 6 7 11 16 11 23 0 13
-32 -15 -46 -27 -14 -42 -34 -35 -46 3 -5 14 2 25 14 15 19 20 21 28 9 8 -12
12 -12 25 -2 14 12 15 10 10 -18 -5 -22 -3 -31 6 -31 8 0 11 3 8 6 -4 3 0 17
7 31 12 22 11 30 -2 52 -12 19 -7 16 15 -9 29 -32 35 -43 34 -60 -1 -15 42 -6
59 11 13 13 27 18 37 14 14 -5 15 -4 5 6 -17 17 -17 33 0 26 7 -3 21 1 32 9
24 18 35 18 35 -1 0 -11 7 -14 23 -10 20 5 24 3 23 -17 -1 -19 4 -23 28 -23
15 -1 34 -9 41 -18 6 -9 15 -14 18 -10 4 3 7 0 7 -8 0 -8 -17 -30 -38 -49 -45
-43 -45 -67 2 -66 22 1 32 5 29 14 -3 7 3 12 16 12 12 0 21 -4 21 -10 0 -5 -4
-10 -8 -10 -4 0 -6 -16 -4 -36 3 -25 7 -33 15 -25 20 20 25 11 23 -44 0 -30
-4 -55 -8 -55 -5 0 -8 -5 -8 -11 0 -6 8 -8 18 -5 13 5 19 1 19 -10 0 -9 -9
-19 -19 -22 -24 -6 -23 -17 3 -19 12 -1 27 -10 35 -20 17 -22 14 -69 -3 -65
-7 1 -13 -4 -13 -10 -1 -7 -7 1 -15 17 -13 29 -13 29 -13 5 0 -14 -4 -38 -11
-53 -14 -37 -14 -40 4 -33 17 6 22 -29 5 -39 -20 -12 -9 -32 23 -42 21 -6 32
-15 31 -26 -1 -9 4 -17 11 -17 10 0 12 -10 8 -37 -5 -27 -3 -34 6 -29 6 4 9
16 6 27 -4 10 -2 19 2 19 16 0 33 -24 33 -46 0 -13 8 -24 19 -27 24 -6 31 0
31 28 0 11 5 26 12 33 9 9 7 12 -10 12 -17 0 -22 -6 -22 -25 0 -14 -4 -25 -8
-25 -5 0 -6 14 -4 32 4 26 2 30 -12 25 -12 -5 -16 0 -16 18 0 14 5 25 10 25 6
0 10 -5 10 -11 0 -6 7 -9 14 -6 10 4 13 1 9 -9 -4 -10 1 -13 18 -11 20 4 24
10 24 38 0 28 4 33 19 31 11 -2 15 1 11 8 -4 6 -16 8 -27 4 -16 -5 -18 -3 -12
7 5 8 7 24 5 37 -1 15 3 22 13 22 14 0 14 3 4 21 -11 17 -10 22 5 33 20 15 23
28 4 20 -19 -7 -14 69 6 99 l16 22 0 -24 c1 -36 15 -15 17 24 0 19 8 43 16 52
15 18 20 46 12 72 -3 11 -7 11 -20 1 -11 -10 -18 -10 -26 -2 -16 16 -29 15
-22 -2 3 -8 -2 -17 -13 -20 -10 -3 -29 -24 -43 -46 -13 -22 -30 -42 -37 -44
-7 -3 -13 -10 -13 -16 0 -6 5 -8 10 -5 6 3 10 -1 10 -9 0 -26 -49 1 -50 27 0
5 5 5 10 2 6 -3 10 -2 10 4 0 6 -15 7 -35 4 -30 -5 -34 -3 -29 11 5 12 2 15
-10 10 -23 -9 -20 13 4 28 11 7 20 19 20 27 0 9 7 11 21 8 30 -8 48 2 42 23
-3 11 -2 28 2 37 5 10 7 24 6 31 -1 6 5 12 12 12 17 0 27 21 27 56 0 16 -4 23
-11 18 -7 -4 -9 0 -4 14 4 15 -2 34 -19 59 -29 42 -32 65 -12 82 8 7 12 21 8
33 -5 21 -6 21 -13 2 -6 -16 -8 -14 -14 14 -4 17 -12 32 -16 32 -5 0 -7 11 -3
25 4 16 2 25 -6 25 -6 0 -8 5 -5 10 4 6 11 8 16 5 13 -9 11 9 -2 22 -6 6 -11
30 -11 52 1 34 -3 41 -19 41 -28 0 -23 18 6 26 14 3 25 12 25 19 0 21 33 28
47 9 7 -9 10 -21 6 -27 -3 -6 -1 -7 5 -3 6 4 9 13 5 21 -3 11 -1 13 10 9 8 -3
18 -1 22 5 14 23 26 9 23 -26 -2 -24 2 -38 11 -41 10 -3 12 1 8 17 -3 11 0 24
5 28 6 3 8 1 4 -5 -7 -12 9 -25 39 -29 11 -2 22 -8 23 -13 2 -6 10 -10 18 -10
8 0 14 -4 14 -9 0 -12 -29 -23 -41 -15 -15 9 -10 -13 7 -30 16 -16 12 -20 -18
-17 -19 2 -25 -24 -8 -34 6 -3 10 -1 10 4 0 6 5 11 11 11 5 0 7 -5 4 -10 -4
-6 -1 -17 5 -25 9 -11 9 -15 1 -15 -6 0 -11 -4 -11 -10 0 -5 7 -10 16 -10 8 0
12 -5 9 -11 -4 -6 -14 -8 -22 -5 -21 8 -39 -4 -22 -15 22 -14 56 -10 63 6 3 8
12 15 21 15 9 0 15 6 14 13 -4 21 17 62 25 49 13 -21 23 -13 18 15 -4 21 -2
25 11 20 12 -5 19 3 27 31 5 20 10 43 10 50 0 6 4 12 9 12 5 0 3 13 -5 30 -11
22 -12 34 -5 49 9 16 7 23 -11 35 l-22 16 22 0 c14 0 23 7 24 18 0 9 2 22 2
29 1 6 5 15 9 19 4 4 7 11 7 16 0 5 -7 2 -16 -6 -16 -17 -74 -22 -74 -7 0 4 5
22 11 40 8 24 8 35 -1 46 -13 15 -5 20 28 16 10 -2 10 2 0 18 -9 15 -14 17
-20 8 -5 -7 -8 -2 -8 15 0 15 -4 29 -9 32 -5 3 -7 15 -4 25 7 28 -15 36 -40
15 -12 -10 -17 -13 -11 -6 6 7 9 31 7 54 -4 34 -2 40 12 34 9 -3 13 -2 10 4
-3 6 -3 16 2 23 24 37 30 77 16 104 -7 14 -12 32 -9 39 3 8 -1 11 -10 7 -9 -3
-20 -16 -25 -29 -11 -31 -33 -32 -25 -1 3 12 6 27 6 34 0 7 7 10 15 7 8 -4 15
-2 16 2 0 5 2 19 5 31 3 17 0 21 -12 16 -9 -3 -14 0 -12 8 2 8 -7 13 -22 13
-18 1 -30 -9 -47 -39 l-23 -40 0 33 c0 20 6 35 15 38 19 8 20 24 1 24 -8 0
-17 12 -19 28 -4 25 -5 26 -12 5 -8 -26 -27 -35 -46 -22 -12 7 -12 10 -1 18
11 7 11 9 -2 14 -9 4 -16 12 -15 19 0 10 2 10 6 1 2 -7 12 -13 20 -13 11 0 13
5 8 18 -5 9 -10 32 -13 50 -3 27 -8 32 -31 31 -14 0 -32 -3 -38 -6z m-322
-988 c9 -23 13 -26 16 -12 6 24 14 22 46 -13 l28 -29 -53 -24 c-72 -33 -115
-42 -133 -27 -18 15 -20 108 -2 131 28 37 79 23 98 -26z"/>
<path d="M7932 6517 c-20 -22 -34 -99 -19 -113 3 -4 0 -19 -8 -35 -17 -33 -19
-43 -5 -34 5 3 8 -9 6 -30 -1 -19 2 -35 7 -35 5 0 7 -7 3 -15 -4 -11 2 -15 24
-15 17 0 30 -5 30 -11 0 -6 11 -8 29 -4 19 4 41 -1 69 -15 22 -11 55 -20 73
-19 80 5 100 -28 53 -85 -45 -53 -91 -65 -130 -34 -8 5 -14 3 -18 -7 -3 -8
-16 -15 -28 -16 -13 0 -17 -3 -10 -6 6 -2 12 -9 12 -14 0 -15 -19 -10 -41 12
-23 23 -18 53 11 69 17 9 17 12 4 39 -13 27 -17 29 -43 20 -15 -6 -32 -9 -37
-8 -23 6 -61 -15 -79 -42 -16 -25 -25 -29 -48 -25 -23 5 -29 1 -37 -20 -14
-36 -12 -54 4 -48 14 5 46 -45 46 -71 0 -7 11 -16 25 -19 14 -4 25 -11 25 -16
0 -6 9 -10 20 -10 11 0 23 -7 25 -15 9 -27 15 -40 27 -57 18 -25 -2 -42 -48
-40 -32 1 -36 -1 -31 -19 4 -16 3 -18 -8 -9 -11 9 -13 3 -11 -32 1 -29 6 -42
14 -40 7 1 50 5 96 8 79 5 85 4 100 -17 15 -22 15 -24 -12 -47 -18 -15 -23
-25 -14 -28 17 -8 15 -41 -4 -48 -9 -3 -26 -6 -39 -6 -29 0 -35 -8 -28 -42 4
-20 14 -30 41 -39 l36 -12 -23 -18 c-13 -11 -31 -19 -40 -19 -44 0 -46 -40 -5
-75 22 -19 23 -22 10 -59 -15 -44 -55 -96 -73 -96 -7 0 -16 -7 -21 -16 -5 -8
-20 -21 -33 -28 -25 -12 -25 -16 -14 -94 4 -30 3 -42 -4 -37 -7 3 -11 -2 -11
-14 0 -12 6 -21 13 -21 7 0 26 -14 42 -30 22 -23 26 -33 17 -39 -7 -4 -10 -15
-7 -23 4 -9 2 -19 -4 -23 -19 -11 -12 -23 18 -30 26 -6 29 -10 27 -42 -1 -24
-8 -40 -21 -47 -11 -6 -22 -12 -25 -14 -10 -7 35 -32 57 -32 13 0 23 -4 23 -9
0 -5 16 -15 35 -22 l35 -13 -21 -22 -21 -23 23 6 c13 3 29 10 36 15 7 5 14 5
17 -1 6 -10 -45 -31 -75 -31 -11 0 -19 6 -19 13 0 8 -4 7 -10 -3 -14 -21 -12
-30 4 -30 16 0 95 -39 111 -55 6 -5 10 -24 9 -42 -1 -22 2 -30 12 -26 8 3 21
-13 36 -44 19 -40 30 -50 66 -63 46 -16 57 -40 17 -40 -29 0 -31 -7 -8 -32 15
-17 15 -18 -13 -18 -26 -1 -27 -2 -11 -14 21 -16 22 -26 2 -26 -9 0 -20 -10
-25 -22 -7 -18 -9 -19 -9 -5 -1 9 -7 17 -15 17 -8 0 -16 7 -20 15 -3 8 -14 15
-25 15 -13 0 -19 5 -15 14 3 9 -3 17 -18 21 -52 14 -69 29 -67 54 2 34 -10 61
-27 61 -8 0 -11 6 -7 17 4 11 3 14 -5 9 -8 -5 -12 0 -12 14 0 17 -4 20 -21 15
-16 -5 -19 -4 -14 6 6 9 2 11 -14 6 -16 -4 -21 -2 -17 8 2 7 -2 19 -10 25 -19
17 -18 27 5 35 31 10 56 105 28 105 -5 0 -7 -9 -4 -20 3 -10 -1 -24 -9 -31
-14 -11 -19 -2 -15 24 2 10 -50 29 -58 21 -3 -4 0 -9 7 -11 19 -7 14 -22 -6
-16 -21 5 -47 -21 -37 -37 4 -7 15 -10 25 -7 13 3 16 0 12 -15 -3 -11 -10 -17
-18 -14 -8 3 -14 1 -14 -4 0 -6 9 -10 20 -10 17 0 19 -5 14 -27 -14 -66 -14
-66 -53 -60 -21 2 -47 -1 -60 -7 -24 -13 -19 -28 7 -19 10 4 14 2 10 -2 -5 -5
1 -14 12 -22 11 -8 20 -18 20 -23 0 -19 -33 -40 -63 -41 -18 0 -26 -3 -19 -6
22 -9 14 -35 -10 -31 -16 2 -24 -3 -26 -17 -3 -11 -9 -23 -14 -26 -7 -4 -6
-14 2 -29 15 -27 8 -35 -19 -20 -17 9 -21 8 -21 -5 0 -12 -6 -15 -20 -10 -20
6 -21 1 -5 -77 2 -10 -1 -20 -5 -23 -4 -3 -6 -14 -3 -25 3 -11 0 -20 -6 -20
-6 0 -11 -7 -11 -16 0 -10 -6 -14 -14 -11 -8 3 -16 -2 -19 -14 -6 -24 -36 -36
-47 -19 -4 6 -10 8 -13 3 -9 -15 10 -36 27 -30 8 3 18 2 21 -3 8 -13 -6 -42
-20 -37 -15 6 -16 -25 -1 -35 8 -6 8 -10 0 -15 -6 -5 -14 -18 -18 -30 -4 -13
-12 -23 -17 -23 -13 0 -11 18 4 23 6 2 9 7 6 11 -3 3 -14 4 -23 0 -16 -6 -16
-16 1 -61 3 -7 0 -13 -5 -13 -6 0 -12 10 -14 22 -2 12 -9 23 -16 26 -9 3 -13
-3 -10 -19 2 -13 6 -26 10 -29 13 -10 -9 -31 -36 -34 -26 -3 -35 7 -16 19 6 4
7 11 4 17 -5 7 -1 9 9 5 21 -8 21 -3 1 17 -14 14 -13 18 6 38 18 19 19 24 6
26 -17 4 -22 32 -6 32 6 0 10 11 10 25 0 14 -4 25 -10 25 -5 0 -10 5 -10 11 0
6 9 9 20 6 11 -3 20 -1 20 4 0 6 14 23 31 38 34 32 35 26 -29 165 -3 4 5 5 16
2 17 -6 21 -3 19 13 -1 16 -7 19 -34 15 -36 -4 -42 2 -16 21 10 7 14 19 10 29
-6 14 -16 17 -50 14 -23 -1 -47 -10 -54 -18 -11 -13 -12 -13 -13 1 0 24 -24
40 -60 41 -22 1 -30 5 -28 16 4 21 87 26 95 6 11 -29 25 -13 19 21 -5 26 -3
35 7 35 20 0 59 48 44 54 -7 2 -4 5 6 5 9 1 26 -5 37 -11 25 -16 36 -4 44 50
6 44 -2 52 -33 33 -12 -8 -12 -12 -2 -24 8 -10 9 -17 1 -22 -5 -3 -10 1 -10 9
0 12 -10 16 -40 16 -22 0 -40 4 -40 10 0 5 -7 6 -17 3 -11 -4 -14 -3 -9 5 4 7
1 12 -7 12 -8 0 -20 7 -27 15 -7 9 -15 13 -18 10 -3 -3 -11 0 -18 6 -13 11
-64 2 -64 -12 0 -5 -7 -9 -15 -9 -8 0 -15 7 -15 16 0 11 -5 14 -16 10 -9 -3
-20 -6 -25 -6 -5 0 -9 -5 -9 -10 0 -6 8 -10 18 -8 11 2 17 -4 17 -17 1 -38 15
-48 59 -42 22 3 35 3 28 0 -6 -3 -10 -9 -7 -13 3 -5 13 -6 22 -3 12 5 15 2 10
-10 -4 -11 -1 -17 7 -17 7 0 13 -7 13 -15 0 -20 -30 -19 -92 1 -62 21 -74 24
-79 21 -1 -1 -10 4 -19 12 -11 9 -17 10 -17 2 0 -6 5 -11 10 -11 17 0 25 -3
39 -17 20 -20 11 -23 -39 -12 -25 6 -59 8 -76 4 -29 -5 -32 -3 -38 26 -4 22
-10 30 -21 26 -8 -4 -21 0 -29 8 -16 17 -44 19 -65 6 -12 -8 -12 -12 -2 -25 8
-9 19 -16 27 -16 7 0 18 -9 24 -19 13 -25 13 -41 0 -21 -9 13 -11 13 -20 0 -7
-11 -5 -16 5 -18 17 -4 20 -18 5 -27 -6 -4 -7 -13 -1 -23 5 -9 8 -36 8 -59 -1
-53 11 -67 19 -24 5 22 10 29 17 22 7 -7 6 -15 -3 -26 -10 -12 -10 -19 -2 -27
9 -9 15 -7 26 7 8 11 12 24 9 28 -3 5 4 3 15 -4 21 -13 20 -35 -1 -22 -7 3 -4
-3 7 -15 10 -12 27 -24 38 -28 11 -3 29 -15 39 -25 18 -18 18 -21 4 -35 -8 -9
-15 -24 -15 -34 0 -10 -6 -21 -12 -24 -7 -3 0 -3 17 0 16 3 33 10 36 16 4 6
16 9 27 6 10 -3 27 -1 36 4 12 7 16 5 16 -7 0 -8 -7 -16 -15 -16 -8 -1 -18 -3
-22 -4 -5 -1 -23 -6 -40 -10 -18 -4 -33 -11 -33 -16 0 -5 -15 -7 -32 -6 -18 2
-38 0 -44 -4 -6 -5 -18 0 -27 12 -12 13 -13 19 -5 18 26 -3 38 1 38 15 0 8 -7
16 -15 20 -8 3 -15 1 -15 -5 0 -6 -7 -9 -14 -6 -18 7 -29 -22 -20 -48 6 -14 4
-16 -6 -10 -8 5 -11 4 -7 -2 7 -10 55 -23 90 -24 9 0 17 -7 17 -15 0 -12 -4
-13 -22 -3 -16 9 -23 9 -26 0 -6 -17 -29 -13 -36 5 -4 9 -9 14 -13 11 -3 -4
-13 -1 -21 6 -13 10 -15 9 -9 -6 4 -11 1 -25 -9 -34 -13 -13 -24 -14 -70 -4
-94 18 -109 30 -107 78 1 28 -2 43 -12 47 -19 7 -31 -34 -14 -46 11 -8 11 -9
-1 -6 -8 3 -17 15 -20 29 -5 20 -11 23 -34 21 -22 -3 -28 0 -23 11 3 8 3 18
-1 22 -4 4 -8 11 -8 16 -1 5 -2 14 -3 19 0 6 -8 10 -16 10 -8 0 -15 6 -15 14
0 7 -7 19 -15 26 -12 10 -15 10 -15 -4 0 -25 -77 -17 -84 9 -6 24 0 31 16 18
23 -18 58 -22 58 -7 0 8 4 14 9 14 5 0 11 7 15 15 3 8 0 14 -7 12 -6 -1 -13 8
-15 21 -3 17 -8 21 -22 17 -14 -5 -17 -2 -13 14 3 14 0 19 -12 18 -10 -1 -19
6 -20 16 -3 18 19 24 29 8 8 -13 46 -1 46 14 0 8 3 20 6 29 4 11 0 16 -15 16
-14 0 -19 5 -15 15 5 12 9 13 20 4 8 -7 18 -9 21 -5 9 9 -16 26 -39 26 -9 0
-22 8 -27 18 -6 9 -11 11 -11 5 0 -22 -20 -14 -20 8 0 19 -4 20 -35 15 -22 -4
-35 -3 -35 4 0 5 7 10 16 10 8 0 12 5 9 10 -3 6 -15 10 -26 10 -17 0 -15 5 15
34 28 26 33 35 21 40 -8 3 -15 1 -15 -3 0 -5 -6 -11 -14 -14 -9 -4 -12 0 -9
13 3 10 14 21 26 24 12 3 18 8 14 12 -4 4 -2 13 4 20 6 8 7 19 1 31 -6 10 -16
32 -23 48 -9 23 -13 26 -16 13 -3 -10 -11 -18 -18 -18 -7 0 -16 -6 -18 -12 -3
-7 -6 -3 -6 10 -1 19 -5 22 -22 17 -16 -5 -19 -4 -14 6 6 9 2 11 -13 7 -12 -3
-23 -1 -25 5 -2 8 -6 7 -11 -1 -4 -6 2 -19 14 -29 11 -10 20 -23 20 -29 0 -7
7 -14 15 -18 8 -3 15 -12 15 -21 0 -9 -7 -18 -15 -21 -8 -4 -15 -13 -15 -22 0
-13 -3 -12 -20 3 -19 17 -20 17 -20 1 0 -13 -5 -16 -20 -11 -14 5 -20 2 -20
-9 0 -10 -9 -16 -21 -16 -18 0 -19 2 -9 15 7 9 11 16 9 18 -37 21 -49 26 -49
19 0 -4 5 -13 12 -20 9 -9 9 -12 -1 -12 -8 0 -19 6 -25 14 -6 8 -22 17 -34 21
-21 6 -23 5 -13 -13 15 -29 14 -49 -5 -56 -8 -3 -13 -2 -10 2 9 15 -32 41 -53
35 -33 -9 -24 11 11 25 39 14 29 27 -18 23 -34 -3 -47 12 -19 23 8 3 15 14 15
25 0 26 15 34 32 19 7 -7 27 -14 43 -15 17 -1 44 -5 60 -8 l30 -7 -28 20 c-16
11 -29 23 -30 28 -3 14 -31 10 -44 -6 -7 -9 -12 -10 -13 -4 0 7 -11 15 -25 18
-16 4 -25 13 -25 25 0 11 -6 22 -12 24 -7 3 3 6 22 8 46 3 52 2 73 -6 14 -6
17 -2 17 21 0 16 4 24 8 18 10 -15 61 -33 106 -37 22 -2 42 -11 48 -20 10 -18
48 -23 48 -7 0 6 -6 10 -12 10 -7 0 -28 14 -47 32 -30 28 -32 33 -17 43 22 17
10 25 -37 25 -31 0 -38 3 -33 16 4 10 2 13 -6 8 -6 -4 -21 -8 -34 -10 -17 -1
-21 2 -17 14 5 11 3 13 -6 7 -10 -6 -11 -3 -3 11 6 11 11 24 12 29 3 19 10 18
10 -2 0 -24 36 -38 48 -19 4 7 20 21 35 31 24 16 30 16 38 4 5 -8 6 -22 3 -31
-6 -19 5 -22 44 -12 12 4 22 11 22 16 0 5 -4 6 -10 3 -16 -10 -12 21 5 35 21
17 19 40 -3 40 -29 0 -72 24 -72 40 0 9 -5 21 -12 28 -9 9 -9 12 1 12 7 0 15
-9 18 -20 6 -21 6 -21 20 -1 7 11 20 18 28 15 8 -4 15 -1 15 5 0 6 -3 11 -7
11 -8 0 -33 47 -33 61 0 4 11 10 25 13 22 6 25 11 24 54 0 26 -3 41 -6 34 -4
-10 -8 -10 -18 -2 -19 15 -8 40 18 40 19 0 19 1 4 18 -10 10 -17 23 -17 28 0
5 -9 20 -20 34 l-20 25 -6 -22 c-7 -27 -21 -29 -52 -7 -25 17 -30 44 -8 44 8
0 16 4 18 9 3 10 22 14 51 12 11 -1 17 -9 17 -24 0 -13 13 -34 30 -49 26 -23
31 -24 47 -11 16 13 16 14 1 9 -22 -7 -64 27 -54 43 6 9 12 7 22 -6 12 -16 13
-16 14 -1 0 9 2 22 3 30 2 7 2 10 0 6 -8 -14 -43 -8 -49 7 -4 8 -15 15 -25 15
-10 0 -19 6 -19 14 0 8 -6 17 -12 19 -7 3 -3 6 10 6 25 1 32 38 7 38 -8 0 -15
-6 -15 -13 0 -7 -13 -15 -30 -19 -16 -4 -29 -10 -29 -13 3 -20 -3 -32 -16 -32
-8 0 -19 -9 -25 -20 -12 -22 -40 -27 -40 -7 0 6 -8 -4 -16 -23 -9 -19 -19 -42
-23 -50 -4 -8 -30 -26 -57 -40 -27 -14 -51 -28 -54 -31 -3 -3 -23 -12 -45 -19
-22 -7 -46 -19 -52 -28 -7 -9 -13 -12 -13 -7 0 5 -9 -1 -21 -13 -11 -12 -17
-27 -14 -32 3 -5 0 -7 -8 -4 -14 5 -31 39 -28 57 1 4 -11 4 -25 1 -16 -4 -29
-2 -33 5 -6 8 -17 7 -45 -4 -20 -9 -41 -13 -46 -10 -6 4 -10 -3 -10 -14 0 -19
3 -19 28 -8 15 6 30 15 33 20 7 10 39 -2 39 -15 0 -5 -4 -6 -10 -3 -12 7 -70
-22 -70 -35 0 -6 12 -8 28 -5 25 6 25 5 10 -8 -10 -8 -18 -19 -18 -24 0 -6 -9
-13 -20 -16 -17 -4 -20 0 -20 24 0 23 -5 29 -21 29 -11 0 -18 -4 -15 -8 10
-17 -13 -34 -50 -37 -36 -3 -39 -1 -39 24 -1 14 3 29 8 32 5 3 -1 9 -12 12
-23 6 -29 -16 -11 -43 6 -9 5 -19 -3 -29 -10 -12 -8 -13 15 -9 16 3 32 0 38
-8 16 -18 -5 -27 -46 -20 -19 4 -34 3 -34 -1 0 -4 -11 -9 -25 -9 -29 -2 -31 3
-9 27 10 11 12 19 5 24 -6 3 -11 -1 -11 -9 0 -9 -6 -16 -12 -16 -7 0 -19 -12
-25 -27 -10 -21 -10 -28 0 -35 18 -11 27 -10 33 7 3 8 16 14 29 13 18 -2 21
-6 16 -27 -4 -14 -14 -26 -22 -29 -12 -3 -12 -2 1 7 8 5 11 13 8 16 -10 10
-28 -4 -28 -21 0 -8 -5 -14 -11 -14 -6 0 -9 7 -5 15 3 9 0 15 -9 15 -15 0 -20
-16 -17 -52 1 -10 -5 -18 -13 -18 -18 0 -18 1 1 -46 18 -42 42 -66 61 -59 7 2
15 0 18 -4 2 -5 -6 -12 -19 -15 -13 -3 -26 -16 -29 -28 -5 -16 -9 -19 -19 -10
-20 16 -72 8 -76 -12 -4 -18 -18 -21 -28 -5 -4 7 -23 8 -51 4 -30 -4 -43 -3
-39 4 4 5 -2 14 -12 20 -14 7 -21 5 -30 -10 -8 -13 -9 -19 -1 -19 5 0 8 -4 4
-9 -6 -10 11 -24 35 -28 8 -1 22 7 31 19 18 23 39 17 39 -11 0 -10 6 -24 14
-30 17 -14 30 -62 19 -70 -4 -3 -13 -15 -19 -26 -6 -11 -27 -24 -48 -28 -39
-10 -46 -21 -19 -31 11 -4 22 -1 29 8 6 9 17 16 24 16 9 0 9 -4 2 -13 -12 -14
7 -47 27 -47 7 0 9 -5 5 -11 -3 -6 -15 -9 -25 -6 -10 3 -20 0 -23 -7 -3 -7 -5
-6 -5 3 -1 11 -4 11 -17 0 -15 -12 -16 -11 -10 8 7 22 -9 44 -46 64 -15 8 -19
8 -14 0 4 -6 3 -11 -3 -11 -6 0 -15 9 -20 19 -9 16 -8 18 11 13 21 -5 21 -5
-2 26 -13 17 -29 33 -36 36 -17 7 -28 -29 -16 -51 7 -12 5 -24 -6 -41 -16 -24
-16 -24 16 -17 32 7 32 6 30 -26 -2 -20 2 -34 9 -34 20 0 24 -12 8 -25 -12
-10 -15 -10 -15 4 0 9 -4 16 -10 16 -16 0 -12 -22 7 -36 14 -9 21 -10 32 -1
12 9 13 9 7 0 -4 -7 -2 -13 3 -13 6 0 11 -5 11 -11 0 -6 -8 -9 -19 -6 -14 3
-17 0 -13 -15 3 -11 10 -17 18 -14 8 3 14 -1 14 -8 0 -9 -8 -12 -25 -8 -25 4
-36 -13 -12 -21 9 -3 9 -11 0 -35 -15 -43 1 -51 33 -17 26 28 54 28 54 0 0 -8
6 -15 14 -15 7 0 19 -7 26 -15 17 -20 -3 -45 -36 -45 -29 0 -31 -13 -5 -39 19
-19 20 -19 51 18 25 29 38 37 56 33 23 -4 34 -22 14 -22 -5 0 -7 -7 -4 -15 4
-9 0 -15 -7 -15 -9 -1 -8 -4 4 -11 9 -5 17 -20 17 -31 0 -12 -3 -18 -7 -15 -8
8 -32 -35 -26 -46 4 -7 64 -4 146 9 21 3 41 13 44 21 8 19 -31 53 -61 53 -22
0 -24 4 -21 35 2 19 -1 35 -6 35 -5 0 -9 -7 -9 -16 0 -11 -9 -6 -31 16 -17 17
-29 34 -25 37 3 4 6 2 6 -4 0 -6 7 -14 16 -17 11 -4 15 -2 11 8 -3 7 0 19 6
25 12 12 9 12 -60 15 -20 1 -42 11 -60 29 -16 15 -34 27 -40 27 -7 0 -13 10
-15 23 -2 15 -9 21 -22 19 -10 -2 -15 1 -12 7 4 6 17 10 29 9 12 0 30 3 39 7
13 5 20 2 25 -11 4 -11 15 -25 25 -32 10 -7 18 -20 18 -29 0 -9 3 -13 7 -9 4
4 8 17 8 28 0 12 6 23 13 26 7 2 13 -2 11 -9 -1 -8 -1 -23 0 -34 1 -15 3 -17
10 -6 7 11 9 11 14 0 4 -11 7 -12 18 -1 9 9 10 12 1 12 -7 0 -12 4 -12 10 0 5
7 7 15 4 8 -4 15 -1 15 5 0 6 11 11 25 11 18 0 25 5 25 20 0 17 2 18 13 8 15
-13 11 -20 -30 -62 -26 -27 -19 -42 23 -49 17 -3 41 -10 53 -16 20 -11 20 -13
6 -42 -21 -40 -13 -49 44 -49 26 0 50 -3 54 -6 11 -11 -21 -34 -37 -28 -9 3
-16 1 -16 -5 0 -6 8 -11 18 -11 13 0 23 -13 32 -41 13 -39 13 -42 -9 -60 -20
-17 -20 -23 0 -21 4 1 7 -9 7 -22 0 -15 -6 -23 -16 -22 -9 0 -18 -7 -20 -16
-2 -10 1 -18 7 -18 6 0 11 5 11 10 0 6 5 10 10 10 6 0 10 -7 10 -15 0 -8 -5
-15 -11 -15 -6 0 -8 -12 -5 -32 3 -18 3 -27 0 -20 -3 6 -12 12 -20 12 -12 0
-12 -4 2 -25 8 -13 13 -29 9 -35 -9 -15 -35 -12 -41 5 -9 23 -26 18 -19 -5 5
-15 2 -20 -14 -20 -11 0 -22 -4 -26 -10 -3 -5 -12 -7 -20 -3 -8 3 -15 0 -15
-5 0 -14 49 -52 67 -52 10 0 11 -4 3 -19 -7 -14 -7 -22 0 -26 8 -5 8 -11 1
-19 -13 -15 -4 -26 20 -26 14 0 18 -7 16 -30 -1 -16 -8 -32 -14 -35 -7 -2 -13
-10 -13 -16 0 -7 -7 -20 -15 -28 -12 -15 -11 -19 15 -36 49 -33 35 -85 -16
-63 -15 7 -30 5 -51 -5 -40 -21 -91 -19 -98 3 -3 10 -15 20 -27 23 -18 5 -19
8 -8 21 7 9 9 16 5 16 -4 0 -13 -8 -20 -17 -11 -15 -13 -15 -24 5 -13 25 -39
29 -47 7 -8 -20 -34 -19 -51 3 -14 16 -14 16 -9 0 7 -22 -3 -23 -19 -2 -6 9
-24 17 -38 17 -15 0 -27 5 -27 11 0 6 -5 3 -11 -6 -10 -18 -39 -25 -39 -10 0
13 -39 32 -55 26 -17 -7 -20 -39 -5 -49 6 -3 10 -10 10 -15 0 -11 -30 -1 -48
17 -10 10 -17 10 -33 0 -17 -10 -22 -9 -35 8 -8 11 -19 21 -24 21 -6 1 -12 3
-15 4 -27 14 -55 -8 -55 -42 0 -23 -36 -48 -68 -48 -8 0 -12 -9 -11 -22 2 -13
0 -28 -4 -34 -4 -7 0 -15 9 -18 8 -3 13 -10 9 -15 -3 -6 -12 -8 -20 -4 -17 6
-21 -12 -5 -22 6 -4 8 -11 4 -16 -3 -5 -10 -7 -15 -4 -13 9 -31 -4 -23 -17 4
-7 9 -6 14 2 5 8 8 -2 7 -23 -1 -23 -6 -37 -14 -37 -7 0 -13 6 -13 13 0 9 -3
9 -9 -1 -6 -11 -15 -7 -40 17 -17 17 -31 35 -31 41 0 5 -7 10 -15 10 -8 0 -15
-5 -15 -10 0 -6 -6 -10 -14 -8 -8 2 -22 -6 -30 -17 -15 -20 -15 -20 -16 1 0
17 -5 21 -25 19 -24 -3 -30 4 -26 34 2 7 -2 10 -8 7 -9 -6 -21 18 -27 51 -3
15 2 18 37 26 23 6 26 4 23 -18 -2 -19 2 -25 17 -25 12 0 16 -5 13 -15 -5 -11
-2 -13 10 -9 9 3 16 10 16 15 0 17 53 32 72 20 11 -7 19 -7 23 -1 3 6 -1 10
-9 10 -9 0 -16 5 -16 10 0 16 18 12 40 -10 24 -24 56 -26 64 -5 3 10 -1 15
-12 15 -13 0 -18 9 -20 31 -2 29 -1 31 23 25 30 -8 31 -6 5 24 -16 19 -22 21
-35 10 -10 -9 -15 -9 -15 -1 0 6 -11 11 -25 11 -15 0 -28 7 -32 18 -12 30 -32
44 -54 37 -19 -6 -21 -12 -15 -52 3 -26 1 -53 -6 -66 -8 -16 -8 -22 1 -25 14
-5 15 -22 1 -22 -5 0 -12 10 -15 23 -3 12 -19 28 -36 36 -30 13 -36 30 -20 59
8 15 3 17 -40 15 -31 -2 -48 2 -46 9 1 6 -4 13 -10 15 -8 3 -13 -4 -13 -16 0
-21 -1 -21 -26 -5 -15 10 -29 13 -32 8 -4 -5 -19 -10 -33 -12 -19 -2 -28 3
-32 17 -3 14 -11 18 -26 14 -21 -5 -21 -7 -5 -24 27 -30 11 -31 -30 -1 -28 19
-34 28 -22 30 18 4 22 22 4 22 -6 0 -4 7 5 18 21 24 21 32 0 32 -13 0 -14 3
-5 12 7 7 12 18 12 25 0 18 -98 7 -121 -13 -21 -19 -37 -18 -35 3 0 10 -7 19
-16 21 -10 2 -30 16 -46 31 -22 23 -26 34 -21 55 4 14 3 26 -1 26 -5 0 -10 10
-12 23 -2 12 -9 21 -17 19 -7 -1 -11 3 -8 10 2 7 14 12 26 10 18 -2 21 2 16
17 -4 12 0 23 9 28 9 5 12 13 7 21 -6 11 -11 10 -25 -3 -9 -9 -16 -22 -16 -29
0 -7 -10 -12 -22 -10 -13 1 -30 3 -39 3 -10 1 -16 9 -15 19 1 12 -5 16 -19 14
-11 -2 -17 -1 -13 4 4 4 4 12 -1 18 -11 13 -3 66 9 66 5 0 16 -7 24 -16 15
-14 18 -14 33 1 11 11 13 19 5 24 -6 3 -13 20 -16 36 -3 17 -3 24 0 18 3 -7
10 -13 15 -13 6 0 8 4 4 9 -3 5 -1 12 4 15 5 4 12 -2 14 -11 3 -11 5 -8 6 10
1 17 7 27 16 27 8 0 15 6 15 13 0 9 3 8 9 -2 5 -7 14 -10 20 -7 6 4 8 12 5 18
-4 7 -2 8 5 4 6 -4 9 -12 6 -17 -4 -5 -2 -9 3 -9 5 0 12 13 15 28 3 16 17 34
31 42 14 7 26 20 26 27 0 7 8 16 18 20 9 3 25 13 34 21 12 10 29 13 53 9 22
-4 35 -2 35 5 0 6 8 20 17 30 14 16 15 25 6 61 -8 28 -8 44 -1 48 5 4 3 9 -7
12 -9 4 -13 3 -10 -3 3 -6 1 -10 -4 -10 -6 0 -11 5 -11 11 0 6 -6 9 -12 6 -47
-19 -51 -20 -45 -10 4 6 -2 13 -13 16 -11 3 -22 1 -25 -4 -3 -4 -13 -5 -21 -2
-15 5 -15 7 0 15 25 14 19 27 -8 15 -14 -7 -22 -17 -18 -26 3 -9 0 -12 -9 -9
-8 3 -13 16 -11 32 3 30 -21 36 -37 9 -9 -15 -10 -15 -11 -2 0 8 5 20 11 26 8
8 7 13 -2 19 -7 4 -14 3 -16 -3 -2 -5 -16 -8 -31 -5 -24 5 -25 3 -14 -10 9
-11 10 -18 2 -23 -5 -3 -10 -1 -10 4 0 17 -51 13 -71 -5 -10 -9 -15 -22 -12
-31 4 -9 -2 -16 -16 -20 -11 -3 -21 -9 -21 -14 0 -5 -18 -8 -40 -7 -22 2 -40
7 -40 12 0 5 -7 3 -15 -4 -10 -9 -15 -9 -15 -1 0 6 -7 11 -16 11 -11 0 -15 6
-11 20 4 15 0 20 -14 20 -10 0 -19 7 -19 15 0 8 -6 15 -14 15 -8 0 -21 -7 -30
-15 -15 -16 -31 -21 -22 -7 2 4 -2 16 -10 26 -13 18 -14 18 -22 -5 -5 -13 -8
-28 -7 -34 1 -5 0 -7 -2 -2 -9 14 -32 7 -26 -8 3 -9 -2 -22 -12 -29 -16 -12
-16 -13 -1 -19 9 -4 16 -12 16 -19 0 -9 -3 -9 -12 0 -9 9 -15 7 -25 -6 -13
-16 -14 -15 -10 5 3 13 -1 24 -9 27 -8 3 -14 17 -14 31 0 14 -4 25 -10 25 -15
0 -50 -33 -50 -47 0 -7 -5 -13 -11 -13 -6 0 -9 9 -6 19 6 23 -9 31 -47 24 -22
-4 -28 -1 -33 15 -3 12 -14 24 -24 27 -10 4 -19 13 -19 22 0 13 -2 13 -17 2
-9 -8 -36 -14 -60 -14 -40 0 -43 2 -38 20 15 45 17 75 6 75 -7 0 -10 -4 -7 -8
3 -5 -6 -21 -20 -37 -22 -26 -24 -27 -24 -7 0 13 6 22 15 22 14 0 15 14 6 59
-1 2 -14 -11 -30 -30 -20 -23 -27 -37 -20 -45 6 -7 6 -21 1 -35 -10 -27 -4
-86 9 -95 8 -5 6 -12 -19 -61 -7 -13 -12 -30 -12 -38 0 -8 -6 -15 -14 -15 -12
0 -14 -12 -9 -57 3 -32 6 -74 7 -93 1 -26 6 -35 18 -34 14 1 17 -5 14 -28 -3
-23 1 -32 15 -35 11 -3 19 -10 18 -17 -3 -23 1 -36 11 -36 5 0 7 8 3 18 -4 11
0 10 11 -5 10 -13 24 -23 32 -23 8 0 14 -7 14 -15 0 -16 16 -20 63 -16 25 2
28 0 22 -18 -5 -16 -3 -20 10 -15 13 5 15 2 9 -20 -5 -23 -2 -28 25 -37 19 -7
31 -18 31 -28 0 -24 36 -56 45 -41 4 6 1 17 -5 25 -7 8 -9 15 -6 15 11 0 31
-23 39 -43 4 -9 15 -20 24 -24 10 -3 30 -15 45 -25 25 -17 27 -23 21 -66 -3
-26 -6 -56 -7 -68 -1 -11 -5 -24 -8 -30 -3 -5 -8 -26 -12 -46 -7 -37 -21 -56
-33 -44 -4 3 -1 17 6 30 16 30 6 50 -23 42 -11 -3 -38 -3 -59 1 -38 6 -38 6
-17 25 26 24 25 26 -5 20 -27 -5 -32 7 -13 26 9 9 8 12 -6 12 -14 0 -16 3 -7
13 14 17 5 26 -18 20 -13 -3 -17 -11 -14 -24 4 -15 0 -19 -21 -19 -25 0 -33
10 -19 23 3 4 8 23 10 43 5 45 -14 36 -23 -11 -9 -47 -32 -66 -50 -40 -13 18
-19 45 -9 45 2 0 11 -12 18 -26 l14 -27 10 42 c11 42 4 59 -19 44 -30 -18 -52
-12 -79 19 -29 34 -37 58 -19 58 6 0 10 -7 10 -15 0 -8 5 -15 10 -15 6 0 16
-11 22 -25 6 -14 16 -25 22 -25 6 0 5 5 -2 12 -7 7 -12 29 -12 49 l0 37 -45
-6 c-42 -4 -45 -3 -46 19 0 13 -3 18 -6 12 -2 -7 -13 -13 -24 -13 -10 0 -19
-5 -19 -11 0 -8 -5 -8 -15 1 -16 14 -21 35 -6 25 13 -8 26 24 25 60 -3 66 -2
65 -35 63 -17 -1 -33 -6 -36 -11 -3 -5 -10 -3 -15 4 -8 11 -9 11 -5 -1 2 -8
10 -14 17 -12 24 6 28 -21 9 -52 -10 -17 -22 -38 -26 -46 -11 -23 -30 -40 -37
-32 -4 3 -11 1 -15 -7 -6 -10 -12 -9 -26 5 -16 17 -18 17 -27 1 -5 -10 -13
-15 -19 -12 -5 4 -9 -1 -9 -10 0 -9 -4 -14 -10 -10 -5 3 -7 11 -5 18 3 7 -7
18 -22 25 -32 14 -53 16 -53 3 0 -5 -9 -11 -20 -14 -11 -3 -19 -11 -18 -18 4
-18 -54 -39 -59 -21 -6 16 -33 16 -33 0 0 -9 -3 -8 -10 2 -6 9 -6 18 0 24 15
15 12 26 -6 26 -25 0 -74 -33 -74 -49 0 -11 -3 -12 -11 -4 -9 9 -17 6 -32 -8
-18 -16 -22 -17 -29 -5 -5 9 -15 13 -25 9 -12 -5 -15 -2 -10 10 9 24 -1 21
-27 -10 -15 -17 -27 -23 -36 -18 -9 6 -5 11 16 20 l29 12 -40 0 c-22 0 -43 -5
-47 -11 -8 -12 -9 22 -2 71 4 26 12 35 44 49 42 19 48 32 41 97 -2 23 -8 37
-17 37 -17 0 -8 51 11 62 7 4 16 19 19 33 4 14 11 25 17 25 6 0 7 5 4 10 -3 6
1 13 10 16 8 4 15 11 14 18 -3 26 2 47 10 42 15 -9 22 24 10 46 -9 17 -9 20 2
16 8 -3 22 5 32 18 10 13 13 24 8 24 -5 0 -13 -4 -16 -10 -3 -5 -14 -10 -23
-10 -14 0 -14 3 4 18 26 21 48 61 39 70 -4 4 -18 -6 -31 -21 -19 -23 -28 -26
-38 -17 -10 7 -16 8 -21 0 -11 -18 -23 -11 -18 10 3 12 0 20 -7 20 -7 0 -10 7
-6 16 3 8 2 13 -3 9 -10 -6 -71 26 -71 37 0 4 4 9 10 13 5 3 6 15 1 28 -14 38
18 92 49 82 11 -4 23 3 34 19 15 23 15 25 -4 31 -11 4 -20 10 -20 15 0 13 38
32 50 25 5 -3 11 -1 15 5 12 19 22 10 17 -16 -3 -20 -1 -25 7 -20 7 5 22 0 33
-11 19 -16 21 -16 15 -1 -4 12 -2 15 9 11 8 -3 13 -12 10 -20 -3 -8 -6 -19 -6
-24 0 -4 -7 -5 -17 -2 -10 4 -14 2 -10 -4 4 -6 -4 -8 -21 -4 -25 5 -25 6 -4 9
37 6 27 32 -13 32 -19 0 -35 -3 -35 -8 0 -18 33 -53 46 -48 9 3 16 -4 20 -20
l6 -25 12 23 c10 18 19 22 45 20 57 -4 75 35 37 77 -20 23 -14 41 15 41 14 0
19 -7 20 -27 0 -26 1 -26 9 -7 4 12 15 24 24 27 19 8 21 48 3 66 -7 8 0 7 21
-3 20 -10 32 -24 32 -36 0 -11 5 -20 10 -20 6 0 10 11 10 24 0 13 3 32 7 42 5
13 3 16 -10 11 -9 -3 -17 -2 -17 3 0 6 7 10 15 10 9 0 15 9 15 21 0 15 -5 19
-15 15 -8 -3 -15 -1 -15 5 0 5 -11 15 -25 21 -20 9 -28 9 -38 -2 -8 -9 -9 -11
0 -6 23 13 26 -17 4 -35 -12 -10 -20 -23 -16 -29 3 -5 0 -7 -8 -5 -9 4 -12 16
-9 35 3 18 0 30 -7 30 -6 0 -11 -7 -11 -15 0 -8 -4 -15 -10 -15 -5 0 -10 -9
-10 -21 0 -14 -5 -19 -14 -16 -10 4 -14 0 -13 -14 1 -10 5 -19 9 -19 4 0 8 -5
8 -12 0 -6 -9 -3 -20 7 -24 21 -26 43 -5 51 26 10 17 22 -20 26 -31 3 -42 -2
-77 -34 -23 -21 -48 -36 -56 -33 -21 8 -55 -14 -43 -29 7 -8 4 -12 -13 -14
-13 -1 -29 5 -36 13 -16 19 -47 19 -52 1 -2 -11 -11 -11 -53 0 -27 7 -69 13
-92 14 -39 0 -73 19 -73 40 0 5 -3 16 -7 26 -3 10 -2 15 3 12 5 -4 18 1 29 9
16 12 17 16 6 20 -10 4 -8 10 10 24 23 18 24 18 5 32 -17 13 -22 13 -35 0 -13
-13 -16 -12 -31 7 -11 14 -20 19 -24 12 -3 -6 -2 -13 4 -17 18 -11 11 -23 -22
-34 -22 -8 -34 -8 -36 -1 -2 5 -15 10 -28 10 -13 0 -32 9 -41 19 -15 18 -19
18 -37 5 -11 -8 -28 -14 -38 -14 -9 0 -20 -5 -23 -10 -4 -7 3 -8 20 -4 22 5
26 4 23 -11 -3 -17 -75 -48 -90 -39 -4 3 -17 0 -29 -7 -21 -11 -22 -16 -16
-107 4 -67 10 -100 20 -107 8 -6 18 -25 21 -43 4 -17 15 -36 23 -41 10 -5 14
-16 10 -30 -3 -14 0 -24 9 -28 8 -3 14 -19 14 -39 0 -19 4 -34 8 -34 4 0 16
-23 26 -51 14 -37 22 -49 34 -44 8 3 19 0 24 -7 11 -18 10 -50 -2 -43 -18 11
-11 -9 20 -55 16 -25 30 -52 30 -61 0 -9 10 -38 21 -65 27 -61 50 -159 43
-179 -7 -17 18 -76 41 -95 8 -7 15 -23 15 -36 0 -13 6 -24 13 -24 12 0 47 -34
47 -45 0 -3 -8 -5 -17 -5 -15 -1 -14 -4 6 -21 14 -12 31 -17 40 -13 17 7 65
19 116 29 17 3 47 11 68 17 33 10 39 9 52 -8 20 -26 19 -33 -5 -27 -27 7 -27
-23 0 -32 11 -3 20 -11 20 -16 0 -13 -41 -1 -55 16 -15 19 -41 25 -54 12 -6
-6 -21 -12 -33 -15 -28 -5 -38 -7 -63 -16 -11 -5 -26 -10 -33 -12 -10 -3 -10
-7 0 -24 10 -16 10 -24 0 -41 -11 -17 -11 -25 2 -44 24 -36 48 -38 110 -9 55
26 67 39 45 46 -16 5 -1 48 16 48 9 0 12 6 9 15 -7 18 9 19 38 4 15 -8 22 -8
28 1 11 17 52 -10 45 -30 -4 -8 -2 -11 2 -6 4 4 8 17 8 29 0 12 7 23 17 25 16
3 16 1 2 -27 -8 -17 -13 -35 -9 -41 4 -6 -6 -10 -23 -10 -20 0 -32 -7 -42 -25
-13 -24 -34 -33 -43 -17 -2 4 -2 1 -1 -5 4 -17 -64 -63 -82 -56 -21 8 -44 -16
-44 -46 0 -31 14 -56 27 -48 5 4 19 0 31 -8 17 -13 19 -19 9 -44 -9 -24 -7
-33 12 -60 12 -17 31 -31 41 -31 23 0 34 -16 36 -55 3 -59 64 -77 102 -31 28
35 72 65 87 60 9 -4 -2 -20 -34 -52 -53 -52 -73 -92 -46 -92 8 0 18 6 21 14 6
17 83 80 90 74 2 -3 -12 -22 -31 -42 -19 -21 -35 -44 -35 -52 0 -8 -4 -14 -8
-14 -5 0 -17 -15 -27 -33 -16 -31 -16 -35 -1 -65 9 -18 24 -32 32 -32 10 0 14
-6 11 -15 -4 -8 0 -27 9 -42 8 -15 17 -45 20 -66 4 -20 11 -40 15 -43 5 -3 9
-32 9 -64 0 -71 12 -106 39 -115 13 -4 21 -15 21 -28 0 -12 7 -31 15 -41 8
-11 15 -34 15 -52 0 -20 6 -34 16 -38 9 -3 14 -13 10 -21 -3 -8 0 -17 5 -21 7
-4 8 -21 4 -41 -7 -39 14 -73 47 -73 12 0 18 -7 18 -24 0 -36 10 -55 26 -49
11 4 12 0 3 -25 -9 -26 -6 -39 18 -89 29 -60 30 -63 32 -99 0 -12 24 -45 51
-75 58 -62 88 -118 92 -169 1 -20 16 -56 35 -84 23 -33 33 -60 33 -85 0 -20 4
-41 9 -46 4 -6 14 -32 20 -59 7 -26 27 -78 45 -115 19 -36 37 -91 41 -121 3
-30 16 -75 27 -100 12 -25 27 -78 34 -119 8 -41 18 -77 23 -80 5 -3 12 -49 15
-101 8 -119 24 -194 47 -219 11 -12 16 -29 13 -47 -3 -16 -5 -34 -6 -41 -1 -7
-6 -11 -12 -10 -5 1 -11 -23 -13 -56 -2 -45 0 -57 12 -57 20 0 19 -17 -2 -28
-15 -9 -14 -12 6 -33 12 -13 20 -30 19 -39 -1 -8 1 -20 5 -27 4 -6 0 -18 -8
-26 -8 -9 -12 -23 -9 -31 3 -9 2 -16 -3 -16 -8 0 -10 -41 -4 -82 1 -5 1306 -8
2901 -8 l2900 0 0 1183 0 1183 -27 -1 c-21 0 -27 4 -25 18 2 9 -2 17 -8 17
-20 0 -25 2 -37 12 -19 16 -16 25 12 32 39 10 19 29 -22 21 -21 -4 -40 -2 -48
5 -8 7 -19 9 -25 5 -6 -3 -24 5 -41 19 -17 14 -37 26 -45 26 -9 0 -12 5 -9 10
11 17 46 11 64 -12 23 -27 78 -29 97 -3 12 17 15 17 31 3 10 -8 32 -20 48 -26
29 -10 29 -11 8 -17 -13 -4 -23 -10 -22 -14 2 -22 18 -45 32 -47 16 -2 17 124
17 1897 0 1512 -3 1899 -12 1900 -7 1 -22 0 -34 0 -25 -2 -164 33 -193 48 -12
7 -22 7 -26 2 -8 -13 -53 3 -155 54 -47 24 -102 46 -123 50 -21 4 -53 18 -73
31 -19 13 -45 24 -57 24 -12 0 -64 20 -115 45 -51 25 -101 45 -110 45 -9 1
-28 7 -42 15 -34 20 -43 19 -68 -8z m-5780 -2195 c4 -15 0 -17 -26 -14 -18 3
-27 1 -23 -4 5 -5 13 -9 19 -9 19 0 55 -98 38 -103 -6 -2 -8 -8 -4 -13 3 -5
-2 -9 -11 -9 -13 0 -14 -4 -5 -20 6 -11 15 -20 21 -20 6 0 7 4 4 10 -3 5 -2
17 3 27 7 12 11 5 13 -30 2 -26 3 -47 1 -47 -2 0 -17 14 -34 30 -30 30 -48 32
-48 4 0 -8 -5 -14 -11 -14 -6 0 -8 9 -4 20 5 16 2 20 -19 20 -33 0 -33 7 2 39
35 32 46 58 28 68 -7 5 -18 18 -25 31 -9 18 -9 23 1 26 19 6 73 24 74 25 1 1
4 -7 6 -17z m5835 -102 c9 0 22 -8 29 -17 11 -15 13 -15 14 -3 0 9 9 4 24 -15
20 -24 27 -28 37 -17 17 16 39 16 39 -1 0 -21 42 -50 72 -49 17 0 26 -3 22
-10 -4 -7 4 -8 24 -3 33 7 55 -12 30 -26 -24 -13 -11 -59 15 -56 14 1 25 -6
31 -20 6 -12 18 -24 28 -26 11 -3 18 -14 17 -29 -1 -19 -2 -20 -6 -4 -3 12 -8
15 -12 8 -9 -15 -81 4 -81 22 0 8 -16 12 -46 12 -45 1 -67 15 -58 38 5 13 -45
15 -65 2 -11 -7 -13 -5 -8 7 5 12 -4 22 -31 36 -20 10 -36 22 -34 25 8 20 -3
26 -43 26 -33 0 -45 4 -45 15 0 10 11 15 35 15 19 0 35 4 35 8 0 5 -10 8 -22
8 -20 -1 -23 4 -25 39 0 22 1 34 4 28 2 -7 12 -13 20 -13z m273 -280 c0 -5 10
-9 22 -7 15 1 26 -5 33 -20 5 -13 13 -23 16 -23 4 0 5 -9 2 -21 -5 -17 -12
-20 -44 -17 -20 2 -35 0 -32 -5 3 -5 21 -7 42 -6 23 2 49 -5 71 -19 19 -12 41
-22 48 -22 31 0 2 -25 -31 -28 -35 -3 -54 -22 -22 -22 8 0 15 -4 15 -10 0 -5
-5 -10 -12 -10 -7 0 -2 -8 11 -17 13 -10 36 -30 51 -45 18 -19 38 -28 58 -28
23 0 30 -4 26 -14 -7 -19 -57 -36 -83 -29 -12 3 -27 1 -34 -5 -13 -11 -67 -5
-67 8 0 4 10 12 23 18 17 8 18 11 5 11 -10 1 -18 8 -18 16 0 13 -39 36 -87 50
-14 4 -23 14 -23 26 0 21 16 26 23 7 2 -7 8 -10 12 -6 5 5 -2 17 -15 28 -13
11 -18 20 -12 20 25 0 10 27 -21 39 -35 14 -49 46 -15 35 30 -9 39 5 18 28
-20 22 -18 38 6 38 8 0 14 5 14 10 0 6 -7 10 -15 10 -8 0 -15 5 -15 10 0 6 11
10 25 10 14 0 25 -4 25 -10z m-2497 -48 c3 -4 45 -9 94 -10 48 -1 114 -9 146
-16 54 -13 57 -12 57 6 0 18 1 18 16 4 16 -17 37 -20 92 -17 17 2 32 -2 32 -7
0 -10 34 -18 115 -26 85 -9 119 -16 128 -25 11 -11 37 -3 37 12 0 6 -10 22
-22 35 -22 23 -22 24 -3 19 11 -3 32 -9 47 -13 17 -4 25 -11 21 -18 -4 -6 1
-5 10 3 21 16 24 14 30 -19 2 -14 2 -19 0 -12 -5 15 -29 16 -39 1 -10 -17 11
-26 110 -44 50 -9 105 -22 121 -29 27 -12 85 -24 205 -42 24 -4 49 -12 55 -19
10 -13 161 -51 183 -47 6 2 12 -5 12 -15 0 -13 3 -14 12 -5 9 9 15 9 26 0 9
-8 16 -9 20 -1 10 15 91 12 85 -3 -2 -6 -14 -16 -26 -22 -20 -11 -20 -11 6 -6
20 5 27 2 27 -9 0 -8 9 -17 20 -20 11 -3 20 -12 20 -21 0 -12 -6 -15 -24 -10
-34 8 -51 -3 -34 -24 11 -13 10 -14 -17 -8 -16 4 -33 12 -36 18 -4 7 -9 7 -13
0 -7 -11 -46 -4 -46 8 0 5 -8 11 -17 14 -12 3 -9 5 7 4 14 0 32 0 40 1 23 2
-62 51 -88 51 -13 0 -36 6 -50 14 -46 25 -134 48 -159 42 -16 -5 -23 -2 -23 8
0 17 -40 10 -41 -8 0 -6 -4 -1 -10 12 -7 18 -14 22 -29 17 -13 -4 -31 0 -45 9
-31 20 -35 20 -36 -1 0 -15 -2 -14 -9 3 -10 25 -74 44 -140 41 -37 -2 -44 -5
-42 -19 4 -24 -15 -23 -23 1 -3 11 -12 18 -19 15 -8 -3 -16 4 -19 16 -4 16
-12 20 -34 18 -16 -2 -27 2 -26 8 1 7 -19 11 -53 12 l-55 0 35 -34 c38 -37 43
-50 24 -57 -8 -2 -9 -8 -4 -13 5 -5 11 -4 13 4 3 6 16 12 30 12 20 0 24 -4 20
-20 -7 -27 4 -33 73 -44 14 -2 32 -6 40 -9 64 -23 125 -37 137 -33 7 3 16 -1
19 -9 7 -17 44 -21 44 -5 0 6 12 10 26 10 19 0 25 -5 22 -17 -4 -22 89 -73
133 -73 37 0 70 -26 45 -36 -18 -7 -24 -6 -121 31 -101 38 -135 47 -154 42 -9
-2 -22 2 -29 9 -6 7 -33 16 -59 20 -27 3 -55 13 -65 21 -16 14 -35 3 -24 -15
3 -5 -9 -9 -26 -9 -28 0 -29 1 -12 14 16 12 17 15 4 23 -9 6 -17 5 -22 -3 -5
-8 -13 -6 -27 7 -11 10 -26 16 -33 13 -9 -4 -8 -6 3 -6 10 -1 19 -12 21 -26 6
-26 -6 -43 -17 -25 -12 19 -45 11 -45 -10 0 -24 -6 -25 -26 -5 -14 13 -14 15
0 15 9 0 16 7 16 16 0 8 -5 12 -10 9 -6 -3 -13 1 -16 9 -3 9 -13 16 -21 16
-12 0 -13 3 -4 14 9 11 5 15 -21 19 -18 4 -49 9 -68 12 -33 7 -34 6 -15 -8 11
-8 29 -16 40 -18 13 -3 21 -13 22 -29 1 -14 -1 -18 -3 -8 -7 22 -52 32 -72 16
-13 -11 -15 -10 -9 5 7 20 -3 23 -21 5 -6 -6 -15 -8 -19 -4 -4 4 3 15 16 25
20 15 21 19 7 24 -9 4 -16 2 -16 -3 0 -6 -4 -10 -10 -10 -5 0 -10 7 -10 15 0
13 -9 15 -50 9 -40 -5 -50 -4 -48 7 4 16 -54 38 -104 38 -20 1 -40 6 -43 11
-5 8 -11 8 -20 0 -9 -8 -15 -8 -20 0 -7 11 -69 14 -62 3 3 -5 -11 -15 -29 -24
-30 -14 -34 -15 -34 -2 0 10 -7 14 -20 10 -10 -3 -21 0 -23 7 -3 7 -9 6 -22
-4 -16 -13 -18 -13 -13 0 2 8 19 16 36 18 18 2 32 6 32 10 0 14 -42 33 -61 27
-11 -4 -25 0 -35 9 -18 18 -39 22 -28 4 4 -7 3 -8 -4 -4 -37 23 14 42 65 25
21 -6 50 -12 65 -11 15 0 28 -3 28 -9 0 -5 10 -9 23 -9 113 1 232 -11 247 -25
9 -8 19 -12 23 -9 3 4 23 -1 43 -11 30 -14 40 -15 60 -4 29 15 17 34 -27 44
-16 4 -27 11 -23 16 5 9 -16 13 -44 10 -8 -1 -12 6 -10 16 2 14 -3 17 -25 15
-15 -2 -35 2 -43 9 -16 13 -72 24 -182 35 -34 4 -65 10 -67 14 -3 5 -23 6 -45
3 -30 -4 -40 -2 -40 8 0 16 85 26 93 11z m-173 -287 c14 -8 39 -14 57 -15 17
0 35 -5 38 -11 4 -6 14 -8 22 -5 9 4 22 1 29 -5 7 -6 18 -8 23 -5 5 4 12 2 16
-4 12 -20 61 -11 73 13 10 21 11 21 11 -7 1 -34 13 -27 18 9 2 15 -1 25 -9 25
-9 0 -9 3 -1 11 12 12 37 3 28 -11 -3 -5 11 -7 30 -6 20 2 38 -1 41 -6 3 -5
14 -2 25 8 17 15 21 15 41 2 13 -9 42 -15 66 -15 30 0 47 -6 56 -18 8 -12 19
-16 30 -12 14 5 17 2 14 -16 -2 -14 -9 -21 -21 -21 -21 2 -21 0 -2 -35 15 -31
78 -66 101 -57 8 3 14 1 14 -5 0 -6 5 -7 10 -4 6 3 13 -1 16 -9 3 -9 18 -16
33 -16 32 0 108 -24 176 -56 28 -13 58 -24 67 -24 18 0 34 -18 25 -27 -5 -5
-129 29 -172 47 -11 5 -48 17 -82 27 -35 9 -63 20 -63 24 0 10 -85 31 -106 26
-14 -3 -2 -12 40 -31 32 -15 65 -25 72 -22 7 3 16 1 19 -4 3 -4 31 -16 63 -25
31 -9 73 -26 93 -36 20 -10 44 -19 53 -19 9 0 25 -4 36 -10 11 -5 29 -15 41
-21 16 -8 19 -8 14 1 -4 7 4 5 18 -4 13 -9 29 -16 33 -14 5 1 31 -8 58 -20 27
-12 54 -21 60 -20 6 0 24 -4 40 -11 34 -14 36 -12 25 14 -4 11 -8 14 -8 6 -1
-11 -4 -11 -16 -1 -24 20 -18 29 18 24 29 -3 42 -7 102 -30 11 -4 24 -6 29 -5
5 1 17 -6 27 -15 10 -9 22 -13 28 -10 19 12 20 -12 2 -33 -18 -21 -19 -21 -24
-1 -3 11 -13 20 -23 20 -9 0 -25 6 -33 14 -21 19 -73 25 -78 8 -3 -7 14 -21
44 -33 26 -11 62 -27 80 -35 17 -8 35 -14 41 -14 5 0 15 -7 22 -15 6 -8 58
-36 115 -63 56 -27 105 -55 109 -61 4 -6 26 -20 50 -31 23 -10 49 -26 56 -35
7 -8 17 -15 22 -15 9 0 62 -35 86 -58 8 -7 26 -19 40 -26 15 -8 38 -26 51 -40
14 -14 30 -26 37 -26 11 0 28 -29 21 -36 -2 -2 -14 7 -27 19 -14 12 -36 27
-50 33 -14 6 -46 28 -73 48 -26 20 -51 36 -56 36 -5 0 -30 16 -55 35 -26 19
-50 35 -55 35 -5 0 -11 3 -13 8 -1 4 -23 17 -48 29 -66 33 -132 71 -144 83 -5
5 -18 10 -29 10 -10 0 -25 7 -33 15 -23 22 -43 18 -54 -10 -9 -24 -34 -34 -44
-17 -7 12 9 33 24 30 7 -2 14 2 17 9 4 12 -48 45 -77 49 -18 2 -158 61 -174
72 -6 5 -51 21 -101 37 -98 31 -124 40 -170 61 -41 18 -202 70 -245 79 -19 4
-40 11 -46 16 -6 5 -29 10 -50 12 -21 1 -54 10 -72 19 -20 10 -49 15 -76 13
-34 -3 -43 0 -42 12 1 10 -10 16 -32 18 -18 1 -39 8 -46 15 -13 10 -13 8 -3
-13 7 -16 17 -23 27 -19 10 3 12 2 5 -6 -6 -6 -30 -12 -55 -14 -41 -3 -45 -1
-43 20 2 12 -2 22 -8 22 -5 0 -7 -4 -4 -10 3 -5 1 -10 -4 -10 -14 0 -14 27 -1
35 13 8 2 26 -13 23 -18 -4 -97 24 -92 32 3 4 -4 10 -15 13 -11 3 -18 2 -17
-2 2 -7 -7 -11 -30 -11 -14 0 -15 2 -4 9 9 6 10 11 2 15 -6 4 -14 0 -17 -8 -8
-20 -24 -21 -24 -1 0 9 -11 21 -25 27 -14 6 -25 15 -25 20 0 5 -7 16 -15 25
-9 8 -13 18 -9 22 4 3 9 0 11 -6 6 -18 23 -16 23 2 0 18 8 18 40 0z m923 -140
c34 -7 76 -19 92 -25 17 -7 52 -14 80 -17 27 -2 55 -9 61 -14 7 -5 16 -9 20
-8 5 1 23 -4 39 -11 17 -8 35 -14 40 -15 20 -2 60 -18 65 -25 3 -4 23 -10 46
-12 23 -3 46 -8 52 -12 6 -3 15 2 21 11 9 17 11 17 28 1 17 -17 16 -18 -2 -18
-18 0 -17 -1 3 -16 14 -9 36 -14 53 -12 20 3 29 0 29 -9 0 -15 16 -17 25 -3 9
14 32 1 38 -22 3 -11 10 -17 15 -14 5 3 15 -1 22 -9 7 -8 19 -15 26 -15 8 0
14 -7 14 -16 0 -12 -4 -14 -12 -7 -7 6 -31 14 -53 18 -21 3 -52 16 -67 26 -15
11 -46 21 -68 22 -22 1 -40 5 -40 9 0 4 -8 8 -17 8 -9 0 -25 7 -35 17 -10 9
-30 18 -45 19 -14 2 -29 7 -32 13 -3 5 -22 8 -41 6 -24 -2 -40 3 -50 16 -15
18 -134 44 -151 33 -5 -3 -9 0 -9 6 0 7 -7 10 -15 6 -8 -3 -15 -2 -15 2 0 5
-29 14 -65 21 -36 7 -65 16 -65 20 0 4 -23 8 -51 8 -27 1 -57 7 -64 13 -8 7
-22 10 -30 6 -8 -3 -15 0 -15 6 0 6 12 9 33 5 19 -3 40 -1 47 3 8 5 18 6 23 3
5 -3 36 -11 70 -18z m2007 -31 c36 2 110 -27 110 -43 0 -5 3 -17 7 -27 5 -14
2 -16 -21 -10 -18 4 -32 2 -43 -10 -11 -11 -26 -14 -48 -10 -20 4 -38 1 -50
-9 -19 -14 -19 -14 2 -10 13 2 25 -1 29 -6 3 -5 14 -7 25 -4 25 8 24 -3 -3
-26 -35 -28 -76 -25 -89 7 -5 15 -7 35 -4 45 4 12 1 19 -7 19 -9 1 -7 5 5 14
17 14 23 27 10 25 -20 -3 -23 3 -13 21 8 15 8 20 -2 20 -10 0 -9 3 1 9 8 5 24
6 36 1 11 -4 36 -7 55 -6z m-2930 -44 c11 -11 27 -20 35 -20 8 0 15 -4 15 -10
0 -5 10 -10 22 -10 31 0 91 -23 101 -37 4 -7 14 -13 22 -13 13 0 117 -53 142
-72 7 -5 17 -7 24 -3 6 4 14 3 18 -3 3 -6 31 -24 61 -40 30 -16 90 -48 133
-71 43 -22 84 -41 92 -41 8 0 15 -4 15 -9 0 -5 10 -13 21 -16 27 -9 146 -85
177 -114 12 -12 27 -21 32 -21 6 0 10 -4 10 -10 0 -5 -4 -10 -9 -10 -6 0 -13
5 -16 10 -3 6 -14 10 -23 10 -10 0 -32 14 -50 30 -18 17 -36 30 -40 30 -4 0
-31 16 -61 35 -29 19 -56 35 -61 35 -12 0 -74 34 -78 43 -2 4 -12 7 -22 7 -10
0 -21 4 -24 9 -7 11 -290 151 -306 151 -6 0 -39 14 -73 32 -133 67 -123 64
-149 43 -13 -11 -17 -13 -10 -5 16 19 15 40 -2 40 -8 0 -16 7 -20 15 -3 8 -13
15 -21 15 -9 0 -13 5 -10 10 10 16 33 12 55 -10z m-878 -47 c15 -13 23 -14 43
-5 20 9 26 8 34 -6 6 -9 11 -12 11 -7 1 20 29 -40 30 -64 0 -18 3 -21 13 -12
15 12 27 5 27 -16 0 -7 -9 -13 -19 -13 -11 0 -22 -6 -24 -12 -4 -9 -6 -7 -6 3
-1 16 -40 39 -66 39 -18 0 -20 -27 -3 -32 6 -2 9 -9 7 -16 -6 -18 -49 15 -49
38 0 10 -11 31 -24 47 -18 21 -21 33 -15 51 10 26 17 27 41 5z m945 -109 c12
-13 30 -24 39 -24 9 0 44 -15 78 -33 109 -59 132 -71 191 -100 22 -11 54 -30
71 -43 17 -13 35 -24 40 -24 29 0 254 -132 235 -138 -8 -3 -102 41 -151 69 -8
5 -42 23 -75 40 -268 140 -354 186 -370 199 -27 22 -88 49 -98 43 -10 -6 -27
15 -27 35 0 20 41 5 67 -24z m-147 -65 c0 -5 9 -9 20 -9 11 0 20 -4 20 -8 0
-4 12 -13 28 -20 25 -11 79 -47 109 -72 7 -6 24 -15 38 -20 14 -5 25 -13 25
-18 0 -5 11 -14 25 -20 14 -6 54 -34 89 -62 35 -27 67 -50 71 -50 5 0 22 -11
40 -24 18 -14 54 -37 80 -52 27 -15 54 -31 59 -36 6 -5 34 -23 61 -40 28 -17
74 -47 103 -67 30 -20 68 -45 85 -55 18 -11 46 -33 63 -50 17 -17 57 -53 90
-81 66 -56 153 -146 154 -158 0 -13 -34 14 -125 101 -47 45 -90 82 -96 82 -6
0 -27 16 -46 35 -19 19 -38 35 -42 35 -3 0 -33 20 -66 45 -33 25 -64 45 -69
45 -6 0 -19 9 -31 20 -22 20 -98 66 -127 76 -10 4 -18 10 -18 15 0 5 -15 15
-34 23 -19 8 -64 37 -100 65 -36 28 -68 51 -71 51 -10 0 -69 44 -78 58 -4 6
-15 12 -22 12 -8 0 -15 3 -15 8 0 4 -16 16 -35 26 -19 10 -42 26 -52 35 -10 9
-40 27 -67 40 -37 18 -50 21 -56 11 -5 -8 -10 -1 -15 20 -4 20 -15 34 -26 37
-28 8 -23 21 6 15 14 -2 25 -8 25 -13z m-28 -97 c27 11 33 8 35 -18 2 -32 17
-43 47 -37 21 4 21 4 2 -11 -19 -15 -19 -16 10 -16 20 0 36 -9 53 -30 13 -17
29 -30 37 -30 8 0 14 -4 14 -10 0 -5 6 -10 14 -10 7 0 24 -12 37 -28 13 -15
47 -45 74 -67 59 -47 72 -59 193 -178 51 -51 102 -111 113 -134 11 -24 25 -43
30 -43 5 0 9 -5 9 -10 0 -6 14 -29 30 -52 17 -22 30 -45 30 -50 0 -5 5 -14 10
-21 55 -66 89 -117 78 -117 -20 0 -34 12 -51 45 -28 54 -161 180 -179 169 -7
-4 -8 -3 -4 4 10 17 -47 72 -75 72 -17 0 -20 3 -11 9 10 6 3 16 -25 37 -21 15
-49 39 -63 52 -14 12 -55 46 -92 74 -38 29 -68 56 -68 60 0 4 -5 8 -11 8 -6 0
-35 19 -64 43 -87 68 -139 105 -160 113 -20 8 -102 84 -90 84 10 0 76 -41 93
-57 8 -7 35 -27 60 -45 56 -38 56 -38 106 -83 22 -19 44 -35 49 -35 5 0 23
-11 41 -25 17 -14 42 -34 56 -44 151 -118 175 -138 243 -203 54 -53 77 -68 77
-52 0 28 -281 315 -355 363 -23 14 -54 38 -70 54 -17 15 -42 33 -57 40 -16 6
-28 15 -28 19 0 11 -133 108 -157 114 -13 4 -23 12 -23 20 0 8 -9 19 -20 26
-33 21 -23 29 14 11 19 -9 40 -14 48 -11z m-423 -217 c1 -5 20 -35 44 -65 23
-30 49 -68 57 -85 8 -16 19 -33 24 -36 4 -4 18 -23 30 -42 11 -20 59 -98 107
-174 47 -76 93 -156 103 -178 10 -22 31 -67 46 -100 54 -114 72 -163 67 -176
-3 -10 -7 -8 -12 6 -48 132 -215 445 -308 575 -50 70 -67 97 -76 118 -6 12
-15 22 -21 22 -5 0 -10 6 -10 14 0 8 -11 23 -25 34 -14 11 -25 25 -25 32 0 6
-16 31 -35 54 -19 24 -35 49 -35 56 0 14 68 -40 69 -55z m1397 -45 c65 -34
130 -72 144 -85 14 -14 40 -28 58 -31 18 -4 38 -14 45 -23 7 -10 37 -34 67
-54 85 -57 103 -73 96 -86 -8 -12 -8 -12 -71 44 -22 19 -45 35 -51 35 -6 0
-19 9 -29 20 -10 11 -24 20 -31 20 -16 0 -118 59 -122 71 -2 5 -9 9 -15 9 -7
0 -36 16 -64 35 -29 19 -61 35 -72 35 -11 0 -23 9 -26 21 -4 11 -12 18 -19 16
-7 -3 -18 4 -24 14 -7 10 -11 19 -9 19 2 0 57 -27 123 -60z"/>
<path d="M3376 6414 c-3 -9 -6 -26 -6 -39 0 -13 -4 -27 -10 -30 -6 -4 -2 -15
10 -27 26 -28 28 -90 3 -86 -13 2 -18 -4 -18 -25 -1 -23 2 -27 19 -23 11 3 26
0 33 -6 10 -8 13 -6 13 11 0 11 5 21 11 21 7 0 9 10 5 24 -4 18 -1 28 11 35
10 6 13 11 7 11 -13 0 -17 77 -5 85 5 3 12 1 16 -5 10 -17 25 -1 25 26 0 24
-21 31 -22 9 -1 -16 -32 -35 -39 -23 -3 5 -15 11 -25 12 -13 2 -18 10 -17 25
3 25 -2 28 -11 5z"/>
<path d="M5410 5700 c-8 -5 -29 -10 -47 -10 -18 0 -51 -10 -75 -23 -36 -19
-43 -27 -41 -50 1 -15 11 -40 22 -56 12 -16 21 -34 21 -40 0 -12 59 -81 69
-81 12 0 67 84 76 116 24 85 22 154 -3 154 -4 0 -14 -5 -22 -10z"/>
<path d="M3404 5522 c-6 -4 -16 -23 -23 -42 -6 -20 -21 -44 -32 -54 -17 -14
-20 -24 -14 -54 6 -35 6 -36 -9 -17 -16 20 -16 20 -22 -2 -3 -13 -10 -23 -15
-23 -13 0 -11 11 5 43 14 26 14 27 -9 27 -27 0 -44 -19 -27 -29 6 -4 12 -22
14 -40 2 -30 18 -57 18 -30 0 7 8 6 25 -5 14 -9 36 -14 51 -12 15 3 36 -1 48
-9 23 -17 40 -20 31 -5 -3 5 -1 19 5 30 7 13 7 26 2 37 -7 12 -4 22 8 36 14
14 16 25 10 42 -6 16 -4 29 5 41 30 39 10 85 -23 52 -9 -9 -13 -7 -18 5 -7 19
-13 21 -30 9z"/>
<path d="M7108 5009 c-8 -5 -29 -7 -46 -5 -22 3 -29 1 -26 -9 4 -8 -6 -15 -25
-20 -17 -4 -33 -10 -36 -15 -8 -13 69 1 77 14 6 8 8 8 8 -1 0 -6 -7 -19 -16
-28 -9 -9 -14 -18 -11 -22 3 -3 1 -16 -4 -30 -15 -39 -3 -63 32 -63 16 0 29
-5 29 -11 0 -5 5 -7 10 -4 6 3 10 0 10 -9 0 -8 -6 -17 -12 -19 -7 -3 0 -6 15
-6 16 -1 26 3 22 9 -4 6 7 10 25 10 25 0 31 4 26 15 -3 8 0 15 6 15 7 0 9 -17
5 -50 l-6 -50 29 0 c17 0 30 -4 30 -10 0 -14 -53 -13 -67 1 -8 8 -14 5 -22
-10 -7 -12 -16 -21 -22 -21 -6 0 -6 7 1 20 12 22 -1 27 -18 7 -16 -19 -61 -19
-94 1 -29 17 -29 17 -49 -8 -14 -17 -22 -21 -26 -12 -2 6 -12 12 -21 13 -11 0
-12 2 -4 6 21 8 13 23 -13 23 -14 0 -25 5 -25 11 0 5 -4 8 -9 5 -5 -4 -11 -1
-13 6 -3 8 -7 6 -11 -5 -3 -9 -2 -17 3 -17 14 0 12 -27 -2 -34 -7 -4 -3 -4 9
-2 13 2 26 0 29 -5 4 -8 -17 -14 -38 -10 -5 0 -8 -5 -8 -12 0 -8 17 -11 60 -9
59 2 59 2 68 -30 12 -41 -1 -53 -64 -62 -38 -5 -49 -3 -60 11 -12 17 -13 17
-14 1 0 -9 -7 -18 -17 -20 -12 -2 -8 -7 13 -18 16 -8 32 -19 35 -24 7 -9 59
-10 127 -2 47 5 69 16 34 16 -12 0 -22 5 -22 10 0 6 4 10 9 10 17 0 63 49 57
59 -4 6 5 17 18 26 28 19 80 13 104 -11 7 -8 20 -14 27 -14 9 0 12 -6 8 -17
-4 -11 -3 -14 5 -9 9 5 11 -2 10 -26 -2 -23 1 -32 10 -30 19 4 72 -30 72 -45
0 -7 5 -13 10 -13 6 0 10 4 10 9 0 5 10 13 23 17 12 3 30 13 39 21 9 8 22 12
27 8 6 -3 11 -2 11 2 0 9 -73 43 -91 43 -7 0 -18 -8 -26 -17 -8 -10 -12 -13
-9 -6 4 6 2 14 -4 18 -5 3 -10 -1 -10 -9 0 -13 -3 -14 -19 -4 -23 14 -18 28 9
28 10 0 21 7 24 16 5 12 10 14 20 5 14 -12 26 -5 26 15 0 8 -6 11 -16 7 -10
-4 -15 -1 -14 8 5 34 -1 93 -8 82 -11 -17 -52 -4 -52 16 0 12 -2 13 -9 3 -7
-11 -9 -11 -14 1 -3 7 -1 20 4 28 14 22 11 27 -16 25 -13 -2 -22 1 -19 6 6 10
-43 61 -68 71 -9 4 -7 6 4 6 10 1 16 9 15 21 -1 11 -6 19 -12 17 -5 -2 -19 5
-30 17 -11 12 -31 27 -45 34 -14 7 -18 11 -9 8 21 -6 76 29 57 37 -8 3 -21 1
-30 -4z"/>
<path d="M4127 4787 c4 -21 1 -25 -29 -29 -18 -3 -34 -2 -36 2 -1 4 -14 5 -27
2 -20 -3 -25 -10 -25 -33 0 -15 -4 -31 -10 -34 -5 -3 -9 -18 -9 -33 1 -17 3
-21 6 -9 7 27 20 20 25 -14 4 -24 -1 -38 -20 -58 l-24 -26 3 29 c3 19 -1 31
-10 34 -11 4 -13 -3 -7 -34 4 -22 8 -48 10 -60 4 -30 15 -44 33 -44 13 0 13 3
-2 26 l-17 27 23 -17 c13 -9 24 -27 24 -39 0 -17 6 -22 27 -23 15 -1 33 3 40
7 10 7 9 9 -5 9 -13 0 -16 6 -12 25 3 14 7 36 10 49 3 13 8 31 11 40 10 25
-21 19 -34 -6 -6 -13 -11 -17 -11 -10 -1 7 6 24 15 38 13 19 20 22 30 13 8 -6
14 -8 14 -4 0 4 7 2 15 -5 13 -11 15 -8 15 15 0 19 -4 26 -13 22 -20 -8 -32 4
-44 46 -12 41 -11 44 10 22 13 -12 16 -8 27 31 9 31 10 48 3 55 -7 7 -9 3 -6
-14z"/>
<path d="M4773 3807 c2 -6 17 -14 33 -18 28 -5 28 -5 7 -13 -13 -4 -27 -4 -33
-1 -14 9 -13 -11 3 -35 9 -16 9 -22 0 -28 -7 -5 -10 -17 -6 -31 5 -21 7 -22
18 -8 10 14 16 15 38 4 15 -6 27 -18 27 -25 0 -7 6 -20 14 -27 12 -12 14 -11
18 9 3 13 1 32 -5 41 -8 16 -4 17 44 10 30 -4 58 -10 63 -13 5 -3 21 -7 35 -8
39 -5 85 -12 91 -14 3 -1 10 -3 15 -4 6 -1 18 -6 28 -10 10 -5 21 -6 24 -2 4
3 -2 6 -12 6 -15 0 -16 3 -7 12 16 16 15 31 -1 25 -10 -4 -13 2 -9 19 3 16 0
24 -9 24 -8 0 -3 9 11 20 25 19 25 19 5 34 -11 9 -23 16 -27 16 -13 0 -9 -18
5 -23 6 -2 8 -8 4 -13 -5 -5 -13 -1 -18 9 -7 12 -22 17 -52 17 -23 0 -56 4
-73 9 -36 10 -69 -3 -45 -18 7 -5 21 -7 30 -4 12 3 17 -2 17 -16 0 -25 -18
-27 -36 -5 -8 8 -25 14 -39 12 -14 -1 -32 1 -39 5 -6 5 -16 5 -22 2 -5 -3 -10
3 -10 15 0 22 -5 25 -58 34 -24 4 -32 2 -29 -7z"/>
</g>
</svg>
