<?xml version="1.0" standalone="no"?>
<!DOCTYPE svg PUBLIC "-//W3C//DTD SVG 20010904//EN"
 "http://www.w3.org/TR/2001/REC-SVG-20010904/DTD/svg10.dtd">
<svg version="1.0" xmlns="http://www.w3.org/2000/svg"
 width="448.000000pt" height="480.000000pt" viewBox="0 0 448.000000 480.000000"
 preserveAspectRatio="xMidYMid meet">
<metadata>
Created by potrace 1.15, written by Peter Selinger 2001-2017
</metadata>
<g transform="translate(0.000000,480.000000) scale(0.100000,-0.100000)"
fill="#000000" stroke="none">
<path d="M3418 4783 c0 -10 -1 -24 -1 -31 2 -36 -137 -192 -171 -192 -5 0 -17
-6 -25 -14 -9 -8 -53 -33 -98 -56 -45 -23 -96 -54 -114 -71 -29 -27 -97 -57
-144 -64 -11 -1 -58 -8 -103 -15 -98 -15 -180 -8 -272 21 -38 12 -105 23 -160
26 -118 6 -156 -10 -178 -72 -15 -43 -37 -348 -35 -505 0 -103 29 -237 68
-325 49 -110 72 -216 55 -259 -4 -13 -18 -72 -30 -132 -28 -136 -47 -173 -113
-225 -49 -38 -97 -107 -97 -137 0 -12 -34 -68 -50 -82 -18 -16 -61 -85 -94
-150 -77 -149 -115 -192 -227 -258 -19 -12 -47 -32 -61 -45 -25 -23 -68 -107
-68 -132 0 -19 -118 -332 -145 -385 -13 -25 -44 -68 -69 -96 -37 -42 -60 -57
-123 -82 -43 -17 -103 -36 -133 -42 -30 -7 -91 -32 -135 -57 -95 -53 -170 -80
-260 -92 -83 -12 -182 -45 -222 -74 -80 -58 -240 -199 -255 -224 -9 -16 -30
-75 -46 -133 -46 -158 -68 -479 -41 -595 13 -59 125 -252 149 -260 10 -3 129
-6 266 -7 232 -2 254 -1 320 20 88 27 96 45 63 136 -28 77 -39 89 -119 136
-81 47 -111 77 -151 149 -27 49 -31 66 -31 133 -1 66 3 83 27 125 16 26 52 71
81 99 87 85 156 116 380 170 147 35 192 30 247 -29 21 -23 43 -53 49 -67 12
-29 26 -164 34 -332 l6 -117 -55 -58 c-67 -72 -86 -108 -98 -189 -6 -41 -21
-86 -45 -128 l-36 -66 67 0 66 0 29 63 c16 34 32 84 35 111 7 61 29 99 76 132
20 13 49 47 64 75 25 47 27 58 26 166 -1 63 -6 123 -11 133 -5 10 -14 55 -19
99 -8 78 -6 120 8 122 3 0 76 2 162 4 87 1 161 5 167 9 6 3 36 -8 67 -24 31
-17 49 -30 39 -30 -18 -1 -18 -1 -1 -11 13 -8 17 -18 13 -33 -3 -13 1 -31 9
-42 9 -12 14 -14 15 -6 0 24 83 -34 85 -60 1 -13 5 -41 9 -63 7 -35 4 -45 -23
-83 -18 -23 -43 -78 -57 -121 -20 -61 -39 -96 -89 -158 -35 -44 -75 -105 -89
-136 -13 -31 -39 -77 -56 -102 l-31 -45 84 0 84 0 38 83 c20 45 66 121 101
169 46 62 73 110 94 170 16 45 42 110 59 142 40 76 42 146 5 246 -14 39 -23
78 -20 86 3 9 20 14 46 14 22 0 57 7 78 16 43 18 92 12 114 -14 27 -31 47
-100 54 -179 3 -43 10 -85 15 -94 13 -26 90 -42 161 -35 35 3 101 9 148 12
115 8 132 25 89 85 -11 16 -17 29 -12 29 4 0 2 4 -6 9 -8 5 -15 20 -16 33 -2
12 -8 47 -14 77 -6 29 -11 74 -11 99 0 39 5 50 38 81 20 20 45 51 54 69 14 26
23 32 50 32 27 0 40 -9 76 -51 23 -28 42 -55 42 -59 0 -4 -6 -26 -14 -48 -21
-58 -6 -104 42 -133 20 -12 60 -44 88 -70 36 -34 63 -49 90 -54 35 -5 124 -31
349 -98 44 -14 93 -38 132 -67 34 -25 83 -57 110 -72 26 -15 60 -37 74 -49 52
-41 204 -52 289 -20 27 10 72 39 98 63 27 23 68 56 91 72 35 25 44 27 52 15 5
-8 8 70 7 206 0 121 -3 210 -5 198 l-4 -23 -37 19 c-49 25 -372 121 -406 121
-28 0 -126 94 -140 135 -37 103 -58 192 -81 335 -13 85 -29 171 -35 190 -5 19
-10 55 -10 79 0 90 -26 203 -71 306 -44 103 -51 219 -24 408 14 101 15 135 5
233 -17 155 -10 232 27 329 45 117 56 169 58 275 3 123 -6 152 -64 210 -70 70
-87 97 -122 194 -17 48 -41 99 -53 114 -47 59 -76 110 -93 165 -10 34 -23 57
-31 57 -10 0 -13 10 -10 36 2 20 -1 63 -7 97 -15 83 1 173 64 367 16 47 35
109 44 138 l15 52 -39 0 c-30 0 -39 -4 -41 -17z m50 -920 c62 -47 66 -87 13
-159 -33 -47 -90 -77 -143 -78 -48 0 -65 16 -84 81 -27 91 -4 143 76 176 44
19 96 11 138 -20z m-558 -168 c42 -21 60 -53 60 -103 0 -61 -33 -117 -85 -142
-79 -38 -127 -19 -154 59 -16 49 -14 123 5 150 33 47 119 65 174 36z m22 -562
c-56 -49 -207 -243 -189 -243 3 0 39 44 80 98 50 63 83 98 95 98 13 0 18 -5
15 -16 -3 -8 5 -4 17 10 l22 25 -5 -23 c-5 -20 -3 -21 10 -10 19 15 18 12 -25
-69 -18 -35 -39 -89 -47 -120 -16 -62 -21 -213 -6 -213 5 0 12 -11 15 -24 3
-14 14 -27 24 -30 11 -4 24 -16 31 -29 7 -12 27 -31 44 -42 21 -13 33 -30 35
-48 2 -15 0 -27 -5 -26 -24 4 -43 -3 -43 -16 0 -11 -9 -15 -31 -13 -33 3 -44
12 -52 43 -4 17 -5 16 -6 -5 -1 -20 -3 -22 -11 -10 -9 13 -12 12 -25 -4 -12
-16 -17 -17 -30 -6 -8 7 -15 9 -15 4 0 -4 -7 1 -15 12 -8 10 -15 15 -15 9 0
-5 -9 5 -20 23 -13 21 -18 42 -15 55 6 19 3 17 -20 -8 l-26 -29 7 42 c8 50 1
53 -26 10 -13 -21 -20 -27 -20 -16 0 9 5 20 10 23 6 3 10 18 10 33 -1 26 -1
27 -17 7 l-16 -20 8 20 c4 11 9 43 10 72 3 41 1 51 -10 47 -10 -4 -12 1 -8 18
3 13 9 28 13 33 15 19 39 86 30 80 -5 -3 -28 -33 -51 -65 -23 -33 -44 -60 -46
-60 -12 0 57 108 101 158 28 31 64 75 81 96 35 49 146 158 153 151 3 -2 -4
-12 -16 -22z m-95 -999 c25 -16 96 -19 122 -5 9 5 36 11 59 14 23 2 45 6 48
10 8 8 83 -2 106 -14 12 -6 18 -6 18 0 0 6 16 13 36 17 28 5 42 2 64 -15 16
-11 32 -21 36 -21 8 0 33 -32 34 -44 0 -4 -7 -6 -15 -2 -17 6 -21 -9 -5 -19 6
-3 10 -13 10 -21 0 -11 -12 -6 -42 18 -23 18 -52 33 -64 33 -37 1 -22 -32 28
-64 46 -29 80 -71 58 -71 -6 0 -9 -4 -5 -10 3 -5 -18 2 -47 15 -57 25 -69 28
-108 26 -17 -1 -21 -4 -12 -9 17 -11 6 -39 -19 -45 -39 -10 -15 -97 27 -97 8
0 13 -4 10 -9 -3 -5 31 -7 77 -4 56 2 77 0 67 -6 -13 -9 -13 -12 0 -25 8 -8
32 -23 53 -34 33 -17 35 -21 21 -33 -14 -12 -14 -14 3 -27 16 -13 15 -14 -14
-8 -36 6 -34 8 -48 -78 -9 -53 -36 -107 -49 -97 -6 4 -24 7 -41 6 -16 -2 -35
1 -40 5 -13 10 -39 -9 -49 -35 -7 -19 -8 -19 -21 -2 -13 17 -18 15 -73 -42
-56 -56 -83 -77 -66 -50 20 34 -73 -46 -105 -90 -28 -37 -40 -47 -44 -36 -4 8
-1 14 6 12 7 -1 12 5 12 14 0 9 15 33 33 53 42 48 41 59 -4 50 -23 -4 -35 -3
-31 3 6 9 -49 3 -90 -11 -21 -8 -37 -38 -33 -65 1 -13 -1 -13 -14 -2 -22 18
-33 5 -18 -19 10 -16 10 -20 0 -20 -25 1 -62 109 -65 189 -1 42 -4 104 -7 139
-2 34 0 65 5 68 5 3 7 9 4 14 -3 5 3 17 13 27 11 10 25 39 33 65 15 52 35 63
93 52 26 -4 38 -1 52 13 11 11 35 27 54 36 60 27 130 56 135 56 3 0 13 7 21
16 9 8 23 15 32 15 22 0 3 18 -23 23 -11 1 -26 6 -32 10 -9 5 -13 2 -13 -8 0
-9 -4 -13 -10 -10 -5 3 -10 1 -10 -5 0 -7 -6 -10 -14 -7 -7 3 -18 1 -23 -4
-12 -12 -193 -19 -193 -7 0 5 -5 6 -12 2 -7 -4 -22 -9 -34 -10 -17 -2 -22 2
-18 14 3 9 -3 5 -12 -10 -10 -16 -22 -28 -26 -28 -11 0 -21 47 -13 62 3 7 -1
4 -9 -6 -9 -11 -16 -31 -17 -45 0 -24 -1 -25 -9 -5 -13 33 24 170 56 205 12
13 28 16 82 12 37 -3 77 -11 89 -19z m-649 -694 c13 -22 39 -17 45 8 3 15 5
14 11 -3 5 -11 14 -33 21 -50 8 -16 21 -57 30 -90 9 -33 23 -73 30 -90 8 -16
16 -52 19 -80 5 -45 4 -48 -8 -26 -10 17 -15 20 -18 10 -3 -8 -8 1 -12 19 -5
18 -14 36 -21 38 -8 3 -17 24 -21 47 -8 41 -8 42 -14 12 -6 -28 -7 -26 -25 30
-27 91 -49 144 -57 139 -11 -7 -20 15 -13 36 8 25 17 25 33 0z m1263 -158 c20
-20 44 -59 54 -87 18 -52 47 -85 72 -85 8 0 21 -7 29 -15 11 -11 38 -15 98
-15 99 0 138 -12 188 -56 20 -18 54 -37 75 -42 428 -108 434 -110 452 -150 16
-34 4 -128 -19 -150 -9 -9 -31 -38 -49 -64 -18 -27 -34 -48 -36 -48 -2 0 -11
-3 -21 -7 -11 -4 -15 -3 -11 4 10 15 -83 25 -175 18 -66 -5 -78 -4 -78 10 0 8
3 15 8 15 4 0 8 12 9 27 1 29 -39 73 -66 73 -8 0 -23 7 -33 17 -25 22 -33 10
-21 -31 6 -19 8 -37 5 -40 -3 -3 -24 -6 -48 -6 -36 0 -49 6 -84 40 -43 42
-125 73 -240 91 -30 5 -80 16 -110 24 -30 8 -81 20 -113 25 -48 7 -67 17 -105
52 -62 56 -65 61 -51 107 10 35 9 46 -10 92 l-23 51 49 47 c26 26 60 66 75 88
25 39 30 42 80 46 29 2 55 4 58 5 3 1 21 -15 41 -36z m-809 -569 l26 -25 30
22 c36 26 115 39 127 19 12 -18 -41 -57 -104 -75 -91 -27 -221 -3 -221 40 0
18 77 56 99 49 9 -3 28 -17 43 -30z"/>
</g>
</svg>
