<?xml version="1.0" standalone="no"?>
<!DOCTYPE svg PUBLIC "-//W3C//DTD SVG 20010904//EN"
 "http://www.w3.org/TR/2001/REC-SVG-20010904/DTD/svg10.dtd">
<svg version="1.0" xmlns="http://www.w3.org/2000/svg"
 width="467.000000pt" height="479.000000pt" viewBox="0 0 467.000000 479.000000"
 preserveAspectRatio="xMidYMid meet">
<metadata>
Created by potrace 1.15, written by Peter Selinger 2001-2017
</metadata>
<g transform="translate(0.000000,479.000000) scale(0.100000,-0.100000)"
fill="#000000" stroke="none">
<path d="M3390 4770 c0 -10 -18 -36 -40 -56 -34 -32 -40 -43 -40 -78 0 -53
-18 -103 -81 -228 -52 -103 -98 -156 -263 -302 -49 -43 -56 -54 -56 -86 0 -22
-8 -48 -20 -63 -11 -14 -20 -32 -20 -40 0 -8 -9 -26 -20 -40 -11 -14 -20 -33
-20 -42 0 -24 -49 -168 -64 -185 -7 -8 -24 -51 -39 -96 -14 -45 -36 -97 -49
-116 -13 -20 -31 -49 -40 -64 -10 -16 -33 -49 -53 -74 -19 -25 -46 -62 -60
-82 -42 -63 -178 -189 -235 -218 -30 -15 -100 -58 -155 -95 -79 -53 -105 -75
-122 -110 -13 -24 -27 -46 -33 -50 -5 -3 -10 -12 -10 -20 0 -15 -137 -155
-152 -155 -6 0 -26 -13 -45 -30 -27 -24 -43 -30 -79 -30 -31 0 -54 -7 -71 -20
-14 -11 -37 -20 -50 -20 -13 0 -40 -8 -61 -18 -20 -10 -55 -19 -77 -20 -22 -2
-71 -16 -110 -33 -38 -17 -89 -40 -113 -50 -25 -11 -66 -19 -100 -19 -34 0
-79 -8 -112 -21 -30 -12 -68 -26 -85 -33 -16 -6 -41 -19 -55 -28 -13 -10 -32
-18 -41 -18 -9 0 -24 -9 -35 -21 -10 -12 -37 -30 -59 -41 -22 -11 -65 -43 -95
-70 -30 -27 -68 -59 -83 -71 -15 -12 -40 -33 -54 -46 -15 -13 -41 -28 -59 -32
-46 -13 -84 -46 -84 -74 0 -34 -30 -94 -51 -100 -10 -3 -81 -70 -158 -148
l-141 -142 0 -50 1 -50 58 65 c32 36 65 72 75 80 9 8 72 71 140 139 96 96 126
131 131 158 3 19 14 37 23 40 9 3 24 12 32 18 8 7 33 18 55 25 46 15 67 29 59
41 -2 5 7 11 21 15 14 3 22 11 18 17 -3 6 -1 7 6 3 6 -4 22 2 36 12 17 14 21
22 13 25 -7 3 1 6 17 6 23 1 26 4 15 11 -19 12 -8 23 20 18 l22 -3 -23 -30
c-19 -25 -20 -27 -4 -15 32 24 40 34 41 51 1 12 -5 14 -24 11 -42 -8 -16 14
33 29 25 7 45 17 45 21 0 14 28 9 45 -9 11 -11 19 -13 23 -5 5 7 15 6 32 -4
24 -14 24 -15 2 -11 -12 3 -22 2 -22 -3 0 -10 31 -24 46 -21 7 1 14 -5 18 -14
3 -8 1 -15 -5 -15 -6 0 -8 -4 -5 -9 3 -5 -6 -12 -22 -16 -15 -4 -21 -10 -14
-12 10 -4 8 -9 -7 -20 -12 -8 -19 -19 -15 -24 9 -16 -16 -39 -42 -39 -13 0
-24 -4 -24 -10 0 -5 -8 -7 -17 -4 -11 3 -10 0 4 -8 26 -16 29 -28 11 -39 -9
-6 -9 -9 -1 -9 7 0 18 12 26 28 7 15 18 26 24 25 6 -1 17 4 23 12 7 8 21 15
31 15 10 0 21 5 24 10 4 6 -5 10 -19 10 -16 0 -26 6 -26 15 0 8 7 15 16 15 8
0 12 -4 9 -10 -3 -5 -1 -10 4 -10 6 0 11 9 11 20 0 23 25 27 33 6 6 -15 47
-29 47 -15 0 5 -10 9 -22 9 l-21 0 23 25 c13 14 33 25 46 25 27 0 51 25 26 27
-9 1 -26 4 -37 6 -11 3 -25 6 -31 6 -6 1 -11 8 -11 16 0 11 7 14 21 9 17 -4
18 -3 6 5 -8 6 -10 11 -5 11 6 0 2 5 -9 11 -25 15 -1 30 34 23 18 -4 13 1 -15
17 -29 16 -55 22 -95 21 l-55 -1 35 16 c19 9 52 25 74 35 95 47 161 55 195 24
10 -9 22 -16 28 -16 6 0 13 -5 15 -10 2 -7 11 -5 23 4 20 15 20 15 -3 16 -19
0 -21 3 -13 19 17 32 101 36 101 5 0 -8 4 -14 8 -14 16 0 51 -41 46 -54 -3 -8
4 -16 16 -19 15 -4 19 -10 14 -19 -11 -18 -12 -48 -2 -54 4 -3 8 7 8 23 1 25
2 26 14 11 15 -20 51 -24 61 -8 4 6 15 8 25 5 10 -3 21 -1 25 5 6 11 -5 13
-42 10 -15 -1 -23 4 -23 15 0 21 -30 32 -41 14 -7 -12 -11 -11 -25 3 -23 22
-9 39 26 31 19 -3 30 -1 30 5 0 6 -7 9 -15 6 -8 -4 -15 -1 -15 5 0 6 5 11 10
11 6 0 10 5 10 10 0 6 -8 10 -17 10 -10 0 -24 4 -32 9 -9 6 8 9 47 9 34 -1 59
-5 56 -9 -6 -10 26 0 44 14 9 7 17 6 24 -1 7 -7 25 -12 41 -12 18 0 26 -4 21
-11 -5 -8 -1 -8 14 0 16 9 23 8 29 -3 8 -13 31 -20 61 -17 7 0 10 6 7 11 -3 6
-17 7 -31 4 -14 -4 -24 -2 -24 4 0 13 -37 26 -65 24 -14 -1 -15 0 -5 5 8 3 18
11 22 16 4 6 12 4 23 -6 15 -16 18 -16 41 0 17 10 21 19 14 23 -17 10 -14 19
10 40 20 17 20 19 3 29 -16 9 -16 10 5 11 12 0 22 -5 22 -10 0 -7 6 -7 19 0
26 13 31 13 31 -5 0 -8 8 -15 18 -15 14 0 15 -2 2 -10 -9 -5 -19 -5 -28 2 -18
15 -35 -4 -37 -40 -1 -25 2 -28 19 -24 12 3 18 1 14 -3 -4 -5 -3 -14 3 -22 9
-10 6 -13 -17 -14 -24 -1 -25 -3 -7 -6 18 -3 20 -7 10 -18 -6 -7 -15 -11 -19
-8 -5 2 -8 0 -8 -6 0 -15 23 -26 28 -13 4 14 51 16 72 2 12 -7 11 -12 -5 -27
-20 -18 -31 -58 -14 -47 17 10 9 -9 -8 -22 -15 -11 -15 -13 -3 -14 9 0 23 9
33 20 22 26 35 25 39 -3 2 -14 -6 -30 -22 -44 -16 -15 -20 -22 -11 -23 11 0
10 -4 -4 -14 -14 -10 -28 -11 -57 -3 -21 5 -38 13 -38 18 0 5 -7 9 -15 9 -21
0 -19 20 3 21 9 0 -7 7 -37 15 -30 8 -56 12 -59 9 -7 -7 38 -45 52 -44 6 0 6
3 -1 6 -7 2 -13 9 -13 15 0 6 6 5 15 -2 9 -7 14 -19 11 -27 -3 -7 -1 -13 4
-13 6 0 10 -6 10 -14 0 -8 8 -21 18 -28 9 -7 17 -19 17 -27 0 -23 19 -23 43
-1 29 27 36 25 17 -4 -9 -13 -14 -30 -13 -37 2 -8 -4 -13 -14 -11 -9 1 -19 -2
-23 -8 -9 -14 -45 -13 -45 2 0 6 -8 4 -19 -6 -11 -10 -25 -15 -31 -11 -8 5
-10 0 -8 -11 3 -24 -22 -59 -42 -58 -8 1 -23 2 -32 3 -27 2 -21 18 9 26 20 5
23 9 13 15 -8 5 -26 2 -46 -8 -33 -15 -39 -29 -19 -45 6 -4 -1 -7 -15 -6 -41
2 -52 0 -45 -11 3 -6 -1 -7 -10 -4 -8 3 -27 3 -43 -1 l-27 -8 24 -6 c27 -7
143 9 151 21 8 10 80 17 80 7 0 -5 5 -9 11 -9 6 0 9 7 5 15 -4 11 1 15 17 15
20 1 20 2 5 11 -25 14 -22 36 5 43 34 9 67 7 67 -4 0 -6 8 -5 19 2 11 7 18 15
15 19 -2 4 0 10 6 14 6 4 8 11 5 16 -3 5 1 6 9 3 9 -3 16 -9 17 -13 6 -49 4
-55 -23 -70 -15 -9 -28 -20 -28 -24 0 -5 6 -5 13 -1 6 4 8 3 4 -1 -14 -16 -39
-15 -33 2 6 15 -20 50 -30 40 -3 -3 1 -11 9 -18 13 -12 13 -16 -1 -33 -16 -18
-16 -19 -1 -13 9 3 21 1 27 -5 8 -8 16 -7 27 2 27 23 26 4 -1 -23 -26 -26 -26
-27 -5 -27 20 0 21 -1 6 -24 -11 -16 -13 -26 -5 -31 6 -3 9 -1 8 7 -2 8 9 14
27 16 16 2 33 9 37 15 4 6 11 8 15 3 4 -5 2 -11 -5 -13 -7 -3 -18 -11 -25 -18
-7 -7 -23 -16 -35 -19 -12 -4 -22 -12 -22 -17 0 -5 -8 -9 -17 -9 -12 0 -14 3
-6 11 15 15 4 61 -14 55 -8 -3 -19 -6 -24 -6 -6 0 -8 -4 -5 -9 3 -4 -1 -17
-10 -27 -14 -18 -15 -18 -9 4 4 13 2 22 -4 22 -6 0 -11 -6 -11 -14 0 -8 -7
-17 -16 -20 -23 -9 -24 -8 -23 17 0 12 3 16 6 10 6 -17 23 -16 23 1 0 7 13 16
29 19 18 4 30 14 34 29 8 30 1 35 -23 13 -11 -10 -33 -18 -50 -17 -16 0 -30
-3 -30 -7 0 -5 -14 -14 -31 -22 -30 -12 -30 -13 -11 -20 15 -6 20 -13 15 -25
-5 -14 -3 -16 12 -11 16 7 16 5 4 -10 -12 -14 -12 -16 1 -11 8 3 22 -1 30 -10
12 -14 11 -15 -11 -8 -40 13 -59 8 -80 -18 -11 -14 -27 -26 -35 -26 -8 0 -23
-9 -34 -20 -11 -11 -15 -20 -9 -20 11 0 82 50 87 63 2 4 15 7 28 7 31 0 32
-28 1 -35 -13 -4 -24 -13 -24 -21 0 -17 14 -19 20 -1 4 9 6 9 6 0 1 -15 -36
-36 -49 -28 -5 3 -11 1 -15 -5 -3 -5 -1 -10 6 -10 7 0 4 -7 -7 -15 -18 -14
-18 -14 4 -8 12 3 22 9 22 13 0 4 8 11 18 15 14 5 15 4 5 -6 -17 -17 -16 -29
3 -29 8 0 12 -5 9 -11 -4 -6 -14 -8 -22 -5 -9 4 -21 -1 -28 -11 -11 -14 -10
-20 4 -30 14 -11 14 -14 1 -22 -8 -6 -11 -13 -7 -17 4 -4 16 1 27 11 11 10 18
20 15 23 -11 11 19 32 47 32 25 0 27 -2 18 -19 -7 -14 -6 -21 3 -24 7 -3 5 -6
-5 -6 -10 -1 -18 -5 -18 -11 0 -5 -4 -10 -10 -10 -15 0 -12 21 6 41 15 17 15
18 -2 17 -11 -1 -26 -16 -35 -34 -11 -23 -12 -31 -3 -27 7 3 18 2 24 -2 14 -9
-6 -35 -23 -31 -7 1 -8 1 -4 -2 4 -2 3 -10 -4 -18 -8 -9 -8 -14 -1 -14 6 0 14
5 17 11 4 5 12 8 18 6 7 -3 22 5 35 16 20 18 22 19 22 3 0 -10 5 -15 13 -11 6
4 4 0 -6 -8 -10 -8 -16 -20 -15 -27 2 -7 -7 -13 -19 -15 -18 -1 -20 1 -12 12
9 10 7 13 -11 13 -13 0 -20 -5 -17 -12 2 -7 -5 -23 -17 -36 -20 -22 -20 -23
-1 -16 20 7 20 6 1 -12 -13 -14 -20 -15 -23 -7 -3 10 -10 10 -25 2 l-21 -11
20 28 c21 30 20 54 -2 54 -20 0 -39 -27 -23 -33 16 -5 14 -6 -39 -34 -43 -21
-59 -13 -25 13 9 7 12 14 5 14 -17 0 -42 -28 -49 -54 -4 -18 -12 -22 -35 -21
-27 2 -70 29 -58 38 2 2 27 18 54 36 43 29 46 32 20 27 l-30 -7 25 17 c14 10
28 23 32 28 5 8 8 8 8 1 0 -18 51 -11 61 8 11 20 -1 23 -19 5 -10 -10 -14 -8
-18 10 -8 27 -30 29 -44 2 -6 -11 -20 -20 -31 -20 -11 0 -18 4 -14 9 3 5 -4
12 -15 16 -11 3 -20 10 -20 15 0 7 91 56 135 72 13 4 6 6 -20 5 -22 -1 -47
-10 -57 -20 -10 -9 -24 -17 -30 -17 -8 1 -6 6 5 14 9 7 17 22 17 33 0 10 5 24
12 31 9 9 9 12 -1 12 -7 0 -10 4 -7 9 4 5 0 12 -6 14 -10 4 -10 6 0 6 6 1 12
5 12 10 0 5 -12 8 -27 7 -16 -2 -26 -7 -25 -11 2 -4 -2 -12 -10 -17 -9 -7 -7
-8 10 -5 13 3 20 1 16 -5 -3 -5 -17 -7 -30 -4 -14 4 -34 2 -47 -4 -12 -6 -4 6
20 28 23 22 40 42 37 45 -7 6 -44 -3 -44 -12 0 -4 -9 -7 -20 -7 -22 0 -27 21
-7 29 6 3 0 6 -15 6 -31 1 -39 21 -10 21 10 0 19 6 19 13 0 9 -10 12 -29 9
-19 -3 -27 -9 -24 -18 3 -7 1 -16 -4 -19 -5 -3 -7 -12 -3 -20 3 -9 -1 -15 -9
-15 -8 0 -23 -10 -34 -21 -19 -22 -19 -22 3 -10 27 14 77 15 68 1 -3 -5 -17
-10 -30 -10 -13 0 -25 -3 -27 -7 -4 -11 -96 -50 -133 -58 -29 -6 -29 -6 -10 9
26 20 6 21 -23 0 -26 -18 -29 -36 -5 -32 10 1 24 -1 31 -5 6 -5 12 -4 12 1 0
8 42 32 55 32 3 0 5 -6 5 -14 0 -8 6 -17 13 -20 6 -3 2 -3 -10 0 -34 8 -50 -6
-23 -21 22 -12 22 -12 -11 -19 -18 -3 -37 -2 -42 3 -5 5 -17 7 -26 4 -12 -3
-11 0 4 12 20 17 20 17 -2 12 -13 -3 -23 -1 -23 5 0 6 -7 8 -15 5 -8 -4 -17
-2 -20 3 -4 6 -1 10 6 10 7 0 9 3 5 7 -4 4 12 17 36 30 24 12 36 22 28 23 -9
0 -24 -6 -35 -14 -11 -7 -27 -13 -35 -13 -8 0 -19 -2 -25 -3 -20 -5 -36 0 -30
10 3 5 22 10 41 10 22 0 37 6 40 15 4 8 14 15 23 15 14 0 14 2 1 11 -12 9 -12
10 3 5 46 -15 64 -16 87 -7 22 9 20 10 -12 5 -34 -5 -36 -4 -31 15 6 24 0 26
-28 11 -16 -9 -19 -7 -19 9 0 11 8 25 17 30 16 9 15 10 -7 11 -15 0 -32 -6
-39 -12 -11 -10 -13 -10 -7 0 4 7 1 12 -8 12 -21 0 -13 30 15 51 13 10 18 19
11 19 -8 0 -27 -13 -42 -30 -15 -16 -36 -30 -47 -29 -15 0 -14 2 5 9 22 10 31
30 11 30 -5 0 -7 5 -4 11 4 6 13 8 20 5 8 -3 19 2 25 10 7 8 18 14 25 14 7 0
15 7 19 15 3 8 1 15 -4 15 -6 0 -10 -3 -10 -7 0 -10 -49 -33 -69 -33 -14 1
-13 3 2 14 25 19 22 39 -4 31 -19 -6 -21 -4 -16 14 3 12 0 27 -7 34 -7 7 -11
18 -8 25 6 18 -12 15 -37 -7 -19 -17 -21 -22 -9 -40 7 -12 19 -21 26 -21 21 0
3 -21 -32 -36 l-31 -13 28 -1 c15 0 27 -4 27 -10 0 -5 6 -7 14 -4 8 3 12 12 9
20 -3 8 0 14 6 14 6 0 11 -11 11 -25 0 -32 -3 -41 -12 -38 -5 2 -8 -2 -8 -7 0
-6 -5 -10 -11 -10 -5 0 -7 5 -3 12 4 7 3 8 -4 4 -6 -4 -9 -13 -6 -20 3 -8 -10
-19 -33 -29 l-38 -16 35 2 c19 1 38 7 42 12 5 6 8 6 8 -1 0 -7 17 -11 45 -10
30 1 45 -3 45 -11 0 -7 -7 -13 -16 -13 -25 0 -55 -20 -48 -32 4 -6 9 -7 13 0
10 15 49 24 56 12 3 -5 -3 -10 -14 -10 -11 0 -23 -4 -26 -10 -4 -6 7 -8 27 -5
26 4 29 3 13 -4 -11 -5 -32 -10 -48 -10 -15 -1 -36 -7 -47 -14 -17 -10 -22 -9
-30 2 -4 8 -23 15 -41 16 -26 1 -43 -7 -75 -37 -44 -41 -69 -52 -38 -17 l19
22 -29 -7 c-23 -6 -27 -4 -23 9 5 12 1 14 -17 9 -24 -6 -50 16 -28 24 20 6 13
20 -8 15 -11 -3 -17 -9 -14 -14 3 -5 1 -8 -5 -7 -5 2 -16 -5 -23 -14 -7 -10
-31 -20 -53 -24 -47 -7 -102 -33 -72 -34 10 0 28 5 39 11 17 9 20 9 15 -3 -4
-11 1 -14 19 -10 13 2 22 8 19 11 -2 4 2 8 10 8 8 0 17 -7 19 -14 3 -8 10 -11
16 -8 6 4 8 11 5 16 -4 5 1 9 10 9 8 0 18 -7 21 -15 4 -8 11 -12 17 -8 6 3 7
1 3 -5 -4 -7 -3 -12 2 -12 5 0 8 -11 7 -25 -2 -14 1 -27 5 -30 13 -8 91 26 84
37 -3 5 2 15 12 23 13 9 21 10 25 3 4 -6 14 0 24 15 9 14 14 30 12 35 -3 4 3
13 14 20 16 10 19 9 19 -3 0 -8 9 -15 20 -15 28 0 25 -14 -7 -36 -17 -10 -23
-19 -15 -22 7 -2 9 -8 6 -14 -3 -5 8 -3 24 6 17 9 34 16 37 16 14 0 -51 -60
-65 -61 -9 0 -10 -2 -3 -5 6 -3 22 1 35 9 13 8 43 17 68 20 36 5 41 4 24 -4
-14 -7 -21 -20 -20 -35 0 -14 5 -19 10 -13 6 5 17 9 26 9 8 0 23 9 33 20 23
28 41 26 25 -2 -12 -22 -13 -26 -17 -45 -1 -5 -6 -1 -11 7 -6 9 -13 11 -17 5
-5 -5 -14 -10 -20 -11 -39 -3 -44 -5 -38 -14 4 -6 13 -7 24 -1 9 5 23 6 30 1
10 -6 8 -9 -8 -15 -11 -3 -21 -11 -21 -17 0 -5 -8 -7 -17 -4 -10 4 -14 4 -10
0 4 -4 -5 -16 -20 -26 -16 -10 -25 -18 -22 -18 14 0 104 44 117 56 17 17 23
18 19 2 -1 -8 6 -12 17 -10 16 3 14 -2 -10 -27 -16 -17 -36 -31 -45 -31 -18 0
-60 -29 -41 -30 8 0 5 -12 -10 -34 -14 -21 -28 -32 -38 -29 -9 3 -11 2 -4 -4
6 -4 10 -18 9 -31 -2 -31 18 -28 59 9 20 17 41 29 48 27 7 -3 -15 -23 -49 -46
-76 -52 -166 -68 -130 -24 9 13 9 14 -1 8 -7 -4 -12 -2 -12 5 0 8 -4 8 -15 -1
-10 -9 -15 -9 -15 -1 0 6 5 12 10 12 6 1 13 2 18 3 4 1 24 18 44 39 21 20 44
37 52 37 7 0 16 7 20 15 7 18 -5 20 -23 3 -11 -11 -13 -10 -9 1 2 7 23 24 46
36 23 12 39 25 35 28 -3 4 -19 -1 -35 -9 -19 -10 -40 -13 -57 -9 l-26 7 24 19
c17 14 19 19 8 19 -9 0 -19 -4 -22 -10 -3 -5 -21 -9 -38 -9 -22 1 -25 3 -11 6
12 2 29 12 38 22 15 16 15 18 -6 16 -13 -2 -22 -7 -21 -12 1 -5 -11 -7 -27 -5
-36 5 -30 26 13 42 71 28 106 45 107 54 0 4 -8 5 -18 1 -9 -4 -43 -16 -75 -27
-39 -14 -61 -28 -67 -42 -4 -11 -22 -30 -39 -41 -34 -22 -43 -42 -12 -25 33
17 54 13 48 -10 -3 -11 -1 -18 3 -15 5 3 16 2 25 -2 15 -5 15 -8 -6 -25 -15
-12 -18 -16 -7 -12 10 3 18 1 18 -4 0 -6 10 -8 23 -6 12 3 33 8 47 10 l25 5
-27 -16 c-15 -8 -25 -21 -23 -28 3 -6 -3 -17 -14 -24 -17 -10 -18 -9 -14 10
l5 22 -16 -22 c-10 -13 -24 -23 -32 -23 -8 0 -14 -4 -14 -9 0 -15 -61 -75 -78
-77 -9 -2 -24 -13 -33 -26 -13 -17 -26 -22 -48 -20 -22 3 -31 -1 -31 -11 0 -8
-7 -20 -15 -27 -32 -27 -15 18 21 54 25 25 31 36 20 36 -9 0 -16 -4 -16 -10 0
-5 -10 -15 -22 -21 -22 -12 -22 -12 -7 12 9 13 29 30 45 38 16 8 35 20 42 28
18 17 28 17 13 -1 -7 -8 -11 -21 -9 -30 2 -8 -6 -22 -17 -30 -13 -10 -15 -15
-7 -16 8 0 26 13 40 28 15 16 34 31 42 35 13 4 12 6 -1 6 -9 1 -19 12 -21 26
-4 20 1 29 29 46 36 22 39 39 5 20 -32 -17 -39 -12 -13 9 13 11 20 20 16 20
-5 0 0 9 10 20 31 34 10 32 -44 -4 -29 -19 -48 -37 -42 -40 6 -4 18 2 28 14
18 20 33 26 33 12 0 -4 -15 -16 -32 -27 -42 -24 -49 -35 -36 -58 7 -14 7 -18
-1 -12 -7 4 -19 1 -27 -6 -12 -10 -17 -8 -29 7 -13 19 -14 19 -29 -1 -8 -11
-10 -22 -5 -25 10 -7 -26 -70 -41 -70 -5 0 -10 -5 -10 -11 0 -6 7 -9 15 -5 8
3 15 2 15 -2 0 -13 -17 -34 -26 -32 -5 1 -10 -4 -13 -11 -2 -7 1 -9 9 -4 10 6
12 4 7 -9 -5 -14 -3 -15 12 -6 16 8 18 7 14 -10 -7 -26 5 -56 17 -44 5 5 11
19 13 30 3 23 47 83 47 65 0 -9 5 -9 20 -1 16 9 20 8 20 -5 0 -9 -4 -14 -9
-11 -5 3 -14 -1 -21 -9 -7 -8 -20 -15 -29 -15 -10 0 -17 -8 -17 -19 0 -18 2
-18 23 -2 12 9 23 19 23 24 0 4 5 7 10 7 6 0 -2 -16 -17 -35 -15 -19 -34 -35
-40 -35 -7 0 -13 -7 -13 -16 0 -14 3 -14 15 -4 13 11 14 10 9 -4 -8 -20 5 -20
30 -1 11 8 28 15 38 15 10 0 18 5 18 10 0 6 -11 8 -26 4 -19 -5 -25 -4 -20 5
4 6 13 11 20 11 7 0 24 12 39 28 14 15 33 33 41 40 9 7 16 17 16 22 0 16 -20
11 -27 -6 -7 -19 -47 -64 -57 -64 -4 0 -2 9 4 21 7 11 9 27 6 34 -3 8 -1 17 4
20 6 4 10 0 10 -7 0 -7 9 -2 19 11 11 14 23 21 30 16 7 -4 20 0 29 8 9 8 27
16 38 19 18 5 21 1 20 -23 -1 -15 -5 -31 -9 -35 -4 -4 -7 -11 -7 -16 0 -14 69
45 75 63 6 17 45 34 45 20 0 -12 32 -6 68 11 19 10 30 12 26 5 -4 -7 5 -1 19
12 15 14 27 19 27 13 0 -15 37 6 44 24 4 11 -24 14 -34 4 -3 -3 -15 -11 -28
-18 -16 -9 -22 -9 -22 0 0 6 -11 1 -25 -12 -14 -13 -25 -19 -25 -12 0 14 54
52 74 52 10 0 13 6 10 15 -7 17 16 21 32 5 8 -8 15 -6 24 5 7 8 9 15 4 15 -4
0 3 12 17 26 22 24 22 26 4 22 -11 -1 -28 -13 -38 -25 -10 -13 -26 -23 -35
-23 -15 1 -14 3 2 15 23 17 17 19 -18 5 -32 -12 -46 6 -20 25 18 13 17 14 -6
8 -14 -3 -22 -2 -18 2 4 4 22 8 40 7 38 -1 59 13 51 34 -3 8 0 14 7 14 6 0 8
-4 5 -10 -11 -18 22 -10 40 10 22 24 40 26 31 4 -4 -10 -1 -14 6 -12 7 3 13
14 13 25 0 11 7 28 15 39 12 14 7 13 -18 -5 -18 -13 -36 -20 -39 -17 -3 3 -13
0 -21 -7 -13 -10 -14 -9 -3 10 7 14 19 22 33 20 11 -1 23 3 25 9 2 7 -8 9 -29
6 -30 -5 -32 -3 -19 12 12 14 11 16 -8 16 -12 0 -19 5 -16 10 10 16 -11 12
-25 -5 -15 -18 -30 -20 -30 -3 0 6 3 9 6 6 3 -4 14 2 25 13 11 11 33 22 50 26
22 4 27 8 17 14 -9 6 -6 9 10 9 15 0 26 7 29 20 7 26 64 55 74 38 9 -15 2 -29
-14 -27 -30 4 -47 -2 -47 -16 0 -12 4 -14 19 -5 13 7 22 7 26 0 10 -16 62 -12
62 5 0 18 -24 20 -29 3 -2 -6 -10 -9 -17 -7 -7 3 10 17 38 32 28 16 56 25 63
21 7 -4 8 -3 4 5 -8 12 20 28 31 17 12 -11 -30 -46 -56 -46 -20 0 -23 -2 -11
-10 12 -8 12 -10 1 -10 -8 0 -11 -7 -8 -20 6 -22 -11 -39 -22 -22 -4 7 -24 1
-56 -18 -46 -27 -48 -30 -22 -30 15 0 30 7 33 15 7 17 44 21 44 5 0 -5 -6 -10
-12 -10 -9 0 -8 -3 2 -10 13 -8 12 -11 -5 -25 -18 -15 -18 -16 -1 -11 14 5 17
2 12 -10 -5 -14 -4 -15 9 -4 12 10 15 10 15 -4 0 -9 5 -16 10 -16 14 0 4 -51
-12 -62 -7 -4 -20 -8 -28 -8 -10 0 -8 6 8 18 13 10 20 21 16 25 -11 11 -24 8
-21 -4 1 -6 -11 -13 -27 -15 -16 -1 -33 -7 -39 -13 -6 -6 -19 -6 -32 -1 -16 6
-27 5 -34 -4 -12 -15 -5 -46 11 -46 5 0 7 -4 4 -9 -3 -5 -15 -7 -25 -4 -10 3
-22 -1 -26 -8 -6 -9 -2 -11 13 -7 13 4 22 1 22 -5 0 -7 7 -3 16 8 8 11 19 20
24 20 4 0 12 4 17 8 4 5 1 7 -7 5 -8 -2 -15 4 -15 12 0 17 66 26 92 12 10 -6
26 -6 40 -1 18 7 23 5 23 -7 0 -11 6 -14 18 -10 12 4 11 1 -5 -13 -12 -10 -20
-21 -17 -24 3 -3 15 4 27 16 11 11 22 16 24 10 4 -12 -83 -101 -104 -105 -11
-2 -17 -16 -18 -41 -3 -34 -1 -37 22 -33 19 4 23 1 21 -12 -2 -9 -11 -16 -21
-16 -9 1 -17 -2 -17 -7 0 -5 -5 -9 -11 -9 -5 0 -7 4 -4 10 3 5 4 10 2 10 -3 0
-15 -16 -26 -36 -12 -20 -25 -34 -28 -31 -3 4 0 14 8 23 12 15 12 17 -1 12 -8
-2 -20 -19 -26 -36 -5 -18 -13 -30 -16 -27 -3 3 -8 -4 -11 -16 l-6 -21 22 20
c34 31 63 36 63 12 0 -11 -4 -20 -8 -20 -12 0 -10 -34 3 -47 8 -8 8 -16 0 -30
-9 -16 -10 -15 -11 10 0 20 -6 30 -20 34 -20 5 -20 7 -4 24 23 25 9 24 -24 -2
l-27 -21 -3 25 c-2 15 2 36 8 49 11 22 10 22 -9 -2 -10 -13 -18 -28 -15 -31 2
-4 1 -14 -2 -23 -5 -13 -9 -14 -21 -5 -11 9 -17 9 -26 -1 -10 -10 -9 -12 5 -7
22 8 23 0 3 -19 -8 -9 -15 -12 -15 -8 0 3 -7 1 -15 -6 -9 -8 -15 -9 -15 -2 0
6 5 14 10 17 12 8 13 25 1 25 -10 0 -71 -88 -71 -103 0 -5 7 -4 16 4 12 10 17
10 23 0 6 -9 11 -8 21 3 7 9 16 14 20 11 4 -3 11 3 15 13 6 16 7 16 21 -2 18
-25 18 -40 0 -33 -8 3 -20 -1 -26 -9 -7 -8 -23 -14 -36 -14 -18 0 -22 -4 -18
-17 5 -14 4 -15 -4 -4 -13 18 -44 7 -36 -14 9 -23 -22 -53 -51 -49 -16 1 -25
-3 -25 -12 0 -8 6 -11 16 -7 13 5 15 1 10 -18 -7 -24 -7 -24 9 -4 9 11 23 28
30 39 7 10 18 15 24 12 15 -10 10 -55 -5 -49 -7 2 -17 -5 -23 -16 -7 -12 -18
-18 -31 -16 -15 3 -20 -1 -18 -13 2 -9 -2 -17 -9 -17 -6 0 -15 -4 -20 -9 -5
-5 -3 -6 5 -2 25 15 10 -10 -21 -34 -29 -22 -30 -22 -13 -2 13 15 15 22 6 22
-9 0 -5 9 10 25 13 14 20 28 16 32 -4 4 -16 -3 -27 -17 -16 -21 -20 -23 -29
-10 -8 12 -10 11 -10 -6 0 -11 -10 -29 -21 -40 -22 -19 -22 -19 -10 4 7 13 10
26 8 29 -8 7 -35 -50 -30 -63 6 -18 -35 -24 -41 -7 -4 11 -2 13 9 9 15 -5 21
5 8 17 -3 4 -17 -3 -30 -15 -13 -12 -23 -16 -23 -10 0 6 -9 10 -19 9 -15 -1
-17 -5 -11 -17 5 -9 5 -22 1 -29 -6 -10 -11 -9 -24 3 -17 17 -37 21 -37 7 0
-5 -9 -11 -20 -14 -12 -3 -20 -14 -20 -25 0 -24 -16 -37 -25 -22 -3 6 4 24 16
42 13 17 17 28 10 24 -8 -5 -17 -3 -22 5 -7 11 -9 10 -9 -5 0 -10 -10 -35 -21
-56 -17 -29 -19 -42 -10 -56 9 -16 10 -16 11 -3 0 23 26 44 35 29 5 -8 11 -5
20 7 7 10 12 21 9 24 -2 3 8 17 23 30 l26 24 -6 -23 c-4 -19 -2 -22 13 -17 17
5 18 3 10 -25 -5 -18 -5 -30 1 -30 5 0 9 8 9 18 0 9 6 24 13 33 16 20 47 32
47 17 0 -7 5 -6 15 2 18 15 19 11 4 -27 l-10 -28 28 25 c15 14 31 30 35 35 4
6 14 19 22 30 16 19 16 19 10 -10 -4 -22 -3 -26 4 -16 9 12 42 25 42 17 0 -14
-34 -65 -40 -61 -5 3 -7 -9 -5 -26 5 -37 -17 -89 -47 -116 -12 -10 -18 -12
-14 -5 4 6 3 12 -2 12 -6 0 -1 17 9 37 23 45 25 75 5 67 -8 -3 -12 -12 -9 -20
3 -8 0 -14 -6 -14 -6 0 -11 -12 -11 -26 0 -19 -7 -28 -30 -37 -18 -7 -30 -19
-30 -29 0 -13 -7 -17 -24 -16 -21 2 -23 5 -14 29 11 32 31 51 48 47 7 -2 15 3
17 10 4 10 -3 13 -23 10 -22 -2 -34 -12 -49 -43 -25 -51 -55 -84 -69 -79 -13
5 -59 -59 -61 -84 0 -10 -4 -24 -9 -32 -4 -8 4 -2 17 14 14 16 23 35 20 42 -2
6 0 15 6 19 6 3 11 -1 11 -9 0 -10 6 -13 17 -9 12 5 15 2 10 -10 -21 -51 -20
-52 8 -27 l29 25 -17 -28 c-10 -15 -15 -27 -11 -27 4 0 2 -6 -4 -13 -9 -10 -4
-13 19 -12 21 0 29 5 29 17 0 10 -4 18 -10 18 -17 0 -11 17 16 49 31 38 47 40
34 6 -13 -34 -4 -32 15 4 8 16 28 35 45 43 16 7 30 16 30 20 0 5 5 8 11 8 6 0
9 -7 5 -15 -4 -13 -2 -13 14 -5 34 18 33 11 -4 -30 -46 -51 -46 -60 1 -24 45
33 54 45 48 61 -2 7 5 17 15 23 11 6 20 8 20 4 0 -3 7 -1 15 6 8 7 13 16 10
20 -5 7 36 23 42 16 2 -2 -5 -14 -15 -27 -10 -13 -17 -36 -17 -51 1 -15 -3
-26 -7 -25 -4 1 -21 -18 -38 -43 -16 -25 -30 -39 -30 -32 0 8 9 27 20 42 14
19 17 31 10 35 -7 4 -14 -2 -17 -13 -3 -13 -11 -18 -19 -15 -8 3 -14 -1 -14
-11 0 -14 -37 -42 -50 -38 -3 1 -13 -5 -22 -13 -10 -8 -18 -12 -18 -8 0 4 -5
2 -12 -5 -15 -15 -32 -16 -23 -2 3 5 2 10 -3 10 -6 0 -12 -6 -15 -13 -7 -18
70 -22 91 -5 12 10 14 10 8 1 -9 -16 70 -18 94 -3 9 6 17 5 22 -3 5 -9 10 -9
20 1 14 14 32 16 23 2 -3 -6 3 -10 14 -10 21 0 39 25 46 62 3 11 12 32 21 46
14 22 18 23 23 10 5 -12 12 -7 31 23 46 75 44 39 -3 -49 -17 -31 -17 -32 0
-21 22 14 68 70 57 68 -21 -4 -24 2 -12 24 13 24 15 29 17 55 1 15 3 15 11 2
9 -13 16 -9 42 20 35 38 20 13 -26 -45 -21 -26 -26 -39 -18 -44 9 -5 8 -12 -3
-27 -17 -22 -19 -34 -6 -34 5 0 14 13 21 29 8 19 19 29 31 28 10 -1 19 -4 19
-8 0 -11 -26 -29 -33 -23 -3 3 -11 -5 -18 -18 -11 -21 -11 -22 4 -9 23 18 21
3 -3 -34 -35 -53 -30 -56 84 -54 l105 1 25 37 c14 20 26 42 26 48 0 14 39 63
51 63 6 0 3 -10 -5 -22 -21 -30 -20 -44 1 -27 17 13 17 13 2 -11 -9 -14 -21
-25 -27 -25 -6 0 -14 -4 -19 -9 -5 -5 -3 -6 5 -2 6 4 12 2 12 -4 0 -7 -6 -10
-14 -7 -8 3 -18 -5 -25 -19 -11 -26 -3 -32 17 -12 9 9 12 9 12 0 0 -17 20 -15
44 5 20 17 20 17 7 1 -13 -17 -6 -18 102 -18 l116 0 30 37 c34 41 39 38 17 -6
-15 -28 -14 -28 15 -29 22 0 35 8 55 34 32 41 47 44 38 7 -3 -16 -2 -23 3 -17
4 6 17 8 28 4 15 -5 23 -1 32 18 16 30 16 35 1 26 -8 -5 -9 -2 -5 10 4 10 7
20 7 22 0 2 4 4 9 4 5 0 12 -11 15 -24 3 -13 15 -26 27 -29 17 -5 20 -11 17
-32 l-5 -26 472 1 c444 1 473 3 478 19 2 10 -2 29 -9 42 -14 24 -14 24 -9 -6
3 -16 2 -24 -1 -17 -3 6 -9 10 -14 7 -4 -3 -7 6 -6 20 0 14 4 25 9 25 4 0 7 8
7 18 1 11 6 7 17 -13 16 -31 34 -47 42 -40 2 3 -4 15 -15 27 -13 15 -7 12 18
-8 39 -30 49 -54 23 -54 -8 0 -15 -4 -15 -10 0 -6 28 -10 64 -10 64 0 64 0 71
32 5 18 9 80 9 138 1 90 4 110 23 140 12 19 33 55 47 80 27 50 64 88 197 205
107 94 293 278 330 326 15 19 36 52 47 75 11 22 28 46 37 54 9 8 25 31 36 52
11 21 24 38 29 38 9 0 22 24 78 152 19 41 21 68 23 265 1 120 6 245 11 278 5
33 11 76 12 95 14 163 20 198 43 245 14 27 30 56 36 64 24 30 37 90 37 181 0
64 6 110 17 140 9 25 20 83 23 130 l5 85 115 6 c63 3 127 10 141 15 41 14 159
129 159 154 0 12 22 45 52 76 l51 54 5 181 c5 177 4 182 -21 237 -13 32 -35
82 -47 112 -78 194 -132 282 -225 365 -36 33 -102 93 -145 133 -43 39 -83 72
-89 72 -6 0 -22 18 -36 40 -14 23 -34 43 -43 46 -9 3 -36 14 -60 25 -23 10
-63 19 -87 19 -42 0 -46 2 -67 43 -15 29 -25 69 -30 127 -3 47 -11 109 -17
138 -6 28 -15 73 -19 100 -4 26 -11 53 -15 60 -9 13 -98 17 -96 5 1 -17 18
-47 18 -34 1 11 4 11 16 1 9 -7 15 -29 15 -52 0 -22 5 -49 11 -60 6 -12 13
-39 15 -60 2 -22 9 -48 14 -59 6 -10 10 -42 9 -71 -2 -70 18 -141 46 -168 12
-11 38 -22 58 -24 20 -2 48 -13 63 -25 16 -13 41 -21 64 -21 29 0 39 -5 47
-23 6 -13 26 -35 43 -48 18 -13 65 -54 103 -91 39 -38 75 -68 79 -68 15 0 108
-92 139 -138 34 -51 102 -182 123 -239 30 -80 54 -140 81 -198 35 -75 37 -130
6 -176 l-23 -34 6 62 c6 61 5 64 -28 96 -19 19 -37 48 -41 65 -3 18 -22 46
-40 64 -32 29 -33 34 -28 80 4 35 2 48 -7 48 -7 0 -10 -7 -7 -15 4 -8 2 -17
-2 -20 -18 -10 -22 30 -5 42 11 8 13 13 5 13 -7 0 -9 4 -6 10 3 5 2 17 -3 26
-8 14 -12 14 -31 -7 -24 -26 -29 -64 -7 -56 10 4 13 1 10 -7 -3 -8 -19 -13
-38 -12 -59 2 -134 89 -136 158 0 34 -53 158 -66 158 -8 0 -11 7 -8 18 5 16 5
16 -9 0 -8 -10 -17 -15 -20 -12 -3 3 -33 -7 -67 -22 -51 -23 -64 -25 -83 -15
-30 16 -120 39 -143 37 -40 -4 -74 -19 -67 -29 4 -6 -2 -8 -16 -4 -14 3 -26
-1 -35 -15 -14 -20 -14 -20 -26 1 -9 17 -8 22 5 27 8 3 12 11 9 16 -4 6 0 15
7 20 11 7 9 8 -5 4 -10 -4 -25 -1 -34 6 -13 11 -14 10 -10 -2 6 -19 -15 -40
-39 -40 -10 0 -23 -10 -28 -22 -7 -17 -18 -23 -41 -23 -17 0 -30 -4 -28 -10 3
-6 -15 -10 -43 -9 -27 1 -58 -5 -71 -13 -12 -8 -27 -11 -32 -8 -5 3 -11 1 -15
-5 -6 -9 7 -14 28 -11 4 0 7 -3 7 -8 0 -5 -14 -13 -31 -16 -18 -4 -28 -10 -23
-14 13 -9 18 -44 5 -36 -6 3 -11 1 -11 -5 0 -6 -10 -15 -22 -20 -19 -7 -19 -9
-5 -9 10 -1 16 -5 13 -10 -7 -11 49 -25 63 -17 5 4 12 2 16 -4 7 -11 -5 -13
-42 -10 -13 1 -23 -3 -23 -9 0 -6 3 -10 8 -10 34 6 58 -3 59 -22 1 -14 -3 -19
-13 -15 -11 4 -11 0 3 -20 13 -21 14 -27 3 -34 -9 -6 -3 -10 22 -15 29 -6 36
-11 36 -31 0 -13 -5 -24 -10 -24 -5 0 -7 -4 -4 -9 9 -14 -20 -32 -40 -24 -18
7 -18 6 -1 -11 10 -10 24 -15 32 -12 9 3 12 0 8 -10 -4 -11 2 -14 28 -12 19 1
37 6 40 11 4 5 9 5 13 -1 3 -6 -9 -16 -29 -23 -19 -7 -35 -16 -35 -21 0 -4 7
-5 16 -1 11 4 15 2 13 -6 -7 -19 -22 -16 -34 5 -15 28 -27 35 -52 31 -24 -4
-32 8 -10 16 6 3 2 6 -9 6 -12 1 -25 8 -28 17 -8 22 -8 22 17 27 19 4 19 4 -5
6 -34 1 -41 -18 -15 -46 l20 -23 -23 0 c-23 0 -23 0 -4 -15 10 -8 13 -14 6
-13 -18 4 -33 -35 -21 -53 7 -11 9 -9 9 8 0 30 33 48 50 28 10 -13 8 -15 -14
-15 -16 0 -25 -4 -21 -10 4 -6 16 -8 28 -4 49 15 52 16 35 4 -10 -6 -18 -18
-18 -25 0 -8 -5 -15 -11 -15 -6 0 -9 6 -6 14 5 11 0 12 -24 3 -16 -6 -29 -17
-29 -24 0 -7 -7 -10 -15 -7 -18 7 -20 -7 -3 -24 10 -10 8 -12 -7 -9 -11 1 -26
6 -33 11 -11 7 -11 4 -1 -12 7 -12 18 -18 24 -14 5 3 4 -2 -4 -12 -10 -12 -22
-15 -41 -11 -20 4 -29 2 -34 -11 -8 -21 -1 -29 15 -18 8 4 27 9 44 11 24 2 32
-2 42 -23 12 -26 12 -26 -8 -8 -19 17 -20 17 -13 -1 6 -15 4 -17 -10 -12 -10
4 -22 7 -27 7 -6 0 -7 5 -4 10 3 6 -1 10 -9 10 -9 0 -15 -3 -14 -7 1 -5 -4
-19 -11 -32 l-13 -23 -31 28 c-17 16 -25 21 -18 12 7 -10 10 -18 6 -18 -5 0 0
-9 10 -20 10 -11 15 -28 12 -40 -3 -11 -1 -20 4 -20 5 0 9 -7 9 -15 0 -8 -7
-15 -15 -15 -8 0 -15 4 -15 8 0 4 -13 13 -30 19 -28 11 -29 10 -19 -9 10 -19
9 -20 -15 -16 -14 3 -26 1 -26 -5 0 -5 -13 -7 -30 -4 -19 4 -29 3 -27 -5 1 -6
-4 -13 -11 -15 -7 -3 -10 1 -6 10 4 12 0 14 -16 10 -15 -4 -26 0 -32 11 -6 11
-18 15 -35 11 -15 -2 -32 0 -39 6 -8 6 -13 5 -18 -6 -3 -8 -1 -15 4 -15 6 0
10 -6 10 -14 0 -8 5 -18 12 -22 7 -5 8 -3 3 6 -6 10 -4 11 11 5 10 -5 31 -8
45 -8 26 0 26 0 6 -20 -17 -17 -17 -21 -5 -33 17 -17 49 -9 42 10 -4 10 13 15
63 19 37 3 69 10 71 15 1 5 12 8 23 5 13 -4 18 -11 14 -21 -4 -10 0 -13 15 -9
16 4 18 2 10 -13 -7 -13 -6 -21 2 -26 6 -4 14 -2 16 4 6 19 16 15 62 -28 24
-22 38 -40 32 -40 -6 0 -14 5 -17 10 -5 8 -11 8 -20 0 -8 -7 -15 -7 -19 -1 -4
5 -17 8 -31 5 -16 -3 -33 4 -51 21 -15 14 -32 25 -38 24 -6 0 -1 -7 11 -15 20
-15 22 -51 2 -38 -5 3 -7 8 -5 12 2 4 -6 7 -19 7 -13 0 -21 -3 -18 -7 2 -5 -5
-8 -16 -8 -12 0 -21 4 -21 9 0 5 -10 8 -23 7 -32 -4 -53 19 -29 34 14 9 11 10
-13 5 -40 -9 -42 -12 -19 -31 10 -8 14 -13 8 -10 -16 8 -86 -22 -79 -34 3 -5
1 -11 -4 -14 -14 -9 -21 20 -8 34 7 7 1 6 -13 -3 -27 -19 -65 -23 -55 -7 3 6
1 10 -4 10 -6 0 -11 -7 -11 -15 0 -8 -8 -15 -18 -15 -24 0 -42 -19 -35 -37 5
-13 3 -13 -16 -2 -25 16 -27 29 -4 29 15 0 15 1 -2 13 -12 9 -15 19 -10 28 5
8 4 11 -1 6 -14 -13 -13 -68 2 -74 7 -2 10 -11 7 -19 -3 -9 -11 -13 -17 -11
-20 8 -56 -11 -50 -27 3 -9 12 -12 21 -9 11 4 14 2 9 -5 -5 -8 -2 -10 9 -5 12
4 13 8 5 13 -20 12 25 27 98 32 30 2 32 4 15 15 -13 10 -15 17 -7 30 6 9 17
19 25 21 8 2 5 -3 -6 -12 -19 -16 -20 -16 -1 -31 12 -9 29 -12 49 -8 27 5 30
4 23 -13 -6 -16 -4 -16 14 4 11 12 23 22 25 22 10 0 4 -19 -11 -34 -8 -9 -11
-16 -6 -16 5 0 18 12 28 27 10 16 19 23 22 15 2 -6 -3 -19 -12 -28 -12 -11
-13 -20 -6 -34 13 -25 13 -27 -6 -34 -8 -3 -13 -2 -10 3 3 5 -4 11 -17 15 -37
10 -41 7 -21 -16 10 -12 13 -18 7 -14 -7 4 -21 2 -30 -3 -17 -10 -17 -10 0
-11 11 0 15 -4 11 -12 -4 -6 3 -4 17 5 25 18 40 22 38 10 -4 -22 3 -33 19 -33
14 0 14 -2 3 -9 -10 -6 -19 -3 -31 12 -12 14 -19 17 -24 9 -4 -7 -1 -12 6 -12
8 -1 6 -6 -6 -15 -26 -19 -40 -19 -32 1 4 10 2 13 -7 7 -13 -8 -27 -12 -71
-19 -28 -4 -29 -4 -11 16 10 11 14 21 9 21 -69 9 -74 8 -84 -11 -13 -24 -7
-26 14 -4 13 12 16 12 16 2 0 -8 -5 -19 -12 -26 -9 -9 -8 -12 6 -12 13 0 16
-5 11 -17 -4 -10 -8 -23 -8 -28 0 -6 -9 -12 -20 -12 -11 -1 -25 -7 -31 -14 -8
-8 -5 -9 14 -4 l25 7 -25 -28 c-14 -16 -18 -23 -10 -16 22 19 29 14 17 -13 -7
-13 -19 -26 -27 -29 -9 -2 -6 -4 7 -5 13 -1 24 6 28 18 3 10 15 21 25 24 11 3
20 11 20 19 0 10 -3 9 -10 -2 -5 -8 -10 -11 -10 -7 0 12 72 87 83 87 4 0 6 -4
3 -9 -3 -5 3 -11 14 -14 10 -3 21 0 22 5 2 6 17 12 33 14 22 2 26 1 15 -6 -26
-16 11 -12 40 5 29 16 50 19 50 6 0 -9 -38 -24 -54 -22 -11 2 -46 -29 -46 -42
0 -5 7 -4 15 3 9 7 17 11 19 9 2 -2 -10 -15 -27 -29 -17 -14 -28 -20 -24 -13
5 8 1 11 -13 10 -10 -1 -22 -7 -24 -13 -3 -7 -15 -18 -28 -25 -23 -12 -23 -11
2 16 l25 28 -27 -18 c-16 -9 -28 -14 -28 -11 0 4 -10 0 -23 -9 -13 -8 -26 -13
-29 -10 -2 3 -5 -1 -6 -8 -8 -62 -27 -101 -47 -93 -9 3 -12 0 -9 -8 3 -7 -2
-16 -10 -19 -9 -4 -16 -12 -16 -19 0 -8 3 -9 11 -1 14 14 59 4 67 -16 3 -9 10
-19 16 -24 13 -9 -22 -39 -36 -31 -4 3 -16 -8 -26 -25 -9 -17 -21 -31 -25 -31
-5 0 -6 -4 -2 -9 3 -5 1 -12 -5 -16 -17 -10 -11 -24 9 -22 14 1 17 5 10 13 -7
8 -2 21 15 40 14 16 26 24 26 17 0 -6 -4 -15 -10 -18 -15 -10 -12 -25 6 -25
20 0 41 -21 38 -38 -1 -7 0 -8 3 -2 8 16 23 12 17 -5 -4 -8 -1 -15 4 -15 6 0
14 10 18 22 4 13 13 27 19 33 20 15 30 58 14 53 -8 -3 -14 -11 -14 -19 0 -22
-46 -50 -62 -37 -9 7 -10 14 -3 23 5 6 6 15 2 19 -4 4 2 14 12 22 11 8 14 14
7 14 -7 0 -9 5 -6 10 3 6 13 10 21 10 8 0 13 -4 9 -9 -9 -16 39 -9 59 8 10 9
22 26 26 37 5 12 20 24 37 27 l28 5 -30 -26 c-17 -14 -29 -30 -27 -35 2 -5 -5
-19 -15 -30 -18 -21 -18 -21 7 -4 14 10 25 21 26 25 4 34 34 57 34 26 0 -14 1
-14 16 0 25 25 41 18 35 -16 0 -5 3 -8 8 -8 5 0 9 -13 9 -30 -1 -18 -6 -30
-15 -30 -11 0 -11 4 -2 22 12 23 12 23 -10 4 -11 -11 -21 -25 -21 -33 0 -7 -7
-16 -15 -19 -8 -4 -13 -10 -10 -14 3 -5 1 -20 -5 -34 -9 -25 -8 -26 10 -16 11
6 20 14 20 19 0 9 46 61 55 61 3 0 1 -9 -5 -20 -8 -14 -8 -20 0 -20 7 0 10 -6
7 -12 -2 -7 -11 -12 -20 -10 -8 1 -28 -9 -43 -23 -18 -17 -22 -25 -12 -25 9 0
21 7 28 15 15 18 34 20 24 3 -4 -7 3 -4 15 7 13 11 20 27 18 37 -3 10 0 21 5
25 7 3 8 1 4 -5 -4 -7 -3 -12 3 -12 5 0 13 5 16 10 3 6 16 10 28 10 18 0 16
-4 -13 -25 -50 -37 -80 -99 -56 -116 14 -11 -1 -39 -21 -39 -16 0 -16 1 1 13
16 11 15 13 -8 15 -14 1 -25 -2 -25 -6 3 -19 -3 -56 -8 -44 -2 6 -11 12 -19
12 -8 0 -13 3 -12 8 4 9 -5 12 -32 12 -11 0 -20 -5 -20 -11 0 -6 8 -9 18 -7 9
3 26 -4 36 -14 11 -10 14 -18 8 -18 -6 0 -14 5 -17 10 -3 6 -13 10 -21 10 -8
0 -12 -4 -9 -10 5 -9 -7 -14 -27 -12 -3 1 -12 -5 -18 -13 -7 -8 -17 -15 -22
-15 -6 0 -5 7 2 15 21 25 6 27 -50 5 -39 -15 -55 -18 -60 -9 -4 6 -13 8 -19 5
-6 -4 -11 -2 -11 3 0 6 5 11 11 11 5 0 7 5 4 10 -3 6 -1 10 5 10 6 0 10 8 8
18 -2 11 3 26 10 35 8 9 12 22 10 28 -2 7 -14 -3 -26 -23 -34 -55 -51 -66 -67
-45 -8 12 -15 14 -20 8 -9 -16 -28 -13 -22 3 4 9 -1 16 -11 19 -14 3 -13 6 6
13 13 6 23 14 22 19 -1 5 4 11 10 13 9 3 9 -1 1 -16 -16 -29 -14 -34 9 -22 14
7 20 7 20 0 0 -5 5 -10 10 -10 6 0 9 5 8 12 -2 7 4 12 12 13 17 0 21 24 7 43
-7 8 -4 12 8 12 11 0 15 5 11 15 -3 8 -1 15 4 15 6 0 10 8 10 18 -1 15 -3 14
-18 -4 -14 -16 -26 -20 -50 -16 -30 4 -46 22 -20 22 6 0 8 3 5 7 -4 3 -2 12 4
19 18 22 -33 12 -55 -10 -13 -13 -21 -16 -24 -8 -2 8 -16 3 -40 -13 -20 -14
-38 -21 -40 -15 -2 5 -15 7 -28 4 -20 -5 -23 -3 -18 12 6 15 4 17 -6 7 -10
-10 -11 -15 -1 -27 10 -12 8 -18 -12 -31 -16 -10 -23 -22 -20 -34 3 -11 -2
-21 -12 -25 -9 -3 -13 -2 -10 4 10 17 0 11 -18 -10 -17 -20 -16 -20 10 -15 16
3 22 2 15 -1 -6 -3 -10 -10 -7 -15 8 -12 -63 -42 -105 -44 -19 -1 -36 -7 -38
-14 -2 -6 -8 -11 -14 -11 -7 0 -7 5 1 13 6 8 8 16 5 19 -2 3 2 8 11 12 9 3 13
2 10 -4 -3 -6 -2 -10 4 -10 10 0 33 35 37 56 1 6 -3 18 -8 25 -8 12 -9 12 -6
-1 6 -20 -24 -53 -34 -37 -6 9 -12 9 -28 -1 -18 -11 -20 -10 -20 11 0 14 14
36 35 55 39 36 55 40 55 15 0 -11 3 -14 8 -7 4 6 18 17 32 24 l24 13 -22 8
c-12 5 -30 5 -40 2 -15 -6 -14 -3 3 18 12 14 14 19 4 11 -9 -7 -23 -11 -30 -9
-8 2 -10 2 -6 -1 10 -5 -12 -32 -25 -32 -6 0 -4 7 3 16 12 15 11 16 -10 9 -16
-5 -21 -4 -17 4 4 6 15 11 24 11 13 0 13 2 -4 16 -18 15 -18 15 2 5 22 -11 74
5 74 22 0 4 -9 3 -19 -3 -27 -14 -41 -13 -41 5 0 9 11 21 25 27 23 10 23 12 7
24 -24 19 -29 17 -28 -8 1 -24 -24 -32 -32 -10 -2 6 3 12 11 12 10 0 13 7 10
20 -4 16 0 20 17 20 16 0 20 4 16 15 -3 10 1 15 14 15 10 0 22 5 26 12 5 7 2
9 -9 5 -25 -10 -10 16 21 36 20 12 22 17 10 17 -10 0 -18 -4 -18 -10 0 -5 -9
-10 -20 -10 -12 0 -32 -12 -45 -26 -13 -14 -29 -23 -34 -19 -17 10 -13 23 8
30 20 6 36 45 19 45 -5 0 -6 5 -3 10 3 6 11 10 17 10 6 0 8 -3 5 -7 -4 -3 -2
-12 4 -19 17 -20 48 0 45 29 -3 31 -15 49 -28 41 -7 -4 -7 2 -2 17 4 13 7 32
6 41 0 10 9 25 21 34 14 9 16 15 7 13 -28 -3 -41 1 -35 11 8 13 37 1 56 -23
15 -18 46 -16 34 3 -3 4 2 11 11 14 8 3 12 10 9 16 -3 5 3 10 15 10 11 0 23 7
26 15 4 8 10 13 14 10 5 -3 12 0 16 6 5 8 3 9 -7 4 -8 -5 6 12 30 38 25 26 48
42 51 37 3 -5 22 5 41 23 l36 34 -29 0 c-27 0 -32 -7 -29 -34 1 -7 -2 -13 -8
-13 -5 0 -12 6 -14 13 -4 9 -6 9 -6 0 -1 -7 -6 -13 -12 -13 -5 0 -7 5 -4 10 3
6 -1 10 -11 10 -14 0 -14 -2 -3 -16 12 -14 9 -20 -16 -40 l-30 -24 -12 27 c-7
18 -8 30 -1 34 5 3 0 9 -12 12 -12 3 -19 3 -16 0 9 -10 -14 -32 -28 -27 -7 3
-21 -4 -31 -16 -10 -11 -27 -20 -37 -20 -17 0 -15 3 9 24 15 13 38 26 50 30
11 4 24 13 27 21 4 11 10 11 30 2 14 -7 26 -16 26 -21 0 -5 9 -1 20 9 14 13
18 25 14 39 -6 19 -5 19 10 7 15 -13 19 -13 27 0 5 8 9 9 9 3 0 -14 62 -5 72
10 12 17 9 56 -3 56 -6 0 -8 -9 -4 -22 6 -16 4 -20 -9 -15 -8 3 -18 2 -21 -3
-4 -6 -11 -10 -16 -10 -6 0 -8 4 -5 9 3 5 -1 11 -9 15 -8 3 -14 0 -12 -6 1 -7
-7 -14 -18 -16 -16 -4 -17 -2 -7 11 10 12 9 16 -4 21 -9 4 -14 12 -10 21 5 13
2 14 -17 4 -12 -7 -28 -21 -35 -31 -8 -10 -18 -15 -25 -11 -7 4 -21 6 -32 5
-18 -3 -18 -2 4 14 19 14 25 14 32 3 13 -20 11 -1 -2 23 -11 20 -12 19 -40
-11 -16 -18 -29 -33 -29 -34 0 -2 10 -3 21 -4 29 -3 34 -10 19 -28 -8 -10 -17
-12 -24 -6 -13 11 -54 -21 -81 -62 -25 -39 -9 -33 36 14 21 22 43 38 47 35 5
-3 18 4 30 14 29 28 50 25 50 -5 0 -14 -4 -25 -9 -25 -5 0 -9 5 -9 10 0 15
-36 12 -50 -5 -7 -8 -9 -15 -4 -15 5 0 -5 -7 -22 -16 -18 -8 -41 -24 -52 -35
-12 -10 -29 -19 -38 -19 -10 0 -14 -3 -11 -7 4 -3 -1 -15 -10 -26 -17 -19 -17
-20 1 -10 12 7 25 7 40 0 21 -10 21 -10 -6 -38 -27 -26 -39 -57 -18 -44 5 3 3
-9 -5 -27 -10 -26 -18 -32 -36 -30 -20 4 -21 2 -9 -12 7 -10 19 -15 27 -12 17
7 16 -4 -2 -28 -8 -10 -13 -22 -10 -25 2 -4 -5 -8 -16 -8 -17 -2 -18 1 -9 13
7 8 9 14 5 14 -4 0 -2 6 4 13 14 18 2 30 -16 16 -10 -9 -13 -7 -13 9 0 11 7
25 16 32 19 17 41 56 25 46 -23 -15 -10 12 19 37 17 15 30 32 30 39 0 6 -11
-1 -25 -16 -23 -25 -26 -26 -49 -11 -23 15 -25 15 -29 -2 -4 -17 -5 -17 -6 1
-1 18 -2 18 -21 1 -11 -10 -17 -21 -15 -26 3 -4 0 -11 -6 -14 -6 -4 -13 2 -16
13 -3 14 -10 19 -21 15 -13 -5 -11 0 6 19 24 26 28 38 12 38 -5 0 -10 -6 -10
-14 0 -7 -7 -19 -15 -26 -12 -10 -13 -16 -4 -26 9 -11 8 -14 -6 -14 -13 0 -16
6 -11 25 4 14 2 25 -4 25 -9 0 -15 -31 -10 -55 1 -5 -2 -7 -6 -2 -4 4 -16 0
-26 -9 -13 -13 -21 -14 -32 -5 -13 11 -49 5 -42 -8 2 -3 0 -15 -5 -26 -5 -15
-8 -16 -8 -4 -1 9 -9 23 -19 32 -16 15 -21 15 -46 2 -15 -8 -37 -26 -48 -40
-25 -32 -38 -32 -38 0 0 14 6 25 13 25 7 0 25 13 40 28 25 26 32 28 85 24 31
-2 63 -9 70 -15 9 -7 17 -6 29 6 12 12 17 41 20 118 3 96 5 103 33 136 17 18
30 38 30 42 0 5 14 14 30 20 17 5 44 20 60 31 19 14 31 17 35 9 5 -6 14 1 25
19 11 17 36 36 61 46 24 10 54 27 66 38 16 15 26 17 39 10 17 -10 54 -5 54 7
0 4 -6 13 -12 20 -10 11 -10 14 0 18 6 3 12 11 12 18 0 17 36 38 50 30 5 -3 7
0 5 8 -6 13 30 67 43 66 20 -3 23 3 11 18 -12 15 -12 16 4 10 11 -4 16 -3 12
3 -4 6 16 40 44 75 28 36 51 69 51 73 0 5 8 20 19 33 43 55 94 168 107 237 1
8 10 22 19 32 9 10 20 33 25 52 10 42 38 121 61 173 32 72 49 120 53 149 6 33
36 68 86 101 53 35 161 146 193 199 38 61 102 192 115 236 6 19 11 49 10 66
-1 33 25 79 53 95 11 5 19 17 19 25 0 8 7 28 15 44 l16 30 -41 0 c-33 0 -40
-3 -40 -20z m474 -956 c5 -13 9 -14 22 -3 12 10 18 9 32 -6 12 -12 13 -19 5
-22 -21 -8 7 -54 29 -47 12 3 18 0 18 -9 0 -17 -24 -17 -42 1 -9 9 -15 9 -25
0 -10 -8 -17 -7 -27 7 -12 17 -13 17 -13 -1 0 -11 9 -30 20 -44 13 -16 18 -19
14 -7 -6 15 -3 17 16 11 12 -3 22 -7 23 -8 8 -16 45 -56 41 -43 -7 18 8 24 18
7 4 -6 10 -8 15 -5 4 3 10 -2 14 -10 4 -11 -1 -15 -18 -15 -15 0 -23 -6 -23
-17 0 -23 26 -42 47 -35 8 3 12 2 9 -2 -13 -14 -59 -17 -57 -4 2 9 -6 12 -24
10 -14 -1 -30 3 -34 9 -4 8 0 9 16 4 16 -5 20 -4 15 5 -4 7 -22 10 -40 8 -19
-2 -32 -1 -29 3 8 14 -50 27 -68 15 -14 -8 -21 -7 -34 6 -16 16 -16 17 2 12
11 -3 30 -1 43 3 20 8 21 10 7 22 -11 9 -16 10 -16 2 0 -19 -45 -12 -64 10
-17 21 -17 22 0 38 17 15 17 15 5 -1 -9 -13 -10 -18 -2 -18 6 0 16 11 21 25 5
14 14 25 19 25 14 0 21 -28 8 -34 -8 -3 -8 -5 -1 -5 6 -1 19 8 28 18 19 21 10
33 -27 35 -34 2 -32 26 2 26 17 0 31 5 31 10 0 6 -7 10 -15 10 -8 0 -15 4 -15
10 0 5 7 7 15 4 8 -4 15 -1 15 5 0 17 17 13 24 -5z m211 -404 c26 -10 28 -27
10 -73 -5 -11 5 -5 24 14 18 17 35 28 39 24 4 -4 -3 -15 -15 -25 -13 -10 -23
-23 -23 -29 0 -16 87 -14 93 2 2 6 4 0 4 -15 0 -23 -2 -26 -18 -18 -10 6 -34
10 -55 10 -31 0 -35 -2 -24 -15 7 -8 10 -22 6 -30 -3 -10 1 -15 12 -15 29 -1
-7 -17 -55 -25 -43 -7 -61 -19 -44 -29 5 -4 33 3 61 14 55 22 117 28 90 9 -12
-8 -9 -9 12 -5 14 3 33 9 42 12 9 3 16 2 16 -4 0 -5 -11 -13 -25 -16 -14 -4
-24 -10 -21 -15 3 -4 -15 -17 -39 -29 -25 -12 -45 -28 -45 -36 0 -7 22 -24 50
-38 l49 -24 12 30 c16 40 40 78 46 72 3 -2 -3 -15 -12 -29 -10 -15 -14 -34
-10 -49 6 -23 10 -24 45 -18 26 5 41 3 43 -4 2 -6 8 -8 12 -4 11 11 -14 38
-30 32 -7 -3 -16 -1 -20 5 -3 7 2 11 14 11 14 0 21 6 21 19 0 14 5 18 20 14
12 -3 29 2 40 12 10 9 23 15 27 12 5 -3 15 4 22 15 12 19 11 20 -8 15 -27 -7
-27 9 -1 23 21 11 27 44 10 55 -19 12 -10 25 19 25 47 0 109 -93 86 -130 -13
-20 13 -9 28 13 16 22 16 21 16 -17 1 -32 -7 -48 -44 -92 -28 -32 -45 -62 -45
-78 0 -16 -10 -32 -26 -43 -14 -10 -41 -34 -60 -53 -38 -38 -86 -49 -235 -53
-104 -3 -113 -11 -105 -100 3 -38 2 -76 -3 -85 -5 -9 -11 -31 -14 -48 -3 -17
-9 -40 -15 -50 -5 -11 -9 -65 -9 -121 0 -80 -4 -108 -17 -125 -9 -13 -26 -38
-37 -55 -18 -28 -24 -31 -41 -22 -15 8 -17 13 -8 19 21 13 1 30 -31 26 -30 -3
-49 9 -27 17 10 3 10 8 -1 18 -12 12 -13 12 -6 -1 5 -8 4 -11 0 -7 -21 18 -13
37 16 37 16 0 29 5 29 10 0 6 -11 10 -24 10 -14 0 -28 5 -31 10 -3 6 -18 10
-33 11 -15 0 -21 3 -13 6 11 4 8 10 -10 24 l-24 19 38 0 c20 0 37 -4 37 -10 0
-5 -6 -10 -12 -10 -7 0 -5 -5 5 -11 22 -13 59 -3 38 10 -10 6 -9 10 4 15 19 7
11 26 -11 26 -11 0 -86 51 -114 77 -14 13 59 -13 79 -29 29 -22 70 -26 52 -4
-6 8 -10 20 -9 27 2 9 -7 12 -29 10 -31 -2 -33 0 -33 28 0 21 -6 31 -21 36
-16 5 -18 9 -9 15 7 5 20 6 29 2 12 -4 12 0 -4 19 -11 13 -26 28 -32 32 -20
12 -15 27 7 27 26 0 26 17 1 25 -22 7 -25 44 -4 60 7 6 14 22 17 36 2 15 12
41 21 59 9 17 14 34 11 37 -8 9 -54 -91 -48 -107 3 -8 1 -12 -3 -8 -8 7 -45
-63 -60 -113 -6 -21 -93 -207 -102 -218 -2 -2 -5 -2 -8 1 -3 3 8 30 24 60 16
30 44 93 61 139 57 154 108 255 151 304 15 16 49 95 49 111 0 2 -8 4 -17 4
-13 0 -14 3 -5 12 17 17 15 31 -3 24 -8 -3 -15 -1 -15 4 0 16 -15 12 -44 -11
-21 -17 -25 -24 -14 -30 7 -5 9 -9 4 -9 -5 0 -1 -9 9 -20 18 -19 17 -20 -2
-20 -11 0 -26 7 -33 15 -11 13 -10 14 4 9 12 -5 15 -2 10 10 -9 25 -19 20 -68
-35 -89 -100 -155 -253 -142 -334 4 -20 2 -35 -4 -35 -6 0 -10 10 -11 23 0 17
-3 14 -13 -13 -22 -60 -29 -100 -16 -100 6 0 8 5 4 12 -4 7 -3 8 4 4 17 -10
15 -26 -3 -26 -8 0 -21 -15 -29 -32 l-15 -33 6 50 c3 28 9 55 14 60 10 13 25
70 54 207 12 59 34 131 48 160 31 62 113 149 175 185 28 17 40 29 33 36 -5 5
-7 16 -4 23 3 8 0 20 -6 28 -9 11 -8 14 6 12 28 -2 23 37 -7 51 -24 11 -23 11
20 13 25 1 48 2 53 1 4 0 7 4 7 10 0 7 8 18 18 25 11 9 13 13 4 14 -10 0 -10
4 2 16 9 9 24 13 35 9 11 -3 25 0 33 9 15 18 37 20 73 6z m-392 -1283 c-4 12
4 9 21 -9 15 -16 31 -28 37 -28 6 0 8 -4 4 -9 -3 -5 9 -20 26 -34 23 -18 41
-23 67 -21 53 5 82 -13 82 -49 0 -24 -3 -28 -17 -22 -10 4 -26 10 -35 12 -10
3 -18 11 -18 18 0 7 -14 15 -32 19 -37 7 -50 0 -20 -11 11 -5 21 -10 21 -13
-1 -33 35 -57 57 -39 13 10 34 5 34 -9 -1 -23 -18 -34 -38 -23 -14 7 -23 8
-27 1 -4 -6 7 -13 24 -16 l31 -6 1 -169 c1 -93 2 -206 3 -251 1 -46 -4 -100
-11 -121 -22 -63 -83 -178 -98 -183 -8 -3 -17 -14 -20 -25 -4 -10 -12 -25 -19
-32 -8 -7 -24 -33 -36 -57 -12 -23 -26 -48 -31 -54 -13 -16 -55 -76 -80 -114
-12 -18 -35 -40 -53 -49 -17 -8 -57 -40 -88 -69 -31 -30 -61 -54 -67 -54 -5 0
-12 -9 -16 -19 -3 -11 -14 -23 -24 -26 -10 -3 -35 -23 -56 -44 -29 -29 -44
-37 -63 -33 -16 3 -23 1 -18 -6 8 -14 -3 -42 -18 -42 -13 0 -48 -43 -59 -72
-3 -10 -11 -18 -17 -18 -5 0 -10 -4 -10 -9 0 -7 -42 -83 -67 -120 -1 -2 -8 1
-16 7 -10 9 -12 4 -9 -25 3 -26 1 -34 -7 -28 -7 4 -10 13 -7 20 3 8 -2 19 -10
26 -8 7 -12 19 -9 28 4 9 9 36 12 62 4 34 1 48 -11 58 -9 8 -16 21 -15 30 0
10 2 12 6 3 2 -6 9 -10 13 -7 5 3 0 26 -10 50 -11 25 -16 45 -12 45 9 0 37
-69 36 -87 -1 -6 9 -13 22 -16 14 -2 21 0 17 6 -3 5 0 8 8 5 18 -6 53 38 45
57 -3 8 0 15 6 15 7 0 6 5 -2 15 -10 12 -10 15 0 15 7 0 10 7 6 16 -5 13 0 14
30 9 32 -5 35 -3 24 10 -11 13 -10 14 6 9 16 -6 16 -4 -4 18 -17 19 -20 27
-10 31 10 4 10 8 -2 16 -8 6 -11 11 -6 11 5 0 3 7 -4 15 -19 23 1 18 27 -7 13
-12 26 -19 29 -15 4 4 -4 15 -17 26 l-24 20 29 1 c16 0 38 -7 48 -17 24 -21
34 -10 20 21 -10 22 -9 24 6 20 9 -3 4 6 -13 20 -16 14 -34 26 -40 27 -5 0 -1
4 10 8 23 9 47 3 39 -10 -9 -15 13 -10 26 6 7 8 19 15 27 15 12 0 13 3 4 14
-9 11 -8 15 4 20 14 5 14 10 -5 36 l-21 30 23 1 c22 1 20 2 -21 15 -24 8 -4
15 23 8 14 -3 26 -12 26 -19 0 -7 10 -15 23 -18 21 -6 21 -6 3 8 -19 15 -19
15 5 16 15 0 18 3 9 6 -8 3 -26 15 -40 26 l-25 20 50 -6 c28 -4 44 -4 37 -1
-13 6 -37 52 -34 65 1 4 -6 5 -16 2 -9 -2 -26 3 -37 11 -19 14 -17 15 20 10
38 -4 39 -4 22 13 -14 14 -19 15 -26 5 -7 -11 -11 -10 -25 3 -19 20 -21 35 -3
35 13 1 -21 23 -38 26 -44 6 -69 28 -43 36 24 8 173 -3 183 -14 7 -7 0 -9 -23
-6 -19 3 -29 1 -24 -4 5 -5 27 -11 48 -14 56 -7 63 -21 10 -19 -36 1 -43 -2
-34 -12 12 -15 38 -17 38 -3 0 6 9 6 26 0 34 -13 31 -15 52 29 18 37 18 39 1
62 -21 27 -24 49 -8 49 6 0 9 -6 6 -13 -3 -7 2 -13 12 -13 9 0 27 -4 41 -8 24
-8 24 -8 5 8 -19 15 -19 15 15 16 29 0 32 2 18 11 -10 5 -18 19 -18 29 0 14 5
18 18 15 9 -3 6 0 -8 7 -18 9 -24 20 -22 36 2 14 -2 22 -12 22 -10 0 -13 6
-10 15 4 10 0 15 -14 15 -12 0 -24 5 -27 10 -9 15 46 1 66 -17 17 -14 49 -8
49 9 0 5 5 6 12 2 6 -4 8 -3 5 4 -8 12 -47 4 -47 -10 0 -6 -7 -5 -15 2 -21 17
-19 33 3 26 9 -3 4 5 -13 19 -22 18 -25 25 -13 25 9 0 20 -4 23 -10 3 -5 17
-9 30 -8 30 3 22 18 -10 18 -13 0 -27 5 -30 10 -3 6 -15 10 -26 10 -10 0 -19
4 -19 9 0 11 54 4 118 -15 23 -6 42 -8 42 -3 0 5 -6 9 -14 9 -7 0 -20 7 -27
16 -12 15 -11 16 11 11 21 -6 20 -4 -5 8 -16 8 -41 14 -55 14 -43 -2 -46 4 -6
10 22 3 41 12 44 20 3 8 0 11 -7 7 -6 -4 -11 -5 -11 -2 0 2 -3 11 -6 20 -4 11
0 16 12 17 11 1 6 5 -11 9 l-30 8 31 1 c16 0 39 -6 50 -14 18 -14 18 -14 -5
-15 -29 0 -23 -10 10 -15 43 -6 69 -17 69 -28 0 -18 51 -57 74 -56 19 0 19 1
-4 11 -23 9 -24 11 -6 17 14 5 16 10 8 15 -17 10 -15 26 3 20 11 -5 13 -2 9
10 -3 9 -10 16 -15 16 -5 0 -8 6 -7 13 2 8 -13 12 -50 12 -60 0 -68 10 -17 19
35 7 83 -10 113 -40 7 -8 21 -14 30 -14 14 1 13 4 -6 20 -15 12 -21 26 -18 37
7 20 -36 73 -59 73 -7 0 -15 5 -17 11 -2 6 -17 9 -33 7 l-30 -4 25 -11 c14 -7
20 -12 13 -12 -14 -1 -80 34 -98 53 -10 10 -1 12 44 10 31 -1 64 -5 74 -9 9
-4 17 -3 17 2 0 5 -16 15 -35 22 -19 7 -35 17 -35 22 0 5 -10 9 -22 9 -36 0 0
20 37 20 25 1 27 2 13 11 -21 12 -99 -23 -79 -35 17 -11 13 -26 -6 -26 -9 0
-14 3 -10 6 3 3 -3 15 -13 27 -11 11 -17 23 -15 27 3 5 -2 11 -11 14 -10 4
-13 2 -8 -6 5 -8 -1 -9 -20 -4 -14 3 -36 2 -47 -5 -11 -6 -22 -9 -24 -7 -9 8
12 28 33 31 34 5 36 14 8 32 -42 28 -20 35 41 14 31 -10 58 -17 60 -15 3 2 -5
7 -16 11 -12 3 -21 13 -21 21 0 8 5 12 10 9 6 -3 10 -1 10 5 0 7 8 9 23 4 22
-7 22 -6 3 15 -16 17 -16 21 -4 21 9 0 21 -7 28 -15 7 -8 17 -15 23 -15 5 0
-2 9 -17 21 -32 25 -34 39 -4 31 21 -5 21 -4 -4 29 -14 19 -24 39 -21 46 2 6
-1 14 -6 18 -6 3 -11 11 -11 17 0 6 11 3 25 -6 23 -15 24 -15 18 1z m-840
-312 c-3 -11 2 -15 18 -15 21 -1 19 -3 -11 -16 l-35 -16 35 -13 c19 -7 41 -10
49 -7 9 3 12 1 7 -6 -4 -7 -3 -12 3 -12 5 0 12 5 14 10 3 6 4 5 3 -2 -3 -15
-46 -20 -46 -6 0 5 -5 6 -11 2 -6 -4 -39 -8 -73 -10 -99 -6 -111 -8 -111 -23
0 -8 -6 -16 -14 -19 -8 -3 -11 0 -7 7 5 7 1 9 -9 5 -11 -5 -14 -2 -9 10 3 9
14 16 23 16 14 0 14 2 1 10 -13 9 -13 12 3 21 25 15 11 30 -17 18 -13 -6 -22
-19 -22 -31 1 -12 -5 -23 -13 -26 -9 -3 -11 1 -6 17 6 21 -8 30 -20 11 -3 -5
-11 -10 -17 -10 -6 0 -1 11 12 25 13 14 28 25 32 25 5 0 16 7 25 15 14 14 17
14 32 0 23 -20 37 -19 54 5 9 13 27 20 55 22 23 2 42 7 42 11 0 5 4 6 10 2 5
-3 7 -12 3 -20z m-1374 -684 c16 -15 15 -18 -12 -44 -24 -23 -27 -30 -17 -42
15 -18 35 -15 36 6 0 17 31 76 43 83 5 3 15 -1 22 -10 10 -12 10 -15 -2 -12
-9 2 -15 -7 -17 -25 -2 -16 -10 -31 -18 -34 -31 -12 -45 -79 -21 -95 9 -6 9
-8 0 -8 -16 0 -36 37 -27 52 4 6 1 9 -7 6 -8 -3 -14 -10 -14 -15 0 -6 -3 -15
-7 -19 -5 -4 -8 -12 -8 -18 0 -6 4 -5 9 2 6 10 12 7 25 -13 l18 -27 24 36 c14
20 27 36 30 36 3 0 3 -4 0 -9 -3 -5 0 -21 8 -36 13 -26 14 -26 21 -6 3 12 11
21 16 21 13 0 11 -14 -3 -29 -11 -11 -9 -12 10 -6 13 4 22 2 22 -4 0 -6 9 -11
20 -11 14 0 21 9 26 35 8 47 23 44 22 -4 0 -22 3 -44 6 -50 4 -6 1 -11 -7 -11
-11 0 -13 7 -10 23 l6 22 -20 -20 c-20 -19 -20 -20 -2 -29 11 -5 19 -13 19
-18 0 -10 -16 -3 -40 18 -8 7 -28 16 -45 20 l-30 7 19 -22 c11 -11 17 -23 14
-26 -3 -3 -18 11 -33 30 -25 34 -28 35 -41 18 -7 -10 -14 -13 -14 -8 0 6 -5 3
-11 -5 -9 -13 -10 -13 -6 2 7 20 -28 56 -36 36 -3 -9 -11 -5 -25 12 -12 14
-21 30 -22 35 0 6 5 3 10 -5 8 -13 10 -13 10 2 0 9 3 25 6 35 5 15 4 15 -5 3
-9 -13 -11 -12 -11 6 0 11 14 39 31 62 32 43 32 75 0 36 -9 -11 -22 -19 -29
-16 -8 2 -13 -2 -11 -9 3 -28 -1 -41 -13 -37 -16 6 -41 -19 -33 -32 3 -5 2
-10 -4 -10 -19 0 -21 19 -4 41 49 61 98 107 106 102 6 -3 17 -13 26 -22z
m-371 -671 c-1 -20 -8 -35 -21 -42 -14 -7 -16 -12 -7 -18 9 -5 9 -9 1 -14 -6
-4 -11 -17 -11 -29 0 -20 0 -20 -15 -1 -13 17 -14 17 -15 2 0 -9 5 -20 10 -23
6 -3 10 -12 10 -18 0 -8 -3 -8 -9 2 -7 10 -12 8 -24 -10 -9 -12 -19 -20 -22
-17 -4 3 4 15 16 27 13 12 18 21 11 21 -6 0 -20 -9 -30 -20 -12 -14 -25 -18
-37 -14 -15 6 -17 3 -13 -20 3 -14 2 -29 -3 -31 -13 -9 -20 31 -9 59 15 41 11
66 -5 31 -9 -20 -14 -24 -14 -12 -1 21 -9 22 -33 0 -17 -15 -18 -15 -7 16 7
21 16 30 25 27 8 -3 15 1 15 9 5 58 35 74 148 79 13 1 26 7 29 14 7 21 11 13
10 -18z"/>
<path d="M3611 4756 c-9 -11 -7 -15 9 -19 11 -3 20 -10 20 -17 0 -6 -5 -8 -11
-4 -8 4 -8 0 0 -15 10 -17 9 -21 -4 -21 -19 0 -20 -16 0 -24 8 -3 15 -15 15
-27 0 -17 -3 -19 -14 -10 -11 9 -16 9 -22 0 -4 -6 0 -16 10 -21 9 -5 16 -16
16 -24 0 -10 -5 -12 -12 -8 -9 5 -9 2 1 -9 12 -15 11 -17 -5 -17 -15 0 -16 -2
-5 -9 7 -5 11 -13 8 -19 -4 -5 2 -17 13 -27 25 -22 26 -36 3 -30 -10 3 -4 -1
12 -9 25 -12 27 -15 12 -21 -9 -4 -24 -2 -33 5 -10 9 -18 10 -26 2 -13 -13 -3
-30 26 -43 17 -8 15 -9 -13 -4 -27 4 -32 2 -27 -11 3 -9 6 -20 6 -25 0 -5 7
-9 16 -9 21 0 47 -27 39 -41 -5 -6 -12 -4 -20 8 -13 17 -13 17 -12 -2 1 -11
-4 -20 -11 -20 -7 0 -17 -6 -21 -14 -15 -24 -33 -2 -26 32 7 30 6 31 -8 12
-10 -12 -13 -30 -10 -44 4 -16 2 -22 -5 -17 -6 3 -14 1 -19 -6 -8 -14 -9 -18
-12 -45 -2 -17 -3 -17 -10 0 -4 10 -11 18 -16 18 -6 -1 -11 4 -11 9 -1 6 -2
15 -3 21 0 5 -5 7 -11 4 -5 -3 -16 9 -25 27 -10 21 -14 25 -11 11 2 -13 0 -23
-5 -23 -10 0 -12 -70 -3 -94 3 -9 12 -16 20 -16 8 0 11 -6 7 -16 -4 -11 -8
-12 -13 -4 -5 8 -9 4 -13 -9 -3 -14 -10 -19 -21 -15 -12 4 -16 0 -16 -16 0
-12 -11 -35 -24 -51 -32 -38 -25 -72 11 -58 14 5 28 7 31 5 2 -3 12 -1 22 4 9
5 63 11 119 14 80 4 101 2 101 -8 0 -21 30 -41 56 -38 13 2 24 -1 24 -7 0 -14
65 -14 91 0 11 5 17 15 13 22 -3 7 4 1 15 -13 11 -14 21 -19 21 -12 0 10 5 10
21 2 24 -13 29 -10 32 17 1 20 27 52 27 33 0 -5 5 -10 11 -10 7 0 9 9 6 21 -3
13 -1 19 6 16 7 -2 20 0 30 5 10 5 21 8 23 5 6 -6 -18 -60 -29 -68 -5 -3 -1
-9 8 -12 11 -5 14 -3 9 5 -5 7 -2 9 9 5 18 -7 29 15 20 39 -5 14 -3 15 15 5
18 -10 22 -9 22 4 0 9 5 13 10 10 6 -3 10 -2 10 4 0 6 -12 9 -27 8 -22 -2 -27
2 -25 16 2 11 -4 17 -16 17 -11 0 -22 7 -26 15 -3 8 -16 15 -28 15 -19 0 -20
2 -8 10 12 8 11 10 -7 10 -13 0 -23 -4 -23 -9 0 -5 -13 -11 -29 -14 -16 -3
-36 -13 -45 -22 -9 -9 -16 -13 -16 -8 0 12 20 40 20 29 0 -6 9 0 20 12 26 27
25 36 0 22 -17 -9 -22 -7 -30 12 -7 18 -9 19 -9 5 -1 -19 -44 -41 -49 -26 -6
16 -31 9 -42 -12 -11 -20 -12 -20 -25 -2 -9 10 -14 13 -15 6 0 -7 -5 -13 -11
-13 -14 0 -39 -25 -39 -39 0 -7 -11 -9 -25 -7 -16 3 -25 0 -25 -9 0 -7 -7 -15
-15 -19 -8 -3 -15 0 -15 5 0 6 -9 9 -20 6 -15 -4 -20 0 -20 14 0 17 -3 18 -20
9 -14 -7 -20 -7 -20 0 0 5 -7 10 -15 10 -16 0 -31 60 -21 85 7 19 46 20 46 1
0 -7 7 -19 15 -26 8 -7 15 -22 15 -34 0 -16 2 -18 9 -7 7 11 10 7 14 -15 4
-28 4 -28 12 -6 6 17 10 20 16 11 6 -10 11 -10 22 -1 7 7 18 8 22 4 5 -4 5 -2
2 4 -4 7 -1 23 6 37 13 25 15 25 31 9 16 -16 17 -16 10 1 -4 11 -1 17 9 17 8
0 17 -3 20 -7 2 -5 2 -2 1 5 -3 11 9 16 29 13 4 0 7 7 7 16 1 16 2 16 16 -2
11 -15 18 -17 32 -9 28 18 25 43 -9 72 -59 50 -95 92 -79 92 6 0 8 5 5 10 -7
12 -16 112 -16 175 1 22 -7 78 -15 125 -23 116 -36 139 -63 106z"/>
<path d="M1115 2231 c-3 -7 -14 -11 -24 -8 -12 3 -22 -1 -25 -10 -9 -21 -8
-23 9 -17 8 4 15 1 15 -5 0 -7 9 -9 25 -5 15 4 25 2 25 -5 0 -6 -4 -11 -10
-11 -5 0 -7 -7 -3 -15 5 -14 8 -14 29 0 31 20 46 19 42 -2 -2 -11 2 -17 10
-15 7 1 23 -3 35 -10 l22 -12 -23 -5 c-13 -3 -23 -10 -22 -16 1 -5 -7 -12 -17
-16 -10 -3 -18 -12 -18 -20 0 -9 -17 -16 -50 -20 -27 -3 -40 -7 -27 -7 37 -3
15 -22 -26 -23 -20 -1 -29 -3 -19 -6 19 -5 24 -23 5 -23 -31 0 6 -13 44 -15
40 -2 41 -1 16 8 -35 13 -35 21 -2 35 16 8 31 9 43 3 10 -6 28 -7 41 -4 17 4
21 2 18 -8 -3 -8 -19 -14 -40 -14 -28 0 -34 -3 -30 -17 2 -10 9 -18 14 -18 5
0 6 5 3 10 -3 6 3 10 14 10 12 0 21 -7 21 -15 0 -16 43 -31 59 -20 6 3 11 1
11 -4 0 -6 -6 -11 -12 -11 -7 -1 -2 -7 12 -15 l25 -14 -31 4 c-17 2 -46 0 -65
-5 l-34 -8 38 -1 c20 -1 37 -5 37 -11 0 -5 16 -12 35 -16 47 -9 50 -17 13 -39
-22 -13 -33 -15 -36 -7 -2 7 -12 12 -23 12 -13 0 -19 -7 -19 -24 0 -20 -4 -24
-25 -21 -14 1 -25 -2 -25 -6 0 -5 -10 -9 -22 -10 -19 -1 -18 -2 7 -10 32 -9
95 5 95 22 0 5 7 9 16 9 10 0 6 -8 -14 -25 -17 -14 -34 -25 -40 -25 -6 0 -20
-12 -31 -27 -11 -16 -21 -23 -21 -16 0 6 -8 9 -18 6 -11 -2 -18 -13 -18 -26 1
-14 -7 -23 -24 -29 -14 -4 0 -5 35 -2 108 11 129 15 143 27 8 7 17 11 19 9 2
-2 16 7 31 18 26 21 27 22 7 36 -11 8 -28 13 -37 10 -31 -7 -19 18 15 34 17 8
32 20 32 25 0 17 38 52 63 58 15 3 29 -1 41 -14 16 -17 22 -18 47 -8 l29 12
-42 8 c-23 4 -51 13 -62 19 -16 8 -26 7 -44 -5 -22 -14 -27 -14 -58 0 l-34 16
33 -4 33 -4 -26 24 c-14 13 -23 29 -20 34 4 5 10 7 14 4 5 -2 16 4 26 15 16
17 16 20 2 20 -8 0 -17 -5 -19 -11 -2 -6 -19 -9 -38 -7 l-35 4 35 11 35 11
-37 1 c-20 1 -40 6 -44 12 -5 8 1 10 19 5 14 -3 29 -2 32 4 3 5 -2 10 -13 10
-32 0 -20 49 12 50 5 0 3 -7 -4 -15 -17 -21 0 -18 30 5 20 15 22 20 10 25 -21
8 -63 2 -73 -10 -5 -6 -7 -4 -4 5 2 8 15 16 29 18 16 2 28 11 31 23 5 20 -1
23 -42 19 -14 -1 -21 2 -17 9 4 7 -1 11 -14 11 -11 0 -20 6 -19 13 3 26 -2 37
-16 37 -8 0 -15 -4 -15 -9 0 -5 -9 -11 -20 -14 -11 -3 -20 -1 -20 4 0 5 5 9
11 9 5 0 8 4 4 9 -3 5 3 12 12 14 16 4 16 5 -1 6 -11 1 -16 6 -13 15 4 10 -2
13 -19 12 -13 0 -26 -7 -29 -15z"/>
<path d="M1608 2233 c6 -3 9 -10 6 -15 -4 -6 -2 -8 3 -5 6 4 16 0 23 -8 7 -8
9 -15 4 -15 -5 0 -2 -5 6 -10 12 -8 11 -10 -7 -10 -15 0 -21 5 -17 14 4 10 -2
12 -22 8 -18 -3 -25 -1 -20 6 4 7 -7 10 -34 9 l-41 -1 23 -18 c15 -12 33 -16
53 -12 27 4 28 4 13 -9 -22 -17 -13 -27 24 -27 19 0 27 -4 22 -11 -3 -6 4 -4
17 4 22 14 27 14 64 -3 43 -21 84 -28 53 -9 -10 5 -18 14 -18 19 0 4 8 6 18 4
9 -3 26 2 37 10 18 14 18 15 3 16 -22 0 -24 20 -3 20 8 0 15 5 15 10 0 16 -12
12 -40 -15 l-25 -24 -30 19 c-17 11 -23 20 -15 20 12 0 12 2 1 9 -9 6 -10 11
-3 15 6 4 17 -5 25 -20 9 -17 17 -23 21 -15 4 6 3 11 -3 11 -6 0 -8 7 -5 15 4
9 0 15 -7 15 -8 0 -45 2 -84 4 -38 2 -64 1 -57 -1z"/>
<path d="M981 813 c-1 -6 -9 -9 -20 -6 -10 3 -22 0 -25 -6 -5 -7 -1 -8 11 -4
17 6 16 5 -1 -16 -11 -12 -22 -17 -26 -12 -3 6 -11 -3 -19 -20 -15 -34 -30
-30 -26 6 3 29 -2 26 -19 -7 -7 -13 -17 -23 -23 -23 -7 0 -18 -6 -24 -12 -7
-7 -20 -13 -30 -13 -12 0 -15 -7 -12 -27 l4 -28 -14 24 -14 24 -5 -34 c-3 -19
-1 -47 5 -62 9 -26 11 -27 25 -13 9 9 17 28 18 43 3 48 4 51 20 57 13 5 14 3
7 -6 -5 -7 -13 -22 -17 -33 -6 -17 -4 -17 19 5 18 17 28 21 36 13 8 -8 4 -16
-15 -29 -15 -9 -34 -31 -43 -48 l-15 -31 21 23 c12 12 26 20 31 17 6 -3 7 0 4
8 -3 8 2 20 11 27 19 15 34 5 17 -12 -7 -7 -12 -16 -12 -21 0 -5 7 -1 16 8 9
9 23 14 30 11 9 -3 14 2 14 14 0 32 20 64 55 90 19 14 35 31 35 38 0 6 5 12
10 12 6 0 10 5 10 10 0 6 -11 3 -25 -6 -29 -19 -48 -10 -20 9 10 8 15 20 12
28 -3 8 -6 9 -6 2z"/>
</g>
</svg>
