<?xml version="1.0" standalone="no"?>
<!DOCTYPE svg PUBLIC "-//W3C//DTD SVG 20010904//EN"
 "http://www.w3.org/TR/2001/REC-SVG-20010904/DTD/svg10.dtd">
<svg version="1.0" xmlns="http://www.w3.org/2000/svg"
 width="354.000000pt" height="461.000000pt" viewBox="0 0 354.000000 461.000000"
 preserveAspectRatio="xMidYMid meet">
<metadata>
Created by potrace 1.15, written by Peter Selinger 2001-2017
</metadata>
<g transform="translate(0.000000,461.000000) scale(0.100000,-0.100000)"
fill="#000000" stroke="none">
<path d="M2691 4453 c-30 -8 -64 -21 -75 -29 -11 -8 -29 -14 -39 -14 -10 0
-43 -21 -73 -46 -54 -46 -66 -54 -178 -116 -38 -21 -67 -46 -84 -73 -14 -22
-36 -56 -49 -75 -12 -20 -30 -56 -38 -80 -21 -62 -109 -155 -156 -166 -95 -22
-201 -36 -272 -34 -16 0 -26 -4 -23 -8 3 -5 -6 -7 -19 -4 -15 2 -25 0 -25 -7
0 -6 -11 -11 -25 -11 -14 0 -25 -4 -25 -10 0 -5 -7 -7 -15 -4 -11 5 -15 -1
-15 -22 0 -16 4 -24 8 -19 4 6 22 10 40 10 30 0 33 -2 30 -30 -3 -27 -7 -29
-41 -31 -21 0 -45 5 -53 13 -11 12 -16 11 -31 -7 -18 -21 -67 -27 -78 -10 -15
25 -55 10 -80 -30 -14 -22 -25 -44 -25 -50 0 -6 -5 -8 -11 -4 -6 3 -8 17 -4
32 7 30 -12 82 -31 82 -8 0 -14 -7 -14 -15 0 -19 -10 -19 -35 1 -11 9 -15 18
-10 20 26 10 75 45 75 53 0 16 -61 29 -165 36 -78 5 -110 3 -144 -9 -60 -22
-133 -20 -181 4 -22 11 -57 44 -79 74 -23 31 -79 83 -131 121 -87 65 -120 103
-135 155 -25 86 -56 113 -165 143 -87 24 -134 28 -154 14 -42 -31 -59 -292
-27 -417 10 -41 25 -108 32 -148 11 -62 17 -74 36 -78 26 -7 53 10 53 33 0 7
7 16 15 19 13 5 12 8 -1 22 -15 15 -15 16 2 23 11 4 30 7 44 7 l25 0 -25 -8
c-14 -4 -19 -8 -12 -9 7 -1 10 -5 7 -11 -4 -6 9 -10 32 -10 34 -1 36 -2 21
-14 -10 -7 -15 -16 -11 -20 4 -4 0 -4 -9 -1 -9 4 -18 0 -22 -10 -3 -9 -10 -14
-16 -10 -5 3 -19 1 -31 -6 -17 -9 -19 -13 -8 -20 8 -5 21 -8 29 -8 10 0 8 3
-5 9 -19 8 -19 9 4 9 17 1 22 -3 17 -14 -3 -9 0 -15 10 -15 12 0 11 -4 -6 -18
l-22 -18 23 -1 c12 -1 29 -9 37 -17 13 -13 10 -15 -22 -22 -22 -4 -42 -2 -48
4 -6 6 -16 8 -23 5 -25 -9 -9 28 21 48 23 16 25 20 9 18 -11 -1 -27 0 -35 4
-20 7 -78 18 -63 11 8 -4 11 -15 7 -31 -6 -24 -5 -26 17 -20 20 5 21 4 9 -6
-23 -18 -18 -87 6 -87 13 0 14 -3 5 -14 -9 -10 -9 -16 -1 -21 6 -4 8 -15 5
-25 -9 -30 12 -33 84 -14 43 10 75 14 87 9 17 -8 17 -9 -4 -13 -16 -2 -22 -8
-18 -18 3 -8 2 -12 -3 -9 -5 3 -12 1 -16 -5 -3 -5 1 -10 9 -10 8 0 18 -4 21
-10 4 -6 -6 -7 -27 -4 -26 5 -31 4 -21 -6 6 -7 30 -13 52 -13 23 0 41 -5 41
-10 0 -5 -23 -7 -52 -5 -29 3 -47 3 -40 1 6 -3 12 -9 12 -14 0 -13 -38 -11
-42 2 -3 9 -10 9 -26 0 -29 -16 -29 -35 0 -25 20 6 21 5 9 -9 -9 -11 -11 -29
-7 -51 4 -18 7 -61 7 -95 1 -55 3 -61 23 -61 20 0 19 -1 -4 -13 -17 -9 -28
-26 -35 -55 -6 -24 -14 -40 -17 -37 -3 4 -9 -3 -13 -14 -3 -12 -10 -21 -15
-21 -25 0 -61 -130 -42 -153 14 -17 8 -77 -9 -88 -11 -7 -10 -9 4 -9 12 0 16
-4 10 -12 -4 -7 -8 -18 -9 -24 -1 -6 -5 -21 -8 -32 -5 -13 -1 -22 11 -27 17
-7 17 -8 -2 -15 -19 -8 -19 -8 4 -17 l25 -10 -29 -7 c-26 -7 -27 -9 -12 -17 9
-6 17 -15 17 -20 0 -6 -4 -7 -10 -4 -5 3 -10 2 -10 -4 0 -5 13 -15 29 -22 17
-8 33 -26 40 -46 7 -18 17 -33 22 -33 14 0 11 -38 -3 -43 -8 -4 -4 -8 10 -12
12 -4 22 -15 22 -24 0 -9 3 -12 8 -6 4 6 16 11 27 12 11 1 36 4 54 8 31 6 34
5 22 -9 -8 -9 -28 -16 -45 -16 -24 0 -27 -3 -16 -10 12 -8 10 -10 -10 -11 -22
-1 -22 -2 6 -8 17 -4 36 -11 42 -14 6 -4 17 -1 25 7 15 15 31 10 40 -14 4 -12
6 -11 6 3 1 12 9 17 29 17 41 0 73 11 66 22 -4 6 2 5 14 -1 31 -16 50 -13 63
10 6 12 7 19 2 16 -5 -4 -10 0 -10 8 0 10 8 12 29 8 19 -4 28 -1 28 7 0 7 -7
10 -18 6 -9 -4 -1 10 19 30 20 20 43 34 50 32 10 -3 7 -10 -8 -23 -16 -13 -19
-22 -12 -31 7 -8 5 -16 -4 -25 -19 -20 -30 -51 -28 -76 2 -15 -3 -23 -13 -23
-9 0 -16 -7 -16 -15 0 -8 -5 -15 -11 -15 -5 0 -7 6 -3 13 5 8 2 8 -9 -2 -24
-19 -22 -22 16 -20 54 3 77 -1 77 -12 0 -6 -8 -8 -19 -4 -11 3 -22 1 -26 -5
-5 -8 21 -15 47 -11 4 0 5 -27 1 -61 -5 -49 -11 -66 -31 -83 -18 -15 -26 -33
-28 -63 -1 -23 2 -42 7 -42 6 0 8 -4 4 -9 -3 -5 1 -11 9 -13 25 -6 0 -48 -29
-48 -15 0 -24 4 -20 10 3 6 -1 10 -10 10 -13 0 -14 -4 -5 -21 10 -18 18 -20
63 -14 33 4 47 3 39 -3 -8 -5 -14 -13 -14 -18 -1 -21 -11 -34 -27 -34 -13 0
-13 -2 -2 -9 10 -7 10 -10 1 -16 -7 -4 -16 -2 -20 4 -4 7 -13 11 -20 9 -7 -2
-14 2 -17 9 -3 7 3 9 16 6 14 -4 21 -1 21 10 0 21 -26 29 -40 11 -7 -8 -17
-14 -22 -14 -6 0 -6 6 1 14 15 18 -14 30 -37 16 -14 -9 -12 -10 8 -5 l25 6
-24 -14 -23 -14 31 -6 c29 -6 45 -27 20 -27 -6 0 -9 -7 -5 -15 3 -8 1 -15 -3
-15 -5 0 -18 -3 -28 -7 -16 -6 -16 -5 -4 10 11 14 11 17 0 17 -9 1 -8 5 5 15
16 12 17 15 4 15 -8 0 -21 -7 -28 -15 -7 -8 -10 -15 -7 -15 11 0 -38 -47 -61
-59 -12 -7 -20 -16 -17 -22 6 -8 -9 -14 -29 -10 -16 3 -98 -42 -104 -57 -3 -8
1 -18 8 -22 10 -6 11 -13 4 -22 -15 -19 -11 -51 6 -55 12 -4 12 -2 2 5 -10 7
-10 11 3 22 13 11 14 10 9 -5 -6 -15 -4 -16 14 -6 11 6 35 27 54 46 35 38 88
70 88 54 0 -5 -4 -9 -9 -9 -4 0 -19 -10 -32 -23 -13 -13 -50 -43 -82 -67 -32
-24 -63 -52 -68 -63 -7 -12 -7 -17 -1 -13 11 7 24 -19 15 -28 -4 -3 -7 -17 -8
-30 0 -22 1 -23 19 -10 11 8 25 14 31 14 5 0 4 -4 -4 -9 -8 -5 -15 -17 -16
-28 -1 -10 -6 -26 -10 -36 -9 -21 21 -71 39 -64 7 3 12 -4 13 -17 0 -11 -1
-15 -4 -9 -3 10 -8 10 -19 -1 -19 -19 -18 -40 1 -32 13 5 14 2 3 -17 -13 -24
-12 -84 1 -102 4 -5 7 -35 5 -65 -3 -51 16 -159 37 -205 24 -53 39 -111 39
-149 0 -54 11 -71 37 -58 17 10 20 8 20 -18 0 -16 -4 -27 -9 -24 -4 3 -16 -3
-26 -12 -16 -17 -16 -17 6 -12 17 5 21 3 13 -6 -5 -6 -11 -41 -13 -76 -2 -36
-7 -70 -11 -77 -4 -6 -1 -14 5 -16 10 -4 10 -6 1 -6 -7 -1 -13 -8 -13 -17 0
-9 5 -12 12 -8 8 5 9 2 5 -10 -6 -14 -3 -17 8 -12 9 3 13 2 10 -4 -3 -6 -12
-10 -19 -10 -16 0 -41 -54 -31 -69 3 -6 12 -11 20 -11 9 0 6 -9 -10 -26 -14
-15 -25 -39 -25 -53 0 -15 -5 -32 -12 -39 -8 -8 -8 -15 1 -26 8 -10 9 -16 2
-21 -6 -3 -16 -15 -21 -26 -11 -19 7 -19 1555 -19 l1565 0 0 288 c0 253 -2
297 -19 363 -29 109 -40 215 -40 389 0 161 -8 413 -15 465 -2 17 -11 50 -20
75 -33 94 -79 237 -93 295 -8 33 -23 96 -33 140 -33 141 -46 170 -127 289 -18
26 -33 58 -33 70 0 11 -9 36 -20 54 -11 18 -20 39 -20 48 0 8 -8 29 -17 47 -9
18 -18 37 -19 42 -1 6 -24 46 -50 90 l-49 80 1 300 c1 361 10 574 31 716 15
104 14 106 -10 205 -14 54 -30 131 -36 169 -17 103 -66 294 -79 307 -17 17
-83 38 -117 37 -16 0 -54 -7 -84 -16z m208 -484 c30 -10 32 -15 29 -45 -2 -18
-1 -31 3 -28 16 10 25 -96 13 -143 -4 -13 -12 -23 -20 -23 -7 0 -18 -8 -23
-17 -10 -17 -10 -17 -11 0 0 10 -6 28 -12 40 -14 24 -14 27 -17 105 -1 42 -4
52 -18 53 -15 0 -15 2 2 9 19 8 19 8 -5 18 -24 10 -24 11 10 12 33 1 34 1 16
15 -24 18 -11 19 33 4z m-2223 -1162 c3 -3 -3 -30 -14 -59 -19 -53 -15 -118 8
-118 14 0 49 72 56 117 5 30 11 39 27 40 42 4 87 -60 87 -122 0 -51 -25 -99
-73 -140 -22 -19 -38 -37 -35 -40 9 -9 58 17 58 31 0 13 29 28 38 19 3 -3 0
-5 -6 -5 -7 0 -12 -9 -12 -19 0 -10 -7 -21 -15 -25 -8 -3 -12 -12 -9 -21 4
-10 2 -15 -7 -13 -8 2 -13 -3 -12 -9 2 -7 -2 -13 -8 -13 -6 0 -9 9 -6 20 5 18
4 18 -19 3 -17 -11 -24 -12 -24 -3 0 9 -3 10 -13 1 -16 -12 -28 -5 -21 13 3 8
-14 17 -46 26 -52 14 -90 39 -90 58 0 6 -5 12 -12 14 -6 2 -13 11 -14 19 -2 7
-8 32 -13 54 -12 47 -14 105 -3 105 4 0 15 14 24 30 10 17 28 34 40 39 25 9
104 8 114 -2z m1059 -43 c8 -20 15 -45 15 -56 0 -25 28 -78 41 -78 16 0 39 65
40 112 0 24 3 37 6 31 2 -7 11 -13 18 -13 7 0 16 -6 18 -12 4 -8 8 -4 12 9 9
30 70 43 92 20 26 -26 29 -101 5 -142 -26 -44 -22 -44 17 -2 17 17 31 27 31
21 0 -7 -7 -15 -16 -18 -8 -3 -13 -10 -10 -15 3 -5 -1 -14 -9 -21 -8 -7 -12
-16 -9 -21 3 -5 -2 -9 -10 -9 -9 0 -16 -4 -16 -10 0 -22 -2 -25 -23 -38 -21
-13 -21 -13 5 -8 16 4 28 1 31 -7 3 -7 6 -5 6 6 1 10 9 17 22 17 15 0 19 5 15
15 -3 8 -1 15 5 15 7 0 9 -10 5 -24 -4 -15 -1 -27 7 -30 6 -3 3 -4 -9 -1 -12
3 -27 -1 -34 -10 -8 -9 -22 -13 -39 -10 -18 4 -21 3 -8 -3 17 -7 17 -9 -4 -27
-19 -17 -21 -17 -16 -3 4 11 0 19 -14 23 -10 4 -19 11 -19 16 0 6 5 7 10 4 6
-3 10 1 10 9 0 18 -16 21 -25 6 -3 -5 -25 -10 -48 -10 -41 -1 -42 -1 -17 -15
14 -8 39 -15 55 -15 28 -1 29 -1 11 -15 -17 -13 -22 -13 -35 -1 -24 21 -91 47
-91 35 0 -15 -101 42 -108 61 -3 8 -8 17 -11 20 -12 10 -31 61 -31 84 0 13 11
35 25 50 14 15 25 34 25 43 0 20 29 53 46 53 8 0 21 -16 29 -36z"/>
<path d="M413 2236 c8 -21 -15 -36 -44 -30 -19 5 -21 3 -9 -5 14 -10 7 -16
-15 -11 -5 1 -1 -7 8 -18 18 -19 17 -21 -5 -36 -15 -11 -18 -16 -7 -16 8 0 20
5 27 12 6 6 14 9 18 6 3 -4 -4 -16 -15 -27 -11 -11 -16 -23 -11 -26 14 -9 82
23 75 35 -3 5 1 10 10 10 9 0 13 -4 10 -10 -3 -5 2 -10 12 -10 17 -1 17 -1 0
-14 -10 -8 -15 -20 -11 -30 5 -12 -4 -18 -40 -28 -25 -7 -46 -16 -46 -20 0 -4
-12 -8 -27 -9 -25 0 -26 -1 -8 -9 18 -7 16 -9 -12 -15 -18 -4 -38 -14 -44 -21
-9 -12 -4 -14 32 -15 31 -2 36 -3 16 -6 -16 -3 -31 -12 -34 -21 -3 -9 -18 -27
-32 -38 l-25 -21 22 -7 c17 -6 21 -12 16 -32 -5 -21 -3 -24 20 -24 15 0 40 7
55 14 15 8 37 15 47 14 10 0 38 4 62 10 26 6 55 7 73 2 16 -5 31 -5 34 0 8 13
-6 17 -47 15 -21 -1 -38 1 -38 5 0 3 -15 6 -32 7 -18 0 -44 1 -58 2 -24 2 -24
2 -6 16 11 8 17 18 13 21 -4 4 -2 13 4 21 9 10 7 13 -10 13 -11 0 -21 5 -21
11 0 5 5 7 11 4 6 -4 19 2 30 14 20 21 20 21 -2 21 l-22 0 24 21 c16 14 31 18
49 14 19 -4 21 -3 10 5 -9 6 -10 10 -3 10 6 0 14 -4 17 -9 4 -5 16 -4 30 2 13
7 22 15 20 19 -3 5 2 8 11 8 9 0 13 5 10 10 -3 6 0 10 7 11 7 0 4 4 -7 8 -20
8 -20 8 2 15 11 4 24 13 27 21 5 13 2 13 -23 0 -16 -8 -31 -21 -34 -30 -4 -8
-11 -15 -17 -15 -6 0 -8 5 -3 13 14 22 11 35 -7 30 -10 -3 -21 0 -25 7 -4 7 2
14 15 17 20 5 20 7 -11 20 -18 7 -39 11 -46 9 -7 -3 -15 -1 -18 4 -4 6 3 10
14 10 12 0 21 4 21 8 0 5 17 13 38 19 l37 10 -31 2 c-17 0 -34 4 -38 8 -3 4
-16 8 -27 10 -15 2 -20 -1 -16 -11z"/>
<path d="M313 1764 c-44 -19 -60 -50 -34 -63 13 -8 17 -17 14 -32 -5 -20 -3
-21 28 -14 18 4 45 15 58 23 13 9 33 18 44 19 11 2 37 13 59 25 33 19 36 23
21 29 -33 13 -93 10 -99 -5 -11 -28 -30 -25 -28 5 2 33 -11 36 -63 13z"/>
</g>
</svg>
